<svg xmlns="http://www.w3.org/2000/svg" xmlns:xlink="http://www.w3.org/1999/xlink" id="Group_7328" data-name="Group 7328" width="163" height="163" viewBox="0 0 163 163"><defs><style>      .cls-1, .cls-13 {        fill: none;      }      .cls-2 {        fill: #191791;      }      .cls-3 {        fill: #4432db;      }      .cls-4 {        clip-path: url(#clip-path);      }      .cls-5 {        opacity: 0.4;      }      .cls-6 {        clip-path: url(#clip-path-2);      }      .cls-7 {        clip-path: url(#clip-path-3);      }      .cls-8 {        fill: #a8c4e5;      }      .cls-9 {        fill: #d77728;      }      .cls-10 {        fill: #fff;      }      .cls-11 {        fill: #ffc82e;      }      .cls-12 {        fill: #ffad00;      }      .cls-13 {        stroke: #f70;        stroke-miterlimit: 10;        stroke-width: 0.94px;      }      .cls-14 {        clip-path: url(#clip-path-4);      }      .cls-15 {        clip-path: url(#clip-path-6);      }      .cls-16 {        clip-path: url(#clip-path-8);      }      .cls-17 {        fill: #3b2ad1;      }      .cls-18 {        fill: #1172a3;      }      .cls-19 {        fill: #584acf;      }      .cls-20 {        fill: #baccf5;      }      .cls-21 {        opacity: 0.71;      }      .cls-22 {        clip-path: url(#clip-path-10);      }      .cls-23 {        clip-path: url(#clip-path-11);      }      .cls-24 {        fill: #7fb0f0;      }      .cls-25 {        fill: #d4e4f7;      }      .cls-26 {        clip-path: url(#clip-path-12);      }      .cls-27 {        clip-path: url(#clip-path-13);      }      .cls-28 {        clip-path: url(#clip-path-14);      }      .cls-29 {        clip-path: url(#clip-path-15);      }    </style><clipPath id="clip-path"><rect id="Rectangle_2580" data-name="Rectangle 2580" class="cls-1" width="138.32" height="136.34" transform="translate(12.93 13.78)"></rect></clipPath><clipPath id="clip-path-2"><rect id="Rectangle_2567" data-name="Rectangle 2567" class="cls-1" width="33.88" height="19.17" transform="translate(89.96 94.83)"></rect></clipPath><clipPath id="clip-path-3"><rect id="Rectangle_2566" data-name="Rectangle 2566" class="cls-1" width="33.88" height="19.17" transform="translate(89.97 94.83)"></rect></clipPath><clipPath id="clip-path-4"><rect id="Rectangle_2569" data-name="Rectangle 2569" class="cls-1" width="33.88" height="19.17" transform="translate(117.37 112.49)"></rect></clipPath><clipPath id="clip-path-6"><rect id="Rectangle_2571" data-name="Rectangle 2571" class="cls-1" width="64.7" height="41.22" transform="translate(35.6 105.77)"></rect></clipPath><clipPath id="clip-path-8"><rect id="Rectangle_2573" data-name="Rectangle 2573" class="cls-1" width="64.7" height="39.92" transform="translate(53.33 110.2)"></rect></clipPath><clipPath id="clip-path-10"><rect id="Rectangle_2575" data-name="Rectangle 2575" class="cls-1" width="48.37" height="27.8" transform="translate(55.94 108.23)"></rect></clipPath><clipPath id="clip-path-11"><rect id="Rectangle_2574" data-name="Rectangle 2574" class="cls-1" width="48.37" height="27.79" transform="translate(55.94 108.23)"></rect></clipPath><clipPath id="clip-path-12"><rect id="Rectangle_2577" data-name="Rectangle 2577" class="cls-1" width="43.82" height="32.73" transform="translate(36.45 101.94)"></rect></clipPath><clipPath id="clip-path-13"><rect id="Rectangle_2576" data-name="Rectangle 2576" class="cls-1" width="43.82" height="32.72" transform="translate(36.45 101.94)"></rect></clipPath><clipPath id="clip-path-14"><rect id="Rectangle_2579" data-name="Rectangle 2579" class="cls-1" width="41.63" height="34.65" transform="translate(38.91 97.82)"></rect></clipPath><clipPath id="clip-path-15"><rect id="Rectangle_2578" data-name="Rectangle 2578" class="cls-1" width="41.63" height="34.64" transform="translate(38.91 97.82)"></rect></clipPath></defs><g id="Group_7325" data-name="Group 7325"><path id="Path_10691" data-name="Path 10691" class="cls-2" d="M108.35,27.07v2.78l25.38,14.48.07-2.88Z"></path><path id="Path_10692" data-name="Path 10692" class="cls-3" d="M99.3,84.19,88.7,78.33l-.83-19.94,9.41-16.62-10.9-6.5L51.16,99.84,61,105.77l36.24-64Z"></path><path id="Path_10693" data-name="Path 10693" class="cls-3" d="M126,36.92l3-2.78-11.7-7.07-28,51.3,9.88,5.93"></path><path id="Path_10694" data-name="Path 10694" class="cls-3" d="M49.64,79.47l.83,19.93,10.6,5.87-2-42.43ZM12.93,120.92l9.88,5.93L49.64,79.47l9.41-16.63-10.9-6.49Z"></path><path id="Path_10695" data-name="Path 10695" class="cls-2" d="M61.07,105.27,50.47,99.4l-.83-19.93,9.41-16.63-10.9-6.5,10.9,6.5Z"></path><path id="Path_10696" data-name="Path 10696" class="cls-2" d="M99.3,84.3,88.7,78.44,87.87,58.5l9.41-16.62-10.9-6.5,10.9,6.5Z"></path><path id="Path_10697" data-name="Path 10697" class="cls-3" d="M132.58,13.78,108.35,27.07l25.43,14.82Z"></path><g id="Group_7488" data-name="Group 7488" class="cls-4"><g id="Group_6400" data-name="Group 6400"><g id="Group_6369" data-name="Group 6369" class="cls-5"><g id="Group_6368" data-name="Group 6368"><g id="Group_7475" data-name="Group 7475" class="cls-6"><g id="Group_6367" data-name="Group 6367"><g id="Group_6366" data-name="Group 6366"><g id="Group_7474" data-name="Group 7474" class="cls-7"><g id="Group_6365" data-name="Group 6365"><path id="Path_10698" data-name="Path 10698" class="cls-8" d="M120,98.3c-6-4.08-16.64-4.64-23.85-1.27s-8.21,9.42-2.25,13.49,16.65,4.65,23.85,1.27,8.22-9.42,2.25-13.49"></path></g></g></g></g></g></g></g><path id="Path_10699" data-name="Path 10699" class="cls-9" d="M119.42,99.73a13.91,13.91,0,0,1-.56,4.2c-.66,2.29-2.73,4.46-6.14,6.06-7.47,3.5-18.56,2.92-24.75-1.32-2.89-2-4.2-4.38-4-6.75,0-.23.2-3.17.2-3.17a7.37,7.37,0,0,1,1.34-2.4,12.7,12.7,0,0,1,5.14-4c7.48-3.5,18.56-2.92,24.76,1.31,2.6,1.78,3.92,3.93,4,6.07"></path><path id="Path_10700" data-name="Path 10700" class="cls-10" d="M115.24,93.4c-6.19-4.23-17.27-4.82-24.75-1.32s-8.53,9.78-2.33,14,17.27,4.82,24.75,1.32,8.52-9.78,2.33-14"></path><path id="Path_10701" data-name="Path 10701" class="cls-11" d="M115.24,92.86C109.05,88.63,98,88,90.49,91.54s-8.53,9.77-2.33,14,17.27,4.82,24.75,1.31,8.52-9.77,2.33-14"></path><path id="Path_10702" data-name="Path 10702" class="cls-9" d="M119.42,95a13.87,13.87,0,0,1-.56,4.2c-.66,2.29-2.73,4.47-6.14,6.06-7.47,3.5-18.56,2.92-24.75-1.31-2.89-2-4.2-4.39-4-6.76,0-.22.2-3.16.2-3.16a7.27,7.27,0,0,1,1.34-2.4,12.62,12.62,0,0,1,5.14-4c7.48-3.5,18.56-2.92,24.76,1.31,2.6,1.79,3.92,3.93,4,6.07"></path><path id="Path_10703" data-name="Path 10703" class="cls-10" d="M115.24,88.69c-6.19-4.23-17.27-4.82-24.75-1.31s-8.53,9.77-2.33,14,17.27,4.82,24.75,1.31,8.52-9.77,2.33-14"></path><path id="Path_10704" data-name="Path 10704" class="cls-11" d="M115.24,88.15c-6.19-4.23-17.27-4.82-24.75-1.31s-8.53,9.77-2.33,14,17.27,4.81,24.75,1.31,8.52-9.77,2.33-14"></path><path id="Path_10705" data-name="Path 10705" class="cls-9" d="M119.42,90.66a13.87,13.87,0,0,1-.56,4.2c-.66,2.3-2.73,4.47-6.14,6.07-7.47,3.5-18.56,2.91-24.75-1.32-2.89-2-4.2-4.39-4-6.76,0-.22.2-3.16.2-3.16a7.37,7.37,0,0,1,1.34-2.4,12.73,12.73,0,0,1,5.14-4c7.48-3.5,18.56-2.91,24.76,1.32,2.6,1.78,3.92,3.92,4,6.07"></path><path id="Path_10706" data-name="Path 10706" class="cls-10" d="M115.24,84.34C109.05,80.11,98,79.52,90.49,83S82,92.79,88.16,97s17.27,4.82,24.75,1.31,8.52-9.77,2.33-14"></path><path id="Path_10707" data-name="Path 10707" class="cls-11" d="M115.24,83.79C109.05,79.56,98,79,90.49,82.48s-8.53,9.77-2.33,14,17.27,4.82,24.75,1.31,8.52-9.77,2.33-14"></path><path id="Path_10708" data-name="Path 10708" class="cls-9" d="M119.42,86a13.87,13.87,0,0,1-.56,4.2c-.66,2.29-2.73,4.46-6.14,6.06-7.47,3.5-18.56,2.92-24.75-1.31-2.89-2-4.2-4.39-4-6.76,0-.22.2-3.17.2-3.17a7.47,7.47,0,0,1,1.34-2.4,12.79,12.79,0,0,1,5.14-4c7.48-3.5,18.56-2.92,24.76,1.32,2.6,1.78,3.92,3.92,4,6.07"></path><path id="Path_10709" data-name="Path 10709" class="cls-10" d="M115.24,79.63C109.05,75.4,98,74.81,90.49,78.32s-8.53,9.77-2.33,14,17.27,4.81,24.75,1.31,8.52-9.77,2.33-14"></path><path id="Path_10710" data-name="Path 10710" class="cls-11" d="M115.24,79.09c-6.19-4.23-17.27-4.82-24.75-1.32s-8.53,9.78-2.33,14,17.27,4.82,24.75,1.32,8.52-9.78,2.33-14"></path><path id="Path_10711" data-name="Path 10711" class="cls-9" d="M119.42,81.16a13.91,13.91,0,0,1-.56,4.2c-.66,2.29-2.73,4.46-6.14,6.06-7.47,3.5-18.56,2.91-24.75-1.32-2.89-2-4.2-4.38-4-6.76,0-.22.2-3.16.2-3.16a7.37,7.37,0,0,1,1.34-2.4,12.62,12.62,0,0,1,5.14-4c7.48-3.5,18.56-2.92,24.76,1.31,2.6,1.78,3.92,3.93,4,6.07"></path><path id="Path_10712" data-name="Path 10712" class="cls-10" d="M115.24,74.83C109.05,70.6,98,70,90.49,73.51s-8.53,9.77-2.33,14,17.27,4.82,24.75,1.31,8.52-9.77,2.33-14"></path><path id="Path_10713" data-name="Path 10713" class="cls-11" d="M115.24,74.28C109.05,70.05,98,69.47,90.49,73S82,82.74,88.16,87s17.27,4.82,24.75,1.31,8.52-9.77,2.33-14"></path><path id="Path_10714" data-name="Path 10714" class="cls-12" d="M111.15,75.93c-4.32-3-12.07-3.37-17.3-.92s-6,6.84-1.63,9.79,12.08,3.37,17.3.92,6-6.83,1.63-9.79"></path><path id="Path_10715" data-name="Path 10715" class="cls-13" d="M113.54,75.12C108.14,71.43,98.48,70.92,92,74s-7.43,8.52-2,12.21,15.06,4.2,21.57,1.14S118.93,78.81,113.54,75.12Z"></path><path id="Path_10716" data-name="Path 10716" class="cls-9" d="M93.85,75.87c5.23-2.45,13-2,17.3.91a5.8,5.8,0,0,1,2.8,4c.18-1.7-.73-3.44-2.8-4.85-4.33-3-12.07-3.37-17.3-.92-3.14,1.47-4.66,3.64-4.43,5.79.2-1.86,1.7-3.66,4.43-4.94"></path><path id="Path_10717" data-name="Path 10717" class="cls-9" d="M109.23,76.19l-2.81.75-3.33-.5-1.92.5-1.4.23v1.62a.81.81,0,0,0,0,.22,9.28,9.28,0,0,0,.85,2.27l-1.19.24-2-.5.54.68h2.7a.67.67,0,0,1-.42.67,2,2,0,0,1-1.71.07L98,81.7h-.54a2.73,2.73,0,0,1-.73-1.5l-1,.06-1.52-1.37v1.47a2.73,2.73,0,0,0,.56,1.45l-.76.25v1.47l1.46,1,1.68-.83a6.38,6.38,0,0,0,5.45,0c.84-.42,1.15-.91,1.18-1.42h0a.61.61,0,0,0,0-.19V80.8h-.4c-.44-.88-1-1.66-.25-2a2,2,0,0,1,2.14.23,1.62,1.62,0,0,1,.83,1.49l2.47.07a1.88,1.88,0,0,0,0-.58v-.9l-.38-.93,1.11-.55Z"></path><path id="Path_10718" data-name="Path 10718" class="cls-10" d="M95.57,81.54a3.5,3.5,0,0,1-1.42-2.36L96.71,79a2.7,2.7,0,0,0,1.21,1.9,2.17,2.17,0,0,0,2.34.26c1.66-.83-2.34-3.45.57-4.89a6.21,6.21,0,0,1,5.28,0l1.66-.83,1.46,1-1.63.8a2.35,2.35,0,0,1,.91,2.15L106,79.36a1.62,1.62,0,0,0-.83-1.49,2,2,0,0,0-2.14-.23c-1.54.76,2.55,3.34-.54,4.87a6.36,6.36,0,0,1-5.44,0l-1.69.83-1.45-1Z"></path><path id="Path_10719" data-name="Path 10719" class="cls-11" d="M95.57,81.27a3.54,3.54,0,0,1-1.42-2.37l2.56-.16a2.7,2.7,0,0,0,1.21,1.9,2.17,2.17,0,0,0,2.34.26c1.66-.82-2.34-3.45.57-4.89a6.21,6.21,0,0,1,5.28,0l1.66-.82,1.46,1-1.63.8a2.36,2.36,0,0,1,.91,2.15L106,79.08a1.62,1.62,0,0,0-.83-1.49,2,2,0,0,0-2.14-.22c-1.54.76,2.55,3.33-.54,4.86a6.36,6.36,0,0,1-5.44,0L95.4,83l-1.45-1Z"></path><g id="Group_6374" data-name="Group 6374" class="cls-5"><g id="Group_6373" data-name="Group 6373"><g id="Group_7477" data-name="Group 7477" class="cls-14"><g id="Group_6372" data-name="Group 6372"><g id="Group_6371" data-name="Group 6371"><g id="Group_7476" data-name="Group 7476" class="cls-14"><g id="Group_6370" data-name="Group 6370"><path id="Path_10720" data-name="Path 10720" class="cls-8" d="M147.36,116c-6-4.07-16.64-4.64-23.85-1.27s-8.21,9.42-2.25,13.5,16.65,4.64,23.85,1.26,8.22-9.41,2.25-13.49"></path></g></g></g></g></g></g></g><path id="Path_10721" data-name="Path 10721" class="cls-9" d="M146.83,117.39a13.87,13.87,0,0,1-.56,4.2c-.66,2.29-2.73,4.46-6.14,6.06-7.48,3.5-18.56,2.91-24.75-1.31-2.89-2-4.2-4.39-4-6.76,0-.22.2-3.17.2-3.17a7.47,7.47,0,0,1,1.34-2.4,12.64,12.64,0,0,1,5.14-4c7.48-3.5,18.56-2.92,24.75,1.31,2.61,1.78,3.93,3.93,4,6.07"></path><path id="Path_10722" data-name="Path 10722" class="cls-10" d="M142.65,111.06c-6.19-4.23-17.27-4.82-24.75-1.32s-8.53,9.78-2.34,14,17.28,4.82,24.76,1.31,8.52-9.77,2.33-14"></path><path id="Path_10723" data-name="Path 10723" class="cls-11" d="M142.65,110.52c-6.19-4.23-17.27-4.82-24.75-1.32s-8.53,9.78-2.34,14,17.28,4.82,24.76,1.32,8.52-9.78,2.33-14"></path><path id="Path_10724" data-name="Path 10724" class="cls-9" d="M146.83,112.68a13.87,13.87,0,0,1-.56,4.2c-.66,2.3-2.73,4.47-6.14,6.06-7.48,3.5-18.56,2.92-24.75-1.31-2.89-2-4.2-4.39-4-6.76,0-.22.2-3.16.2-3.16a7.37,7.37,0,0,1,1.34-2.4,12.66,12.66,0,0,1,5.14-4c7.48-3.5,18.56-2.91,24.75,1.32,2.61,1.78,3.93,3.92,4,6.07"></path><path id="Path_10725" data-name="Path 10725" class="cls-10" d="M142.65,106.36c-6.19-4.23-17.27-4.82-24.75-1.32s-8.53,9.77-2.34,14,17.28,4.82,24.76,1.31,8.52-9.77,2.33-14"></path><path id="Path_10726" data-name="Path 10726" class="cls-11" d="M142.65,105.81c-6.19-4.23-17.27-4.82-24.75-1.31s-8.53,9.77-2.34,14,17.28,4.81,24.76,1.31,8.52-9.77,2.33-14"></path><path id="Path_10727" data-name="Path 10727" class="cls-9" d="M146.83,107.09a13.87,13.87,0,0,1-.56,4.2c-.66,2.29-2.73,4.46-6.14,6.06-7.48,3.5-18.56,2.92-24.75-1.31-2.89-2-4.2-4.39-4-6.76,0-.22.2-3.17.2-3.17a7.47,7.47,0,0,1,1.34-2.4,12.72,12.72,0,0,1,5.14-4c7.48-3.5,18.56-2.92,24.75,1.32,2.61,1.78,3.93,3.92,4,6.07"></path><path id="Path_10728" data-name="Path 10728" class="cls-10" d="M142.65,100.77c-6.19-4.23-17.27-4.82-24.75-1.32s-8.53,9.77-2.34,14,17.28,4.82,24.76,1.31,8.52-9.77,2.33-14"></path><path id="Path_10729" data-name="Path 10729" class="cls-11" d="M142.65,100.22C136.46,96,125.38,95.4,117.9,98.9s-8.53,9.78-2.34,14,17.28,4.82,24.76,1.32,8.52-9.78,2.33-14"></path><path id="Path_10730" data-name="Path 10730" class="cls-12" d="M138.56,101.87c-4.32-3-12.07-3.37-17.3-.92s-6,6.83-1.63,9.79,12.08,3.37,17.3.92,6-6.84,1.63-9.79"></path><path id="Path_10731" data-name="Path 10731" class="cls-13" d="M141,101.05c-5.4-3.68-15.06-4.2-21.57-1.14s-7.43,8.51-2,12.2,15.06,4.2,21.58,1.14S146.34,104.74,141,101.05Z"></path><path id="Path_10732" data-name="Path 10732" class="cls-9" d="M121.26,101.8c5.23-2.45,13-2,17.3.92a5.78,5.78,0,0,1,2.8,4c.18-1.7-.73-3.44-2.8-4.86-4.33-3-12.08-3.36-17.3-.91-3.15,1.47-4.66,3.64-4.43,5.78.2-1.85,1.7-3.66,4.43-4.93"></path><path id="Path_10733" data-name="Path 10733" class="cls-9" d="M136.64,102.13l-2.81.75-3.33-.51-1.92.51-1.41.23V105a9.79,9.79,0,0,0,.85,2.28l-1.18.23-2-.5.53.68h2.71a.67.67,0,0,1-.42.67,2,2,0,0,1-1.71.08l-.58-.74h-.53a2.71,2.71,0,0,1-.72-1.5l-1,.07-1.52-1.39v1.48a2.68,2.68,0,0,0,.56,1.45l-.76.24v1.48l1.46,1,1.68-.84a6.42,6.42,0,0,0,5.45,0c.84-.42,1.15-.91,1.18-1.43h0v-1.47h-.4c-.44-.87-1-1.65-.25-2a2,2,0,0,1,2.14.23,1.61,1.61,0,0,1,.83,1.49l2.47.07a2.81,2.81,0,0,0,0-.58v-.9l-.38-.93,1.11-.55Z"></path><path id="Path_10734" data-name="Path 10734" class="cls-10" d="M123,107.48a3.52,3.52,0,0,1-1.42-2.37l2.56-.16a2.7,2.7,0,0,0,1.21,1.9,2.17,2.17,0,0,0,2.34.26c1.66-.82-2.34-3.45.57-4.89a6.21,6.21,0,0,1,5.28,0l1.66-.82,1.46,1-1.63.81a2.33,2.33,0,0,1,.91,2.14l-2.47-.07a1.62,1.62,0,0,0-.83-1.49,2,2,0,0,0-2.14-.22c-1.54.76,2.55,3.33-.54,4.86a6.38,6.38,0,0,1-5.45,0l-1.68.83-1.45-1Z"></path><path id="Path_10735" data-name="Path 10735" class="cls-11" d="M123,107.2a3.52,3.52,0,0,1-1.42-2.37l2.56-.15a2.72,2.72,0,0,0,1.21,1.9,2.21,2.21,0,0,0,2.34.26c1.66-.83-2.34-3.46.57-4.9a6.25,6.25,0,0,1,5.28,0l1.66-.82,1.46,1-1.63.81a2.35,2.35,0,0,1,.91,2.15l-2.47-.07a1.61,1.61,0,0,0-.83-1.49,2,2,0,0,0-2.14-.23c-1.54.76,2.55,3.34-.54,4.87a6.42,6.42,0,0,1-5.45,0l-1.68.83-1.45-1Z"></path><g id="Group_6379" data-name="Group 6379" class="cls-5"><g id="Group_6378" data-name="Group 6378"><g id="Group_7479" data-name="Group 7479" class="cls-15"><g id="Group_6377" data-name="Group 6377"><g id="Group_6376" data-name="Group 6376"><g id="Group_7478" data-name="Group 7478" class="cls-15"><g id="Group_6375" data-name="Group 6375"><path id="Path_10736" data-name="Path 10736" class="cls-8" d="M100.17,117.94,83.64,105.87a.5.5,0,0,0-.5-.06l-6,3.49h-.09L35.69,133.19c-.13.07-.12.22,0,.33l16.54,12.07a.52.52,0,0,0,.5,0L67.42,147s-2-5.33-2-5.34l34.78-23.38c.13-.07.12-.22,0-.33"></path></g></g></g></g></g></g></g><g id="Group_6384" data-name="Group 6384" class="cls-5"><g id="Group_6383" data-name="Group 6383"><g id="Group_7481" data-name="Group 7481" class="cls-16"><g id="Group_6382" data-name="Group 6382"><g id="Group_6381" data-name="Group 6381"><g id="Group_7480" data-name="Group 7480" class="cls-16"><g id="Group_6380" data-name="Group 6380"><path id="Path_10737" data-name="Path 10737" class="cls-8" d="M117.91,122.37,101.37,110.3a.5.5,0,0,0-.5-.06l-6.05,3.49h-.08L53.42,137.61a.192.192,0,0,0,0,.33L70,150a.5.5,0,0,0,.5.06l6.05-3.49h.08l41.31-23.85c.14-.08.12-.23,0-.34"></path></g></g></g></g></g></g></g><path id="Path_10738" data-name="Path 10738" class="cls-17" d="M50.27,136.47l42.54-23.75a.59.59,0,0,1,.52,0L110.45,123c.15.1.17.23,0,.3L68,147a.59.59,0,0,1-.52,0L50.31,136.78c-.16-.1-.17-.23,0-.3"></path><rect id="Rectangle_2144" data-name="Rectangle 2144" class="cls-17" width="7.34" height="17.29" transform="translate(92.883 122.407) rotate(-89.427)"></rect><rect id="Rectangle_2145" data-name="Rectangle 2145" class="cls-18" width="7.34" height="17.29" transform="matrix(0.014, -1, 1, 0.014, 50.178, 136.572)"></rect><path id="Path_10739" data-name="Path 10739" class="cls-19" d="M50.19,136.58h0l.11-7.34L67.87,133l.07,14a.6.6,0,0,1-.52,0L50.3,136.77a.17.17,0,0,1-.11-.2"></path><path id="Path_10740" data-name="Path 10740" class="cls-20" d="M68.06,139.68l42.54-23.76c.13-.07.12-.21,0-.3L93.44,105.41a.56.56,0,0,0-.52,0L50.38,129.14c-.13.08-.12.21,0,.3L67.5,139.65a.54.54,0,0,0,.52,0"></path><g id="Group_6389" data-name="Group 6389" class="cls-21"><g id="Group_6388" data-name="Group 6388"><g id="Group_7483" data-name="Group 7483" class="cls-22"><g id="Group_6387" data-name="Group 6387"><g id="Group_6386" data-name="Group 6386"><g id="Group_7482" data-name="Group 7482" class="cls-23"><g id="Group_6385" data-name="Group 6385"><path id="Path_10741" data-name="Path 10741" class="cls-24" d="M76.5,119.78c2.62-1.46,6.53-1.58,8.74-.27s1.87,3.57-.75,5-6.54,1.58-8.74.27-1.87-3.57.75-5"></path><path id="Path_10742" data-name="Path 10742" class="cls-24" d="M56.09,128.34a1.16,1.16,0,0,0,.62.88l10.89,6.49a2.46,2.46,0,0,0,1.16.32,2,2,0,0,0,1-.22l34-19a1,1,0,0,0,.53-.82h0a1.21,1.21,0,0,0-.62-.88l-10.89-6.49a2.29,2.29,0,0,0-2.13-.1l-34,19a.94.94,0,0,0-.53.73l-.15.08Zm10,5.37-6.54-3.9c1.4-1,1.64-2.32.61-3.27l28.31-15.81a8,8,0,0,0,5.68-.24l6.54,3.9c-1.44,1-1.66,2.38-.54,3.33L71.89,133.51a7.88,7.88,0,0,0-5.79.2"></path></g></g></g></g></g></g></g><path id="Path_10743" data-name="Path 10743" class="cls-25" d="M94.09,132.42l.1-7.33-5.35,3-.1,7.33Z"></path><path id="Path_10744" data-name="Path 10744" class="cls-10" d="M88.84,128.07,71,117.61l5.81-3.24,17.35,10.72Z"></path><path id="Path_10745" data-name="Path 10745" class="cls-17" d="M33,139.61l35.33-33.55a.55.55,0,0,1,.51-.1L88,111.61a.163.163,0,0,1,.11.29L52.73,145.45a.59.59,0,0,1-.51.1L33.1,139.9c-.17-.05-.22-.18-.11-.29"></path><rect id="Rectangle_2148" data-name="Rectangle 2148" class="cls-17" width="17.29" height="7.34" transform="translate(69.589 108.664) rotate(-13.52)"></rect><rect id="Rectangle_2149" data-name="Rectangle 2149" class="cls-18" width="17.28" height="7.34" transform="translate(31.233 132.6) rotate(-13.54)"></rect><path id="Path_10746" data-name="Path 10746" class="cls-19" d="M33,139.73h0l-1.72-7.13,18-.68,3.53,13.53a.58.58,0,0,1-.51.1L33.1,139.9a.173.173,0,0,1-.16-.17"></path><path id="Path_10747" data-name="Path 10747" class="cls-24" d="M51,138.31l35.33-33.55c.11-.11.07-.23-.11-.29L67.13,98.82a.58.58,0,0,0-.51.1L31.29,132.47c-.11.11-.06.24.11.29l19.11,5.65a.55.55,0,0,0,.51-.1"></path><g id="Group_6394" data-name="Group 6394" class="cls-21"><g id="Group_6393" data-name="Group 6393"><g id="Group_7485" data-name="Group 7485" class="cls-26"><g id="Group_6392" data-name="Group 6392"><g id="Group_6391" data-name="Group 6391"><g id="Group_7484" data-name="Group 7484" class="cls-27"><g id="Group_6390" data-name="Group 6390"><path id="Path_10748" data-name="Path 10748" class="cls-24" d="M54.27,116.94c2.18-2.06,5.94-3.15,8.4-2.42s2.69,3,.52,5.06-5.94,3.16-8.4,2.43-2.7-3-.52-5.07"></path><path id="Path_10749" data-name="Path 10749" class="cls-24" d="M36.62,130.29a1.18,1.18,0,0,0,.82.7l12.15,3.6a2.36,2.36,0,0,0,1.21,0,1.93,1.93,0,0,0,.88-.44l28.24-26.83a.92.92,0,0,0,.31-.92h-.06a1.18,1.18,0,0,0-.82-.7L67.23,102a2.29,2.29,0,0,0-2.09.43L36.9,129.29a1,1,0,0,0-.33.83l-.12.12Zm11,2.73-7.3-2.16c1.11-1.32,1-2.66-.22-3.32l23.51-22.33a8,8,0,0,0,5.44-1.65l7.3,2.16c-1.14,1.35-1,2.72.31,3.37l-23.48,22.3A7.85,7.85,0,0,0,47.65,133"></path></g></g></g></g></g></g></g><path id="Path_10750" data-name="Path 10750" class="cls-25" d="M74.44,124.83l-1.71-7.13-4.44,4.21L70,129Z"></path><path id="Path_10751" data-name="Path 10751" class="cls-20" d="M53.94,136.41l32.49-34.93c.1-.11,0-.25-.12-.31L67,94.49a.51.51,0,0,0-.5.1L34,129.51c-.1.11,0,.25.13.31l19.35,6.68a.51.51,0,0,0,.5-.1"></path><g id="Group_6399" data-name="Group 6399" class="cls-21"><g id="Group_6398" data-name="Group 6398"><g id="Group_7487" data-name="Group 7487" class="cls-28"><g id="Group_6397" data-name="Group 6397"><g id="Group_6396" data-name="Group 6396"><g id="Group_7486" data-name="Group 7486" class="cls-29"><g id="Group_6395" data-name="Group 6395"><path id="Path_10752" data-name="Path 10752" class="cls-24" d="M55.57,113.55c2-2.16,5.65-3.2,8.14-2.34s2.89,3.3.89,5.45A8.426,8.426,0,0,1,56.46,119c-2.54-.86-2.89-3.3-.89-5.45"></path><path id="Path_10753" data-name="Path 10753" class="cls-24" d="M39.08,127.32a1.39,1.39,0,0,0,.86.78l12.31,4.25a2.32,2.32,0,0,0,1.2.05,1.62,1.62,0,0,0,.83-.45l26-27.92a1,1,0,0,0,.24-1h-.06a1.36,1.36,0,0,0-.86-.78L67.3,97.93a2,2,0,0,0-2,.4l-26,27.92a1,1,0,0,0-.26.89l-.12.12ZM50.2,130.6l-7.39-2.55c1-1.38.81-2.82-.46-3.57L64,101.23a6.87,6.87,0,0,0,5.27-1.59l7.39,2.55c-1,1.42-.8,2.89.56,3.63L55.59,129a6.85,6.85,0,0,0-5.39,1.57"></path></g></g></g></g></g></g></g><path id="Path_10754" data-name="Path 10754" class="cls-10" d="M68.29,121.92l-22.44-5.39L50.29,112l22.44,5.74Z"></path></g></g></g><rect id="Rectangle_2526" data-name="Rectangle 2526" class="cls-1" width="163" height="163"></rect></svg>