<svg xmlns="http://www.w3.org/2000/svg" xmlns:xlink="http://www.w3.org/1999/xlink" id="Group_7329" data-name="Group 7329" width="163" height="163" viewBox="0 0 163 163"><defs><style>      .cls-1 {        fill: none;      }      .cls-2 {        fill: #5752d0;      }      .cls-3 {        clip-path: url(#clip-path);      }      .cls-4 {        fill: #cbd3fa;      }      .cls-5 {        fill: #c4daf1;      }      .cls-6 {        fill: #433bb4;      }      .cls-7 {        fill: #f70;      }      .cls-8 {        fill: #fff;      }      .cls-9 {        opacity: 0.5;      }      .cls-10 {        clip-path: url(#clip-path-2);      }      .cls-11 {        fill: #7f7cf9;      }      .cls-12 {        clip-path: url(#clip-path-4);      }      .cls-13 {        fill: #f9fcff;      }      .cls-14 {        fill: #1d1273;      }      .cls-15 {        clip-path: url(#clip-path-6);      }      .cls-16 {        clip-path: url(#clip-path-7);      }    </style><clipPath id="clip-path"><rect id="Rectangle_2565" data-name="Rectangle 2565" class="cls-1" width="160.19" height="93.35" transform="translate(1 34.82)"></rect></clipPath><clipPath id="clip-path-2"><rect id="Rectangle_2560" data-name="Rectangle 2560" class="cls-1" width="13.39" height="7.73" transform="translate(143.43 62.55)"></rect></clipPath><clipPath id="clip-path-4"><rect id="Rectangle_2562" data-name="Rectangle 2562" class="cls-1" width="137.18" height="79.05" transform="translate(11.09 40.8)"></rect></clipPath><clipPath id="clip-path-6"><rect id="Rectangle_2564" data-name="Rectangle 2564" class="cls-1" width="37.26" height="22.34" transform="translate(23.15 44.02)"></rect></clipPath><clipPath id="clip-path-7"><rect id="Rectangle_2563" data-name="Rectangle 2563" class="cls-1" width="37.26" height="22.33" transform="translate(23.15 44.03)"></rect></clipPath></defs><g id="Group_7324" data-name="Group 7324"><path id="Path_10641" data-name="Path 10641" class="cls-2" d="M1,73.32l95,54.86h0l62.21-35.92-95-54.86Z"></path><g id="Group_7473" data-name="Group 7473" class="cls-3"><g id="Group_6358" data-name="Group 6358"><path id="Path_10642" data-name="Path 10642" class="cls-2" d="M117.51,47.77a6.18,6.18,0,0,1-2.8,4.84c-1.55.89-2.8.17-2.8-1.61a6.18,6.18,0,0,1,2.8-4.84c1.54-.89,2.8-.17,2.8,1.61"></path><path id="Path_10643" data-name="Path 10643" class="cls-4" d="M104.27,39.06l54.46,31.36-3.25,6.66L100.41,45.43Z"></path><path id="Path_10644" data-name="Path 10644" class="cls-5" d="M159.67,72.2A5.83,5.83,0,0,1,157,76.77c-1.46.84-2.64.16-2.64-1.52A5.81,5.81,0,0,1,157,70.68c1.46-.84,2.64-.16,2.64,1.52"></path><path id="Path_10645" data-name="Path 10645" class="cls-6" d="M159,72.56A4.4,4.4,0,0,1,157,76c-1.1.64-2,.13-2-1.16a4.48,4.48,0,0,1,2-3.48c1.11-.64,2-.12,2,1.16"></path><path id="Path_10646" data-name="Path 10646" class="cls-7" d="M158.35,73a2.84,2.84,0,0,1-1.26,2.2c-.7.4-1.27.07-1.27-.73a2.8,2.8,0,0,1,1.27-2.2c.7-.4,1.26-.08,1.26.73"></path><path id="Path_10647" data-name="Path 10647" class="cls-7" d="M158,72.2l2.77,1.6L159.09,77l-3-1.72Z"></path><path id="Path_10648" data-name="Path 10648" class="cls-7" d="M161.19,74.66a2.8,2.8,0,0,1-1.27,2.19c-.7.4-1.27.08-1.27-.73a2.79,2.79,0,0,1,1.27-2.19c.7-.4,1.27-.08,1.27.73"></path><path id="Path_10649" data-name="Path 10649" class="cls-8" d="M158.78,76.58a1.63,1.63,0,0,1,0-.85,3.1,3.1,0,0,1,.85-1.47,1.72,1.72,0,0,1,.71-.45v-.06h0a1.5,1.5,0,0,0-.85.38,2.8,2.8,0,0,0-.9,1.59,1.53,1.53,0,0,0,.1.92h.06Z"></path><path id="Path_10650" data-name="Path 10650" class="cls-2" d="M116.76,46Z"></path><path id="Path_10651" data-name="Path 10651" class="cls-2" d="M111.92,51a6.12,6.12,0,0,1,2.8-4.84,2,2,0,0,1,1.9-.23l-9.17-5.3-4,6.81,9.29,5.36a2,2,0,0,1-.82-1.8"></path><path id="Path_10652" data-name="Path 10652" class="cls-6" d="M155.9,70.23a1.74,1.74,0,0,1,.92-.27v-2L155,69v2a3.48,3.48,0,0,1,.92-.79"></path><g id="Group_6347" data-name="Group 6347" class="cls-9"><g id="Group_6346" data-name="Group 6346"><g id="Group_7468" data-name="Group 7468" class="cls-10"><g id="Group_6345" data-name="Group 6345"><g id="Group_6344" data-name="Group 6344"><g id="Group_7467" data-name="Group 7467" class="cls-10"><g id="Group_6343" data-name="Group 6343"><path id="Path_10653" data-name="Path 10653" class="cls-6" d="M145.65,62.78h0a2,2,0,0,0-1.83,0,.56.56,0,0,0-.35.71.53.53,0,0,0,.35.35h0L155,70.28l1.83-1Z"></path></g></g></g></g></g></g></g><path id="Path_10654" data-name="Path 10654" class="cls-6" d="M145.65,61.5h0a2,2,0,0,0-1.83,0,.56.56,0,0,0-.35.71.54.54,0,0,0,.35.34h0L155,69l1.83-1.06Z"></path><path id="Path_10655" data-name="Path 10655" class="cls-6" d="M96.37,37.82h-.05l-2.19-.6a.15.15,0,0,0-.13,0,.44.44,0,0,0-.18.32.15.15,0,0,0,0,.11l1.6,1.58c.11.15.3.18.53.05a1.31,1.31,0,0,0,.6-1,.39.39,0,0,0-.22-.41"></path><path id="Path_10656" data-name="Path 10656" class="cls-2" d="M96.93,38A2,2,0,0,1,96,39.66c-.51.3-.93.06-.93-.54A2,2,0,0,1,96,37.5c.52-.3.94-.06.94.54"></path><path id="Path_10657" data-name="Path 10657" class="cls-2" d="M104.28,39.06a19.94,19.94,0,0,0-7.87-1.69l-1.18,2.27s2,4,5.18,5.79Z"></path><path id="Path_10658" data-name="Path 10658" class="cls-5" d="M105.17,40.83a5.81,5.81,0,0,1-2.64,4.57c-1.46.84-2.64.16-2.64-1.52a5.81,5.81,0,0,1,2.64-4.57c1.46-.84,2.64-.16,2.64,1.52"></path><path id="Path_10659" data-name="Path 10659" class="cls-2" d="M108.24,42.42a6.15,6.15,0,0,1-2.8,4.84c-1.54.89-2.79.17-2.79-1.61a6.21,6.21,0,0,1,2.79-4.84c1.55-.89,2.8-.17,2.8,1.61"></path><path id="Path_10660" data-name="Path 10660" class="cls-6" d="M109.16,41.61a1.17,1.17,0,0,0-.24-.09,2.15,2.15,0,0,0-1.67.32,6.14,6.14,0,0,0-2.79,4.84,2.16,2.16,0,0,0,.54,1.59c-.69-.19-1.14-.88-1.14-1.94a6.19,6.19,0,0,1,2.8-4.84,2.08,2.08,0,0,1,1.84-.26l.27.15Z"></path><path id="Path_10661" data-name="Path 10661" class="cls-6" d="M110.38,42.35a.92.92,0,0,0-.23-.09,2.14,2.14,0,0,0-1.67.31,6.21,6.21,0,0,0-2.8,4.84,2.24,2.24,0,0,0,.54,1.59c-.68-.19-1.13-.87-1.13-1.93a6.19,6.19,0,0,1,2.79-4.84,2.08,2.08,0,0,1,1.84-.27l.27.16Z"></path><path id="Path_10662" data-name="Path 10662" class="cls-6" d="M111.61,43.08a.92.92,0,0,0-.23-.09,2.18,2.18,0,0,0-1.68.32,6.18,6.18,0,0,0-2.79,4.84,2.21,2.21,0,0,0,.54,1.59c-.69-.19-1.13-.88-1.13-1.94a6.21,6.21,0,0,1,2.8-4.84A2.05,2.05,0,0,1,111,42.7l.28.15Z"></path><path id="Path_10663" data-name="Path 10663" class="cls-11" d="M1,70.75,63.22,34.82l95,54.86L96,125.6Z"></path><g id="Group_6352" data-name="Group 6352" class="cls-9"><g id="Group_6351" data-name="Group 6351"><g id="Group_7470" data-name="Group 7470" class="cls-12"><g id="Group_6350" data-name="Group 6350"><g id="Group_6349" data-name="Group 6349"><g id="Group_7469" data-name="Group 7469" class="cls-12"><g id="Group_6348" data-name="Group 6348"><path id="Path_10664" data-name="Path 10664" class="cls-6" d="M65.84,40.8,11.09,72.39l82.16,47.46,55-31.44Z"></path></g></g></g></g></g></g></g><path id="Path_10665" data-name="Path 10665" class="cls-13" d="M65.84,39.2,11.09,70.8l75.1,43.34,55-31.43Z"></path><path id="Path_10666" data-name="Path 10666" class="cls-7" d="M32.8,75.22l-1.79-1L72,50.54l1.79,1Z"></path><path id="Path_10667" data-name="Path 10667" class="cls-7" d="M28.88,73l-1.79-1L49.77,58.85l1.79,1Z"></path><path id="Path_10668" data-name="Path 10668" class="cls-4" d="M91.61,114.48l8.33-6.7-11.6-2.18-2.16,8.59c2.17,1.25,4.11,1.27,5.44.29"></path><path id="Path_10669" data-name="Path 10669" class="cls-14" d="M146.16,83.35,91.61,114.48A5.29,5.29,0,0,0,93.4,110a16,16,0,0,0-7.22-12.51l55-31.43a16,16,0,0,1,7.22,12.5c0,2.39-.87,4-2.27,4.76"></path><g id="Group_6357" data-name="Group 6357" class="cls-9"><g id="Group_6356" data-name="Group 6356"><g id="Group_7472" data-name="Group 7472" class="cls-15"><g id="Group_6355" data-name="Group 6355"><g id="Group_6354" data-name="Group 6354"><g id="Group_7471" data-name="Group 7471" class="cls-16"><g id="Group_6353" data-name="Group 6353"><path id="Path_10670" data-name="Path 10670" class="cls-6" d="M29.38,66.35a1,1,0,0,1-.48-.12l-5.27-3.05a.966.966,0,0,1,.97-1.67h0l4.78,2.77L57.51,48l-3.82-2.21a1,1,0,0,1,.91-1.7h0l5.27,3.05a1,1,0,0,1,.36,1.31.93.93,0,0,1-.36.35l-30,17.36a1,1,0,0,1-.48.12"></path></g></g></g></g></g></g></g><path id="Path_10671" data-name="Path 10671" class="cls-8" d="M29.38,65a.91.91,0,0,1-.48-.13l-5.37-3.1a.968.968,0,0,1,.96-1.68l4.89,2.83L57.51,46.69l-3.92-2.27a.964.964,0,0,1,.96-1.67l5.37,3.1a.954.954,0,0,1,0,1.67l-30,17.36a.91.91,0,0,1-.48.13"></path><path id="Path_10672" data-name="Path 10672" class="cls-2" d="M1,70.75v2.57l95,54.86V125.6Z"></path><path id="Path_10673" data-name="Path 10673" class="cls-14" d="M158.23,89.68,96,125.6v2.58l62.22-35.93Z"></path><path id="Path_10674" data-name="Path 10674" class="cls-8" d="M96,125.86a.2.2,0,0,1-.13,0L1.46,71.31a.26.26,0,1,1,.25-.45l94.42,54.52a.25.25,0,0,1,.12.34.26.26,0,0,1-.25.14"></path><path id="Path_10675" data-name="Path 10675" class="cls-11" d="M47,83.39l-8.48-4.9L47,73.59l8.48,4.9Zm-4.89-4.9L47,81.31l4.89-2.82L47,75.66Z"></path><path id="Path_10676" data-name="Path 10676" class="cls-11" d="M74.36,99.19l-8.48-4.9,8.48-4.89,8.48,4.89Zm-4.89-4.9,4.89,2.83,4.89-2.83-4.89-2.82Z"></path><path id="Path_10677" data-name="Path 10677" class="cls-11" d="M55,73.08l-1.8-1,16.3-9.42,1.79,1Z"></path><path id="Path_10678" data-name="Path 10678" class="cls-11" d="M72.58,62.91l-1.8-1,10.42-6,1.79,1Z"></path><path id="Path_10679" data-name="Path 10679" class="cls-11" d="M58.31,75l-1.8-1L66,68.48l1.79,1Z"></path><path id="Path_10680" data-name="Path 10680" class="cls-11" d="M69.14,68.76l-1.8-1,17.2-9.93,1.8,1Z"></path><path id="Path_10681" data-name="Path 10681" class="cls-11" d="M68.57,80.94l-1.8-1,16.3-9.41,1.8,1Z"></path><path id="Path_10682" data-name="Path 10682" class="cls-11" d="M86.19,70.77l-1.8-1,10.42-6,1.8,1Z"></path><path id="Path_10683" data-name="Path 10683" class="cls-11" d="M71.92,82.87l-1.8-1,9.51-5.49,1.8,1Z"></path><path id="Path_10684" data-name="Path 10684" class="cls-11" d="M82.75,76.62l-1.8-1,17.2-9.93,1.8,1Z"></path><path id="Path_10685" data-name="Path 10685" class="cls-11" d="M82.18,88.79l-1.8-1,16.3-9.41,1.79,1Z"></path><path id="Path_10686" data-name="Path 10686" class="cls-11" d="M99.79,78.63l-1.8-1,10.42-6,1.8,1Z"></path><path id="Path_10687" data-name="Path 10687" class="cls-11" d="M85.52,90.72l-1.8-1,9.52-5.5,1.8,1Z"></path><path id="Path_10688" data-name="Path 10688" class="cls-11" d="M96.35,84.47l-1.8-1,17.21-9.94,1.79,1Z"></path><path id="Path_10689" data-name="Path 10689" class="cls-7" d="M57,89.42V88h3.6V82.8h2.54v6.62Z"></path></g></g></g><rect id="Rectangle_2525" data-name="Rectangle 2525" class="cls-1" width="163" height="163"></rect></svg>