<svg xmlns="http://www.w3.org/2000/svg" xmlns:xlink="http://www.w3.org/1999/xlink" id="Group_7330" data-name="Group 7330" width="163" height="163" viewBox="0 0 163 163"><defs><style>      .cls-1 {        fill: none;      }      .cls-2 {        clip-path: url(#clip-path);      }      .cls-3 {        fill: #ffd2a9;      }      .cls-4 {        fill: #191791;      }      .cls-5 {        fill: #acaff2;      }      .cls-6 {        fill: #4432db;      }      .cls-7 {        fill: #baccf5;      }      .cls-8 {        fill: #93b0f5;      }      .cls-9 {        fill: #dee5ff;      }      .cls-10 {        fill: #5752d0;      }      .cls-11 {        fill: #f70;      }      .cls-12 {        fill: #fff;      }      .cls-13 {        fill: #ff8066;      }      .cls-14 {        fill: #d4563b;      }    </style><clipPath id="clip-path"><rect id="Rectangle_2556" data-name="Rectangle 2556" class="cls-1" width="107.22" height="156.75" transform="translate(28 3)"></rect></clipPath></defs><g id="Group_7323" data-name="Group 7323"><g id="Group_7464" data-name="Group 7464" class="cls-2"><g id="Group_6333" data-name="Group 6333"><path id="Path_10587" data-name="Path 10587" class="cls-3" d="M69.18,33s9.28,16.72,9.95,27.1c0,0-2.58,5.68-4.46.63-4.6-12.31-7.78-22.86-11.46-27.05s6-.68,6-.68"></path></g></g><g id="Group_7465" data-name="Group 7465" class="cls-2"><g id="Group_6337" data-name="Group 6337"><path id="Path_10589" data-name="Path 10589" class="cls-4" d="M48.34,133l-3.56-8.11a5.67,5.67,0,0,0-3.52-1.32,1.58,1.58,0,0,0-1.38,1.09L39.35,126c-.82,2-.76,2.31,0,3.23l4.71,5.47a3.21,3.21,0,0,0,3.41.86l.31-.12a1.48,1.48,0,0,0,.53-2.49"></path><path id="Path_10590" data-name="Path 10590" class="cls-5" d="M39.38,124.68c0,1.93,4.82,2.44,4.81.51v-6.26l-4.81-.52Z"></path><path id="Path_10591" data-name="Path 10591" class="cls-4" d="M66.37,125.68,58.43,120a6.33,6.33,0,0,0-3.73-.2c-.65.15-.74-.33-.72.27l-.75,2.52c-.68,1.68-.87,2,1.05,2.66l8,3.11a5.33,5.33,0,0,0,4.35-.31l.29-.2c1-.7.78-1.69-.57-2.22"></path><path id="Path_10592" data-name="Path 10592" class="cls-5" d="M54,120.58c0,2,4.84,2,4.84,0v-6.46H54Z"></path><path id="Path_10593" data-name="Path 10593" class="cls-6" d="M54,118.63c1.92,1.38,5,1.35,6.08-.25a319.872,319.872,0,0,0,4.05-60.49L49,53.38c3,24.6,6.52,46.38,5,65.26"></path><path id="Path_10594" data-name="Path 10594" class="cls-6" d="M38.94,120.65c1.37,2.35,4.8,2.74,5.92,1.26L56.19,56.65l-16.1-1.23Z"></path><path id="Path_10595" data-name="Path 10595" class="cls-4" d="M52.07,79.2l1.11,6.08,3.68-18.22c-.75.23-.76-.69-1.59-.54Z"></path><path id="Path_10596" data-name="Path 10596" class="cls-3" d="M43.58,39.67C40,43.93,38.21,46,35.38,51.83a8.621,8.621,0,0,0,.56,9.2c2.18,2.84,4.69,6,4.69,6l-2.79,2.54s-10.18-8.71-8.56-16.7l6-18.93Z"></path><path id="Path_10597" data-name="Path 10597" class="cls-3" d="M38.21,67.79l.45-.43a2.2,2.2,0,0,1,3.09.25l1.78,1.88a2.19,2.19,0,0,1,.06,3.1l-.45.43a2.2,2.2,0,0,1-3.09-.25l-1.78-1.88a2.19,2.19,0,0,1-.06-3.1"></path><path id="Path_10598" data-name="Path 10598" class="cls-7" d="M64.7,22.11c4.79,7.68,9.4,15.42,9.91,20.67-1.26,4.4-2.47,2-5.55,3l-9.2-16.14,2.52-4.22Z"></path><path id="Path_10599" data-name="Path 10599" class="cls-7" d="M65.2,58.89a187.056,187.056,0,0,1,1.87-24.1c.41-13.11-4.4-18.12-12.75-15.37l-3.44.8c-10.15,5.06-15.2,4.63-13.75,15.25l1,23.2c-.37,11.91,27.25,14.25,27.05.23"></path><path id="Path_10600" data-name="Path 10600" class="cls-8" d="M43.58,38.85,38.72,56.58l-.57,1.72-.36-8.63Z"></path><path id="Path_10601" data-name="Path 10601" class="cls-7" d="M44.44,36.78,35.06,54.57c-.74,1.08-6.2-.61-6.13-2.5.14-4,6.36-24.57,12.28-27.14,4.81-2.09,6,5.49,3.23,11.85"></path><path id="Path_10602" data-name="Path 10602" class="cls-3" d="M77.67,67.37h0A2.24,2.24,0,0,0,79,64.5l-1.83-5A2.24,2.24,0,1,0,73,61.08l1.83,5a2.24,2.24,0,0,0,2.87,1.33"></path><path id="Path_10603" data-name="Path 10603" class="cls-3" d="M78.82,63.31h0a2.25,2.25,0,0,0,1.33-2.87l-1.83-5A2.24,2.24,0,1,0,74.12,57l1.82,5a2.25,2.25,0,0,0,2.88,1.33"></path><path id="Path_10604" data-name="Path 10604" class="cls-9" d="M78.58,63.38l-4,2.16,1.13,2.19L80,65.1Z"></path><path id="Path_10605" data-name="Path 10605" class="cls-10" d="M103.76,63.67s-4.54,19.44-15,15.83C80.2,76.56,75.13,67.73,75.13,67.73l5.41-2.86s8.27,7.11,10.77,6.5C97,70,96,57.41,99.88,56.19c2.23-.69,3.87,7.49,3.87,7.49"></path><path id="Path_10606" data-name="Path 10606" class="cls-8" d="M34.74,52.51a2.06,2.06,0,0,1,.7,2.48c-.71,1.45-7.94.52-7.41-1.8s.95-3.34,6.71-.68"></path><path id="Path_10607" data-name="Path 10607" class="cls-8" d="M70.48,47A2,2,0,0,1,68,45.42h0v-.09c-.27-1.59,6.14-5,7.07-2.84s.6,3.35-4.61,4.48"></path><path id="Path_10608" data-name="Path 10608" class="cls-4" d="M56.15,20a6.93,6.93,0,0,1-1.77,1.6c-.63.22-8.43-4.51-6.74-11.23,1.07-4.25,9.12-2.11,9.12-2.11Z"></path><path id="Path_10609" data-name="Path 10609" class="cls-3" d="M51.7,25.74,50,23.66c1.31.37,4.86,1.07,5.22-.24l2-6.66a2.47,2.47,0,0,0-1.71-3.05l-.39-.1a2.48,2.48,0,0,0-3,1.71l-3,6.8c-.37,1.31,1.36,3.26,2.67,3.63"></path><path id="Path_10610" data-name="Path 10610" class="cls-3" d="M56.09,20.74a6.75,6.75,0,0,1-5-3.59s1.53,4.94,4.43,5.65Z"></path><path id="Path_10611" data-name="Path 10611" class="cls-4" d="M40.16,75.23s4-7,4-7.72c0,0,1.52,3.66,0,5.69a5.45,5.45,0,0,1-4,2"></path><path id="Path_10612" data-name="Path 10612" class="cls-10" d="M125.05,53c4.43,6.71,6.07,11.43,7.82,19.18a7.67,7.67,0,0,1,.07,4.3c-1.47,5.44-3.17,5.7-3.81,11.37-.32,2.86-3.9,1.47-3.57-1.42.59-5.28.68-4.21,2.35-9.25.32-1,.67-1.89,1-2.82-.33.85.11,1.48-.06.72-.11-.48-.21-1-.31-1.43-1.67-7.47-3.48-15.75-7.74-22.2-1.61-2.44,2.31-4.71,3.91-2.29Z"></path><path id="Path_10613" data-name="Path 10613" class="cls-10" d="M126,51c3,5.22,5.17,14,7.14,21.17.74,2,.27,3.76-1,3.68l-4.17.57c-1-.06-3-2.28-3.46-3.93l-5.29-18.16c-.86-2.95-.22-5.49,1.47-5.87l-4-2.94c.29-1.09,7.51.1,9.31,5.48"></path><path id="Path_10614" data-name="Path 10614" class="cls-11" d="M112,84l20.9,12.07a1.53,1.53,0,0,0,2.09-.56,1.51,1.51,0,0,0,.21-.77V80.21a1.54,1.54,0,0,0-.77-1.33l-20.9-12.07a1.54,1.54,0,0,0-2.1.56,1.61,1.61,0,0,0-.2.77V82.69A1.52,1.52,0,0,0,112,84"></path><path id="Path_10615" data-name="Path 10615" class="cls-3" d="M123.33,93.41l1.52.68a2.33,2.33,0,0,0,1.92-4.24l-1.52-.69a2.33,2.33,0,0,0-2,4.21h.07"></path></g></g><g id="Group_7466" data-name="Group 7466" class="cls-2"><g id="Group_6341" data-name="Group 6341"><path id="Path_10617" data-name="Path 10617" class="cls-4" d="M123.23,142.82l-4.13-.52c-2.76-1.25-4-2.2-5.28-1.48l-.35.2c-1.24.71-1.08,2,.34,2.78l6.07,4.84a4,4,0,0,0,4.48-.44s.68-.61.19-3.2c-.28-1.47-.18-1.52-1.32-2.18"></path><path id="Path_10618" data-name="Path 10618" class="cls-4" d="M105.18,151.08l-4,1.42c-3.13.16-4.76-.08-5.56,1.1l-.23.33c-.8,1.18-.08,2.21,1.61,2.28l8.81,1.48c1.69.07,2.37-1,3-2.42a6,6,0,0,0-.6-3.5c-.68-1.32-1.58-.63-2.93-.69"></path><path id="Path_10619" data-name="Path 10619" class="cls-12" d="M103.41,152.5c0,1.93,4.7,1.93,4.7,0v-6.29h-4.7Z"></path><path id="Path_10620" data-name="Path 10620" class="cls-9" d="M102.82,148.53c.59,2.45,5.48,2.27,6.43.68a266.32,266.32,0,0,1,7.6-65.46h-17a612,612,0,0,0,2.95,64.78"></path><path id="Path_10621" data-name="Path 10621" class="cls-12" d="M119.42,143.21c.11,1.75,4.81,1.75,4.7,0l-.35-5.7h-4.7Z"></path><path id="Path_10622" data-name="Path 10622" class="cls-9" d="M118.5,140.68c1.88,1.93,5.58,1.1,6.29-.29l-2.49-56.7-11.83,1.75Z"></path><path id="Path_10623" data-name="Path 10623" class="cls-13" d="M106.07,41.59c1.17,4.06,4.19,5.2,6.75,2.55S116.51,36,115.35,32s-4.19-5.2-6.75-2.55-3.69,8.1-2.53,12.16"></path><path id="Path_10624" data-name="Path 10624" class="cls-3" d="M101.79,40.3c1.17,4.06,5.52,5.53,8.08,2.88s3.7-8.1,2.53-12.16-4.19-5.21-6.75-2.56-5,7.77-3.86,11.84"></path><path id="Path_10625" data-name="Path 10625" class="cls-3" d="M111.64,52l.44-.1a2.75,2.75,0,0,0,2.08-3.27l-1.85-8.29A2.74,2.74,0,0,0,109,38.28l-.44.1a2.75,2.75,0,0,0-2.08,3.27l.61,8.23c.33,1.47,3,2.47,4.51,2.14"></path><path id="Path_10626" data-name="Path 10626" class="cls-4" d="M116.59,40.91s-.44,3.82-5.88,3.06c-3.9-.55-2.76-6.9-6.66-7.54-4.3-.7-5.07-6-3.38-8s6.41-3.1,9.84-1.59,8.7,1.42,6.08,14.1"></path><path id="Path_10627" data-name="Path 10627" class="cls-3" d="M104,38.64a1.86,1.86,0,1,0,1.28-2.3h0a1.86,1.86,0,0,0-1.28,2.3"></path><path id="Path_10628" data-name="Path 10628" class="cls-10" d="M122.79,83c-1.39-7.61,1.48-12.8,1.36-20.9.65-13.51-3.7-17.2-8.37-16.71,0,0-4.22,1.24-5.17,1.74C100.46,52.3,97.76,53.91,98.21,60c0,10,1.41,21.18,1.63,26.09,2.09,6.9,20.63,1.82,23-3.12"></path><path id="Path_10629" data-name="Path 10629" class="cls-14" d="M106.73,44.51l.45-1a2.8,2.8,0,0,1-2.28.59,3.52,3.52,0,0,0,1.83.42"></path><path id="Path_10630" data-name="Path 10630" class="cls-5" d="M113.13,104.33l5-7.16-5,2.19Z"></path><path id="Path_10631" data-name="Path 10631" class="cls-4" d="M55.44,30.09h0a1.77,1.77,0,0,1-2.13-1.26l-.52-2.49a1.84,1.84,0,0,1,3.59-.73l.52,2.48a1.75,1.75,0,0,1-1.46,2"></path><path id="Path_10632" data-name="Path 10632" class="cls-4" d="M54.11,29.53c.69,4.7-.1,10.67-.62,16.57l3.8,2.67,2.13-3.66a66.23,66.23,0,0,0-2.7-16.3Z"></path><path id="Path_10633" data-name="Path 10633" class="cls-12" d="M50.14,19.63l-3.4,2.48s2.36,4.51,5.25,5.3L54.31,24S51,22.47,50.13,19.62"></path><path id="Path_10634" data-name="Path 10634" class="cls-12" d="M56.56,18.2l2.71,1.43s1,6.11-2,7.21L53.91,24s2.65-1.2,2.65-5.81"></path><path id="Path_10635" data-name="Path 10635" class="cls-3" d="M54.71,17.57c1.23,3.48,3.92,4.31,6,1.87S63.5,12.2,62.27,8.72s-3.91-4.31-6-1.87-2.8,7.24-1.57,10.72"></path><path id="Path_10636" data-name="Path 10636" class="cls-3" d="M50.91,16.67c1.23,3.48,7.14,5.8,9.23,3.35s.75-8.5-.47-12-3.93-4.31-6-1.87-4,7-2.75,10.51"></path><path id="Path_10637" data-name="Path 10637" class="cls-4" d="M55.16,8.46s.55,6.82-4.89,8.16c0,0-6-3.71-1.27-10.1,4.13-5.63,10.27-1,10.27-1Z"></path><path id="Path_10638" data-name="Path 10638" class="cls-4" d="M62.86,13.3A6.48,6.48,0,0,0,58.74,9l2.84-1.57s2.84.74,1.28,5.85"></path><path id="Path_10639" data-name="Path 10639" class="cls-4" d="M52.22,12.36c1.23-1.55,3.75-1.45,7.3,0a3.18,3.18,0,0,0,1.7.23c2.68-.46,3.2-3.75,3.2-3.75.65-2.19-.78-3.24-3-3.89l-5.71-1.7c-3.23-1-6.47,1.6-7.12,3.79l-.17.36c-.65,2.19,1.59,4.34,3.78,5"></path><path id="Path_10640" data-name="Path 10640" class="cls-3" d="M49.68,16.39a1.62,1.62,0,1,0,1-2.07,1.62,1.62,0,0,0-1,2.07h0"></path></g></g></g><rect id="Rectangle_2524" data-name="Rectangle 2524" class="cls-1" width="163" height="163"></rect></svg>