<svg xmlns="http://www.w3.org/2000/svg" xmlns:xlink="http://www.w3.org/1999/xlink" width="156" height="215" viewBox="0 0 156 215"><defs><clipPath id="clip-path"><rect id="Rectangle_3127" data-name="Rectangle 3127" width="156" height="215" transform="translate(32)" fill="none"></rect></clipPath><clipPath id="clip-path-2"><path id="Path_13132" data-name="Path 13132" d="M215.819,23.42v2.06l-1.789,1.034v-2.06Z" transform="translate(-214.03 -23.42)" fill="none"></path></clipPath><linearGradient id="linear-gradient" x1="-457.264" y1="360.034" x2="-457.02" y2="360.034" gradientUnits="objectBoundingBox"><stop offset="0" stop-color="#ffad00"></stop><stop offset="1" stop-color="#f70"></stop></linearGradient><clipPath id="clip-path-3"><path id="Path_13133" data-name="Path 13133" d="M220.789,36.09l.008,2.06L219,39.177V37.124Z" transform="translate(-219 -36.09)" fill="none"></path></clipPath><linearGradient id="linear-gradient-2" x1="-460.302" y1="356.949" x2="-460.058" y2="356.949" xlink:href="#linear-gradient"></linearGradient><clipPath id="clip-path-4"><path id="Path_13134" data-name="Path 13134" d="M209.579,53.05l.008,2.06L207.8,56.144l-.008-2.06Z" transform="translate(-207.79 -53.05)" fill="none"></path></clipPath><linearGradient id="linear-gradient-3" x1="-455.339" y1="353.702" x2="-455.094" y2="353.702" xlink:href="#linear-gradient"></linearGradient><clipPath id="clip-path-5"><path id="Path_13135" data-name="Path 13135" d="M220.819,46.56l.008,2.06-1.789,1.034-.008-2.06Z" transform="translate(-219.03 -46.56)" fill="none"></path></clipPath><linearGradient id="linear-gradient-4" x1="-460.318" y1="354.39" x2="-460.075" y2="354.39" xlink:href="#linear-gradient"></linearGradient><clipPath id="clip-path-6"><path id="Path_13136" data-name="Path 13136" d="M220.889,72.76l.008,2.06-1.789,1.034-.008-2.06Z" transform="translate(-219.1 -72.76)" fill="none"></path></clipPath><linearGradient id="linear-gradient-5" x1="-460.36" y1="348.017" x2="-460.117" y2="348.017" xlink:href="#linear-gradient"></linearGradient><clipPath id="clip-path-7"><path id="Path_13137" data-name="Path 13137" d="M209.669,84.49v2.053l-1.781,1.034-.008-2.053Z" transform="translate(-207.88 -84.49)" fill="none"></path></clipPath><linearGradient id="linear-gradient-6" x1="-455.393" y1="346.073" x2="-455.149" y2="346.073" xlink:href="#linear-gradient"></linearGradient><clipPath id="clip-path-8"><path id="Path_13138" data-name="Path 13138" d="M205.131,97.61l.008,2.053-1.789,1.026V98.636Z" transform="translate(-203.35 -97.61)" fill="none"></path></clipPath><linearGradient id="linear-gradient-7" x1="-452.676" y1="342.868" x2="-452.431" y2="342.868" xlink:href="#linear-gradient"></linearGradient><clipPath id="clip-path-9"><path id="Path_13139" data-name="Path 13139" d="M209.789,126.4l.008,2.06-1.789,1.034-.008-2.06Z" transform="translate(-208 -126.4)" fill="none"></path></clipPath><linearGradient id="linear-gradient-8" x1="-455.465" y1="335.792" x2="-455.22" y2="335.792" xlink:href="#linear-gradient"></linearGradient><clipPath id="clip-path-10"><path id="Path_13140" data-name="Path 13140" d="M221.029,119.91l.008,2.06L219.24,123v-2.06Z" transform="translate(-219.24 -119.91)" fill="none"></path></clipPath><linearGradient id="linear-gradient-9" x1="-460.377" y1="336.532" x2="-460.134" y2="336.532" xlink:href="#linear-gradient"></linearGradient><clipPath id="clip-path-11"><path id="Path_13141" data-name="Path 13141" d="M209.869,147.36v2.06l-1.781,1.026-.008-2.053Z" transform="translate(-208.08 -147.36)" fill="none"></path></clipPath><linearGradient id="linear-gradient-10" x1="-455.511" y1="330.675" x2="-455.267" y2="330.675" xlink:href="#linear-gradient"></linearGradient><clipPath id="clip-path-12"><path id="Path_13142" data-name="Path 13142" d="M216.539,143.51l.008,2.053-1.789,1.034-.008-2.053Z" transform="translate(-214.75 -143.51)" fill="none"></path></clipPath><linearGradient id="linear-gradient-11" x1="-457.764" y1="330.782" x2="-457.52" y2="330.782" xlink:href="#linear-gradient"></linearGradient><clipPath id="clip-path-13"><path id="Path_13143" data-name="Path 13143" d="M170.528,36.86l-.008,2.06,1.8,1.026V37.894Z" transform="translate(-170.52 -36.86)" fill="none"></path></clipPath><linearGradient id="linear-gradient-12" x1="-431.306" y1="357.663" x2="-431.062" y2="357.663" xlink:href="#linear-gradient"></linearGradient><clipPath id="clip-path-14"><path id="Path_13144" data-name="Path 13144" d="M175.078,44.74l-.008,2.053,1.8,1.034.008-2.053Z" transform="translate(-175.07 -44.74)" fill="none"></path></clipPath><linearGradient id="linear-gradient-13" x1="-434.096" y1="354.842" x2="-433.852" y2="354.842" xlink:href="#linear-gradient"></linearGradient><clipPath id="clip-path-15"><path id="Path_13145" data-name="Path 13145" d="M170.488,52.57l-.008,2.06,1.789,1.034.008-2.06Z" transform="translate(-170.48 -52.57)" fill="none"></path></clipPath><linearGradient id="linear-gradient-14" x1="-431.281" y1="352.925" x2="-431.037" y2="352.925" xlink:href="#linear-gradient"></linearGradient><clipPath id="clip-path-16"><path id="Path_13146" data-name="Path 13146" d="M186.26,72.18v2.06l1.781,1.026.008-2.053Z" transform="translate(-186.26 -72.18)" fill="none"></path></clipPath><linearGradient id="linear-gradient-15" x1="-442.427" y1="349.024" x2="-442.182" y2="349.024" xlink:href="#linear-gradient"></linearGradient><clipPath id="clip-path-17"><path id="Path_13147" data-name="Path 13147" d="M181.638,90.5l-.008,2.053,1.789,1.034V91.534Z" transform="translate(-181.63 -90.5)" fill="none"></path></clipPath><linearGradient id="linear-gradient-16" x1="-439.651" y1="344.601" x2="-439.406" y2="344.601" xlink:href="#linear-gradient"></linearGradient><clipPath id="clip-path-18"><path id="Path_13148" data-name="Path 13148" d="M174.918,102.37l-.008,2.053,1.789,1.034.008-2.06Z" transform="translate(-174.91 -102.37)" fill="none"></path></clipPath><linearGradient id="linear-gradient-17" x1="-433.995" y1="340.805" x2="-433.751" y2="340.805" xlink:href="#linear-gradient"></linearGradient><clipPath id="clip-path-19"><path id="Path_13149" data-name="Path 13149" d="M186.148,114.1l-.008,2.053,1.781,1.026.008-2.053Z" transform="translate(-186.14 -114.1)" fill="none"></path></clipPath><linearGradient id="linear-gradient-18" x1="-442.355" y1="338.841" x2="-442.111" y2="338.841" xlink:href="#linear-gradient"></linearGradient><clipPath id="clip-path-20"><path id="Path_13150" data-name="Path 13150" d="M186.068,135.06l-.008,2.053,1.789,1.034v-2.06Z" transform="translate(-186.06 -135.06)" fill="none"></path></clipPath><linearGradient id="linear-gradient-19" x1="-442.309" y1="333.678" x2="-442.064" y2="333.678" xlink:href="#linear-gradient"></linearGradient><clipPath id="clip-path-21"><path id="Path_13151" data-name="Path 13151" d="M174.8,139.04l-.008,2.06,1.789,1.034.008-2.06Z" transform="translate(-174.79 -139.04)" fill="none"></path></clipPath><linearGradient id="linear-gradient-20" x1="-433.923" y1="331.87" x2="-433.68" y2="331.87" xlink:href="#linear-gradient"></linearGradient><clipPath id="clip-path-22"><path id="Path_13152" data-name="Path 13152" d="M69.13,76.366l-.008,4.392-2.422-1.4.015-4.385Z" transform="translate(-66.7 -74.97)" fill="none"></path></clipPath><linearGradient id="linear-gradient-21" x1="-292.183" y1="178.119" x2="-292.053" y2="178.119" xlink:href="#linear-gradient"></linearGradient><clipPath id="clip-path-23"><path id="Path_13153" data-name="Path 13153" d="M69.038,111.954l-.015,4.385-2.422-1.4.015-4.385Z" transform="translate(-66.6 -110.55)" fill="none"></path></clipPath><linearGradient id="linear-gradient-22" x1="-292.177" y1="173.478" x2="-292.043" y2="173.478" xlink:href="#linear-gradient"></linearGradient><clipPath id="clip-path-24"><path id="Path_13154" data-name="Path 13154" d="M68.87,168.876l-.008,4.385-2.422-1.4.015-4.385Z" transform="translate(-66.44 -167.48)" fill="none"></path></clipPath><linearGradient id="linear-gradient-23" x1="-292.078" y1="166.051" x2="-291.944" y2="166.051" xlink:href="#linear-gradient"></linearGradient><clipPath id="clip-path-25"><path id="Path_13155" data-name="Path 13155" d="M66.629,74.97l-.015,4.385,2.422,1.4v.981l-2.422-1.4-.008,4.385,2.415,1.4v.989l-2.43-1.4L66.584,90.1,69,91.489v.989l-2.415-1.4-.015,4.385,2.422,1.4v.989l-2.422-1.4-.015,4.385,2.422,1.4v.989l-2.422-1.4-.015,4.385,2.422,1.4v.981l-2.422-1.4-.015,4.385,2.422,1.4v.989l-2.422-1.4-.015,4.377,2.422,1.4v.989l-2.422-1.4-.015,4.385,2.422,1.4v.989l-2.422-1.4-.008,4.385,2.415,1.4v.989l-2.422-1.4-.008,4.377,2.422,1.4v.989l-2.422-1.4-.015,4.385,2.422,1.4v.989l-2.43-1.4-.015,4.385,2.422,1.4v.981l-2.422-1.4-.015,4.385,2.422,1.4v.989l-2.422-1.4-.015,4.385,2.422,1.4v.989l-2.422-1.4-.008,4.385,2.415,1.4v.989l-2.422-1.4-.015,4.385,2.415,1.4v.989l-2.415-1.4-.015,4.385,2.422,1.4-.015,3.856-2.415-1.4Z" transform="translate(-66.35 -74.97)" fill="none"></path></clipPath><linearGradient id="linear-gradient-24" x1="-268.851" y1="9.713" x2="-268.742" y2="9.713" gradientUnits="objectBoundingBox"><stop offset="0" stop-color="#5752d0"></stop><stop offset="1" stop-color="#7f7cf9"></stop></linearGradient><clipPath id="clip-path-26"><path id="Path_13156" data-name="Path 13156" d="M76.63,137.726l-.008,4.385-2.422-1.4.015-4.377Z" transform="translate(-74.2 -136.33)" fill="none"></path></clipPath><linearGradient id="linear-gradient-25" x1="-295.27" y1="170.121" x2="-295.137" y2="170.121" xlink:href="#linear-gradient"></linearGradient><clipPath id="clip-path-27"><path id="Path_13157" data-name="Path 13157" d="M76.51,180.416l-.015,4.385-2.415-1.4.015-4.385Z" transform="translate(-74.08 -179.02)" fill="none"></path></clipPath><linearGradient id="linear-gradient-26" x1="-295.186" y1="164.552" x2="-295.053" y2="164.552" xlink:href="#linear-gradient"></linearGradient><clipPath id="clip-path-28"><path id="Path_13158" data-name="Path 13158" d="M76.47,194.646l-.015,4.385-2.415-1.4.008-4.385Z" transform="translate(-74.04 -193.25)" fill="none"></path></clipPath><linearGradient id="linear-gradient-27" x1="-295.171" y1="162.696" x2="-295.037" y2="162.696" xlink:href="#linear-gradient"></linearGradient><clipPath id="clip-path-29"><path id="Path_13159" data-name="Path 13159" d="M74.287,79.39l-.015,4.392,2.422,1.4v.989l-2.422-1.4-.015,4.385,2.422,1.4v.989l-2.422-1.4-.015,4.385,2.422,1.4v.989l-2.422-1.4-.015,4.377,2.422,1.4v.989l-2.422-1.4-.015,4.385,2.422,1.4v.989l-2.422-1.4-.015,4.385,2.422,1.4v.981l-2.43-1.4L74.181,116l2.422,1.4v.989l-2.422-1.4-.015,4.385,2.422,1.4v.989l-2.422-1.4-.015,4.377,2.422,1.4v.989l-2.422-1.4-.008,4.385,2.415,1.4v.989l-2.415-1.4-.015,4.377,2.422,1.4v.989l-2.422-1.4-.015,4.385,2.422,1.4v.981l-2.43-1.4-.015,4.385,2.422,1.4v.981l-2.422-1.4-.015,4.385,2.422,1.4v.989l-2.422-1.4-.008,4.385,2.415,1.4v.989l-2.43-1.4-.008,4.385,2.422,1.4v.989l-2.422-1.4L74.03,169.7l2.422,1.4v.989l-2.43-1.4-.008,4.385,2.415,1.4-.008,3.864L74,178.929Z" transform="translate(-74 -79.39)" fill="none"></path></clipPath><linearGradient id="linear-gradient-28" x1="-271.593" y1="9.68" x2="-271.483" y2="9.68" xlink:href="#linear-gradient-24"></linearGradient><clipPath id="clip-path-30"><path id="Path_13160" data-name="Path 13160" d="M81.939,83.81l-.008,4.385,2.415,1.4v.989l-2.415-1.4-.015,4.385,2.415,1.4v.989l-2.415-1.4-.008,4.385,2.415,1.389v.989l-2.415-1.4-.015,4.385,2.415,1.4v.989l-2.415-1.4-.015,4.377,2.422,1.4v.989l-2.438-1.389-.008,4.385,2.415,1.4v.981l-2.415-1.4-.015,4.385,2.415,1.4v.989l-2.415-1.4-.015,4.385,2.415,1.4v.981l-2.415-1.389-.015,4.377,2.422,1.4v.989l-2.422-1.4L81.8,136.53l2.415,1.4v.989l-2.415-1.4-.015,4.377,2.415,1.4v.989l-2.415-1.4-.008,4.392,2.415,1.389v.989l-2.415-1.4-.015,4.385,2.415,1.4v.981l-2.415-1.4-.015,4.385,2.415,1.4v.989L81.751,159l-.038,4.385,2.422,1.4v.989l-2.422-1.4-.008,4.385,2.415,1.4v.981l-2.415-1.389-.015,4.377,2.415,1.4v.989l-2.422-1.4-.008,4.385,2.415,1.4-.015,3.864-2.415-1.4Z" transform="translate(-81.66 -83.81)" fill="none"></path></clipPath><linearGradient id="linear-gradient-29" x1="-274.298" y1="9.647" x2="-274.191" y2="9.647" xlink:href="#linear-gradient-24"></linearGradient><clipPath id="clip-path-31"><path id="Path_13161" data-name="Path 13161" d="M84.43,92.329l-.015,4.385L82,95.317l.015-4.377Z" transform="translate(-82 -90.94)" fill="none"></path></clipPath><linearGradient id="linear-gradient-30" x1="-298.345" y1="176.276" x2="-298.211" y2="176.276" xlink:href="#linear-gradient"></linearGradient><clipPath id="clip-path-32"><path id="Path_13162" data-name="Path 13162" d="M84.35,120.8l-.015,4.385-2.415-1.4.015-4.385Z" transform="translate(-81.92 -119.4)" fill="none"></path></clipPath><linearGradient id="linear-gradient-31" x1="-298.31" y1="172.324" x2="-298.18" y2="172.324" xlink:href="#linear-gradient"></linearGradient><clipPath id="clip-path-33"><path id="Path_13163" data-name="Path 13163" d="M84.33,127.906l-.015,4.385-2.415-1.4.015-4.385Z" transform="translate(-81.9 -126.51)" fill="none"></path></clipPath><linearGradient id="linear-gradient-32" x1="-298.304" y1="171.4" x2="-298.171" y2="171.4" xlink:href="#linear-gradient"></linearGradient><clipPath id="clip-path-34"><path id="Path_13164" data-name="Path 13164" d="M89.6,88.23l-.015,4.392,2.422,1.4V95l-2.422-1.389-.015,4.377L92,99.384v.989l-2.422-1.4-.015,4.377,2.422,1.4v.989l-2.422-1.4-.015,4.385,2.422,1.4v.989l-2.422-1.4-.015,4.385,2.422,1.4v.989l-2.422-1.4-.015,4.392,2.422,1.4v.981l-2.415-1.4-.015,4.385,2.415,1.4v.989l-2.415-1.4-.015,4.385,2.422,1.4v.989l-2.43-1.4-.015,4.385,2.422,1.4v.989l-2.422-1.4-.015,4.377,2.422,1.4v.989l-2.422-1.4-.015,4.385,2.422,1.4v.989l-2.422-1.4-.008,4.385,2.415,1.4v.981l-2.422-1.4-.008,4.385,2.415,1.4v.989l-2.415-1.4-.015,4.385,2.422,1.4v.989l-2.422-1.4-.015,4.377,2.422,1.4v.989l-2.415-1.4-.015,4.385,2.415,1.4v.989l-2.415-1.4-.015,4.377,2.422,1.4v.981l-2.422-1.4-.008,4.385,2.415,1.4-.008,3.856-2.422-1.4Z" transform="translate(-89.34 -88.23)" fill="none"></path></clipPath><linearGradient id="linear-gradient-33" x1="-277.113" y1="9.614" x2="-277.006" y2="9.614" xlink:href="#linear-gradient-24"></linearGradient><clipPath id="clip-path-35"><path id="Path_13165" data-name="Path 13165" d="M91.9,160.8l-.008,4.385-2.422-1.4.015-4.385Z" transform="translate(-89.47 -159.4)" fill="none"></path></clipPath><linearGradient id="linear-gradient-34" x1="-301.45" y1="167.112" x2="-301.317" y2="167.112" xlink:href="#linear-gradient"></linearGradient><clipPath id="clip-path-36"><path id="Path_13166" data-name="Path 13166" d="M92.048,110.984l-.015,4.377-2.422-1.4.015-4.385Z" transform="translate(-89.61 -109.58)" fill="none"></path></clipPath><linearGradient id="linear-gradient-35" x1="-301.54" y1="173.61" x2="-301.407" y2="173.61" xlink:href="#linear-gradient"></linearGradient><clipPath id="clip-path-37"><path id="Path_13167" data-name="Path 13167" d="M91.942,146.566l-.008,4.377-2.415-1.4.008-4.377Z" transform="translate(-89.52 -145.17)" fill="none"></path></clipPath><linearGradient id="linear-gradient-36" x1="-301.466" y1="168.969" x2="-301.332" y2="168.969" xlink:href="#linear-gradient"></linearGradient><clipPath id="clip-path-38"><path id="Path_13168" data-name="Path 13168" d="M106.12,90.37l.015,4.377,2.415-1.389v.989l-2.415,1.389.015,4.385,2.415-1.4v.989l-2.415,1.4.015,4.385,2.415-1.4v.989l-2.415,1.4.008,4.377,2.422-1.4v.989l-2.422,1.4.015,4.385,2.422-1.4v.981l-2.422,1.4.015,4.385,2.415-1.389v.989l-2.415,1.389.008,4.385,2.422-1.4v.989l-2.422,1.4.015,4.385,2.415-1.4v.989l-2.415,1.4.015,4.377,2.415-1.4v.989l-2.415,1.4.015,4.385,2.415-1.4v.989l-2.415,1.4.008,4.385,2.415-1.4v.981l-2.415,1.4.015,4.385,2.415-1.4v.989l-2.415,1.4.015,4.385,2.415-1.4v.989l-2.415,1.4.008,4.377,2.415-1.389v.989l-2.415,1.389.015,4.385,2.415-1.4v.989l-2.415,1.4.008,4.377,2.422-1.389v.989l-2.422,1.389.015,4.385,2.415-1.389v.981l-2.415,1.4.015,4.385,2.415-1.4.008,3.864-2.415,1.4Z" transform="translate(-106.12 -90.37)" fill="none"></path></clipPath><linearGradient id="linear-gradient-37" x1="-281.712" y1="9.734" x2="-281.603" y2="9.734" xlink:href="#linear-gradient-24"></linearGradient><clipPath id="clip-path-39"><path id="Path_13169" data-name="Path 13169" d="M113.78,85.95l.008,4.385,2.422-1.4v.981l-2.422,1.4L113.8,95.7l2.415-1.4v.989l-2.415,1.4.008,4.385,2.43-1.4v.989l-2.422,1.4.015,4.377,2.422-1.4v.989l-2.415,1.4.015,4.385,2.415-1.4v.989l-2.422,1.4.015,4.385,2.415-1.4v.981l-2.415,1.4.015,4.377,2.415-1.4v.989l-2.415,1.4.008,4.385,2.422-1.4v.989l-2.422,1.4.015,4.377,2.415-1.4v.989l-2.4,1.4.008,4.377,2.422-1.4v.989l-2.422,1.4.015,4.385,2.422-1.4v.989l-2.415,1.389.008,4.385,2.422-1.4v.981l-2.422,1.4.015,4.392,2.422-1.4v.989l-2.422,1.4.015,4.377,2.422-1.4v.989l-2.415,1.4.015,4.385,2.415-1.4v.989l-2.415,1.4.008,4.377,2.422-1.4v.989l-2.422,1.4.015,4.385,2.422-1.4v.981l-2.422,1.4.015,4.392,2.415-1.4.015,3.864-2.422,1.4Z" transform="translate(-113.78 -85.95)" fill="none"></path></clipPath><linearGradient id="linear-gradient-38" x1="-284.494" y1="9.767" x2="-284.385" y2="9.767" xlink:href="#linear-gradient-24"></linearGradient><clipPath id="clip-path-40"><path id="Path_13170" data-name="Path 13170" d="M121.43,81.53l.015,4.377,2.415-1.389v.989L121.445,86.9l.015,4.385,2.415-1.4v.989l-2.415,1.4.008,4.377,2.422-1.389v.989l-2.422,1.389.015,4.385,2.415-1.4v.989l-2.415,1.4.015,4.385,2.415-1.4v.989l-2.415,1.4.008,4.385,2.415-1.4v.989l-2.415,1.389.015,4.385,2.43-1.4v.989l-2.415,1.4.008,4.385,2.422-1.4v.989l-2.422,1.4.015,4.377,2.415-1.4v.989l-2.4,1.4.008,4.377L124,132.847v.989l-2.415,1.389.015,4.392,2.415-1.4v.981l-2.407,1.4.008,4.385,2.415-1.4v.989l-2.415,1.389.015,4.392,2.415-1.4v.989l-2.415,1.389.008,4.385,2.422-1.4v.989l-2.422,1.4.015,4.385,2.415-1.4v.989l-2.415,1.4.015,4.377,2.415-1.4v.989l-2.415,1.4.015,4.385,2.415-1.4v.989l-2.415,1.4.008,4.385,2.415-1.4.015,3.856-2.415,1.4Z" transform="translate(-121.43 -81.53)" fill="none"></path></clipPath><linearGradient id="linear-gradient-39" x1="-287.184" y1="9.801" x2="-287.078" y2="9.801" xlink:href="#linear-gradient-24"></linearGradient><clipPath id="clip-path-41"><path id="Path_13171" data-name="Path 13171" d="M129.09,77.11l.008,4.385,2.422-1.4v.989l-2.422,1.4.015,4.385,2.422-1.4v.989l-2.422,1.4.015,4.385,2.415-1.4v.989l-2.407,1.389.008,4.385,2.422-1.4v.989l-2.422,1.4.015,4.385,2.422-1.4v.981l-2.422,1.4.015,4.385,2.415-1.4v.989l-2.415,1.4.008,4.377,2.422-1.4v.989l-2.407,1.4.015,4.377,2.415-1.4v.989l-2.422,1.4.015,4.385,2.422-1.4v.989l-2.422,1.4.015,4.385,2.422-1.4v.989l-2.422,1.4.008,4.385,2.422-1.4v.989l-2.407,1.4.015,4.385,2.415-1.4v.981l-2.422,1.4.015,4.392,2.422-1.4v.989l-2.422,1.4.015,4.377,2.415-1.4v.989l-2.415,1.4.008,4.385,2.422-1.4v.981l-2.422,1.4.015,4.385,2.422-1.4v.989l-2.407,1.4.015,4.385,2.422-1.4V167l-2.422,1.4.008,4.385,2.422-1.4.015,3.864-2.422,1.4Z" transform="translate(-129.09 -77.11)" fill="none"></path></clipPath><linearGradient id="linear-gradient-40" x1="-289.966" y1="9.835" x2="-289.857" y2="9.835" xlink:href="#linear-gradient-24"></linearGradient><clipPath id="clip-path-42"><path id="Path_13172" data-name="Path 13172" d="M197,90.755l2.03,1.177,2.053-1.177-2.038-1.185Z" transform="translate(-197 -89.57)" fill="none"></path></clipPath><linearGradient id="linear-gradient-41" x1="-215.456" y1="463.234" x2="-215.41" y2="463.234" xlink:href="#linear-gradient"></linearGradient><clipPath id="clip-path-43"><path id="Path_13173" data-name="Path 13173" d="M171.96,76.867,174,78.052l2.045-1.185-2.03-1.177Z" transform="translate(-171.96 -75.69)" fill="none"></path></clipPath><linearGradient id="linear-gradient-42" x1="-209.972" y1="467.659" x2="-209.924" y2="467.659" xlink:href="#linear-gradient"></linearGradient><clipPath id="clip-path-44"><rect id="Rectangle_3126" data-name="Rectangle 3126" width="123.032" height="214.323" fill="none"></rect></clipPath><clipPath id="clip-path-45"><path id="Path_13174" data-name="Path 13174" d="M196.576,79.835l.9-.528L179.446,68.9l-.906.521Z" transform="translate(-178.54 -68.9)" fill="none"></path></clipPath><linearGradient id="linear-gradient-43" x1="-48.207" y1="92.331" x2="-48.205" y2="92.331" xlink:href="#linear-gradient"></linearGradient></defs><g id="how_icons-01" data-name="how icons-01" transform="translate(-32)" clip-path="url(#clip-path)"><path id="Path_3129" data-name="Path 3129" d="M210.137,20.815l-.287,102.218L220.242,117l.287-102.226Z" transform="translate(-51.485 -3.624)" fill="#cbd3fa"></path><path id="Path_3130" data-name="Path 3130" d="M204.581,29.91v2.06L202.8,33V30.944Z" transform="translate(-49.755 -7.338)" fill="#6b67ec"></path><path id="Path_3131" data-name="Path 3131" d="M209.141,27.27v2.06l-1.781,1.034V28.3Z" transform="translate(-50.874 -6.69)" fill="#6b67ec"></path><g id="Group_2361" data-name="Group 2361" transform="translate(161.52 17.674)"><g id="Group_8324" data-name="Group 8324" clip-path="url(#clip-path-2)"><g id="Group_2360" data-name="Group 2360" transform="translate(-0.008)"><rect id="Rectangle_517" data-name="Rectangle 517" width="1.796" height="3.094" fill="url(#linear-gradient)"></rect></g></g></g><path id="Path_3133" data-name="Path 3133" d="M220.419,20.78v2.06l-1.789,1.034v-2.06Z" transform="translate(-53.639 -5.098)" fill="#6b67ec"></path><path id="Path_3134" data-name="Path 3134" d="M204.589,35.15V37.2L202.8,38.237V36.184Z" transform="translate(-49.755 -8.624)" fill="#6b67ec"></path><path id="Path_3135" data-name="Path 3135" d="M209.159,32.51v2.053L207.37,35.6V33.544Z" transform="translate(-50.876 -7.976)" fill="#6b67ec"></path><path id="Path_3136" data-name="Path 3136" d="M215.829,28.66v2.053l-1.789,1.034V29.671Z" transform="translate(-52.513 -7.031)" fill="#6b67ec"></path><path id="Path_3137" data-name="Path 3137" d="M220.419,26v2.053l-1.789,1.026v-2.03Z" transform="translate(-53.639 -6.379)" fill="#6b67ec"></path><path id="Path_3138" data-name="Path 3138" d="M204.611,40.39v2.053l-1.781,1.034v-2.06Z" transform="translate(-49.763 -9.909)" fill="#6b67ec"></path><path id="Path_3139" data-name="Path 3139" d="M209.169,37.75v2.06l-1.789,1.034v-2.06Z" transform="translate(-50.879 -9.262)" fill="#6b67ec"></path><path id="Path_3140" data-name="Path 3140" d="M215.849,33.9v2.053l-1.789,1.041v-2.06Z" transform="translate(-52.518 -8.317)" fill="#6b67ec"></path><path id="Path_3141" data-name="Path 3141" d="M220.419,31.26v2.068l-1.789,1.034V32.294Z" transform="translate(-53.639 -7.669)" fill="#6b67ec"></path><path id="Path_3142" data-name="Path 3142" d="M204.619,45.63v2.053l-1.789,1.034V46.664Z" transform="translate(-49.763 -11.195)" fill="#6b67ec"></path><path id="Path_3143" data-name="Path 3143" d="M209.189,43v2.053L207.4,46.087v-2.06Z" transform="translate(-50.884 -10.55)" fill="#6b67ec"></path><path id="Path_3144" data-name="Path 3144" d="M215.856,39.14v2.053l-1.8,1.034V40.174Z" transform="translate(-52.518 -9.603)" fill="#6b67ec"></path><path id="Path_3145" data-name="Path 3145" d="M220.416,36.51v2.053l-1.8,1.034V37.544Z" transform="translate(-53.637 -8.957)" fill="#6b67ec"></path><path id="Path_3146" data-name="Path 3146" d="M204.641,50.86v2.06l-1.781,1.064v-2.09Z" transform="translate(-49.77 -12.478)" fill="#6b67ec"></path><path id="Path_3147" data-name="Path 3147" d="M209.2,48.23v2.09l-1.789,1.034v-2.09Z" transform="translate(-50.886 -11.833)" fill="#6b67ec"></path><path id="Path_3148" data-name="Path 3148" d="M215.879,44.38v2.053l-1.789,1.034V45.414Z" transform="translate(-52.525 -10.888)" fill="#6b67ec"></path><path id="Path_3149" data-name="Path 3149" d="M220.419,41.74v2.053l-1.789,1.041v-2.06Z" transform="translate(-53.639 -10.241)" fill="#6b67ec"></path><path id="Path_3150" data-name="Path 3150" d="M204.649,56.11v2.053l-1.789,1.026V57.136Z" transform="translate(-49.77 -13.766)" fill="#6b67ec"></path><path id="Path_3151" data-name="Path 3151" d="M209.221,53.47v2.053l-1.781,1.034V54.5Z" transform="translate(-50.894 -13.118)" fill="#6b67ec"></path><path id="Path_3152" data-name="Path 3152" d="M215.889,49.62v2.053L214.1,52.707V50.661Z" transform="translate(-52.528 -12.174)" fill="#6b67ec"></path><path id="Path_3153" data-name="Path 3153" d="M220.419,47v2.038l-1.789,1.034V48.019Z" transform="translate(-53.639 -11.531)" fill="#6b67ec"></path><path id="Path_3154" data-name="Path 3154" d="M204.659,61.34V63.4l-1.789,1.026V62.374Z" transform="translate(-49.772 -15.049)" fill="#6b67ec"></path><path id="Path_3155" data-name="Path 3155" d="M209.229,58.71v2.053L207.44,61.8v-2.06Z" transform="translate(-50.894 -14.404)" fill="#6b67ec"></path><path id="Path_3156" data-name="Path 3156" d="M215.909,54.85v2.06l-1.789,1.072v-2.1Z" transform="translate(-52.533 -13.457)" fill="#6b67ec"></path><path id="Path_3157" data-name="Path 3157" d="M220.469,52.22v2.053l-1.789,1.034V53.254Z" transform="translate(-53.651 -12.812)" fill="#6b67ec"></path><path id="Path_3158" data-name="Path 3158" d="M204.679,66.58v2.06l-1.789,1.034V67.652Z" transform="translate(-49.777 -16.335)" fill="#6b67ec"></path><path id="Path_3159" data-name="Path 3159" d="M209.251,64v2.053l-1.781.966V65Z" transform="translate(-50.901 -15.702)" fill="#6b67ec"></path><path id="Path_3160" data-name="Path 3160" d="M215.919,60.09v2.06l-1.789,1.034V61.131Z" transform="translate(-52.535 -14.743)" fill="#6b67ec"></path><path id="Path_3161" data-name="Path 3161" d="M220.489,57.46v2.06L218.7,60.547V58.494Z" transform="translate(-53.656 -14.097)" fill="#6b67ec"></path><path id="Path_3162" data-name="Path 3162" d="M204.689,71.82v2.053L202.9,74.907V72.854Z" transform="translate(-49.78 -17.62)" fill="#6b67ec"></path><path id="Path_3163" data-name="Path 3163" d="M209.259,69.19v2.053l-1.789,1.034V70.224Z" transform="translate(-50.901 -16.975)" fill="#6b67ec"></path><path id="Path_3164" data-name="Path 3164" d="M215.929,65.34v2.053l-1.789,1.034V66.374Z" transform="translate(-52.537 -16.031)" fill="#6b67ec"></path><path id="Path_3165" data-name="Path 3165" d="M220.5,62.7v2.053l-1.789,1.034V63.734Z" transform="translate(-53.659 -15.383)" fill="#6b67ec"></path><path id="Path_3166" data-name="Path 3166" d="M204.709,77.06v2.06l-1.789,1.026V78.094Z" transform="translate(-49.785 -18.906)" fill="#6b67ec"></path><path id="Path_3167" data-name="Path 3167" d="M209.281,74.42v2.06L207.5,77.514v-2.06Z" transform="translate(-50.908 -18.258)" fill="#6b67ec"></path><path id="Path_3168" data-name="Path 3168" d="M215.949,70.58v2.053l-1.789,1.034V71.652Z" transform="translate(-52.542 -17.316)" fill="#6b67ec"></path><path id="Path_3169" data-name="Path 3169" d="M220.519,67.94v2.053L218.73,71v-2.03Z" transform="translate(-53.664 -16.669)" fill="#6b67ec"></path><path id="Path_3170" data-name="Path 3170" d="M204.719,82.3v2.038l-1.789,1.034V83.334Z" transform="translate(-49.787 -20.192)" fill="#6b67ec"></path><path id="Path_3171" data-name="Path 3171" d="M209.289,79.67v2.053L207.5,82.749V80.674Z" transform="translate(-50.908 -19.546)" fill="#6b67ec"></path><path id="Path_3172" data-name="Path 3172" d="M215.969,75.81v2.053L214.18,78.9V76.851Z" transform="translate(-52.547 -18.599)" fill="#6b67ec"></path><path id="Path_3173" data-name="Path 3173" d="M220.529,73.18v2.053l-1.789,1.034V74.214Z" transform="translate(-53.666 -17.954)" fill="#6b67ec"></path><path id="Path_3174" data-name="Path 3174" d="M204.751,87.54V89.6L203,90.627V88.574Z" transform="translate(-49.804 -21.477)" fill="#6b67ec"></path><path id="Path_3175" data-name="Path 3175" d="M209.311,84.9v2.06l-1.781,1.034v-2.06Z" transform="translate(-50.916 -20.83)" fill="#6b67ec"></path><path id="Path_3176" data-name="Path 3176" d="M215.979,81.05v2.06l-1.789,1.034v-2.06Z" transform="translate(-52.55 -19.885)" fill="#6b67ec"></path><path id="Path_3177" data-name="Path 3177" d="M220.539,78.41v2.06L218.75,81.5v-2.06Z" transform="translate(-53.668 -19.237)" fill="#6b67ec"></path><path id="Path_3178" data-name="Path 3178" d="M204.766,92.78v2.053L203,95.867V93.814Z" transform="translate(-49.804 -22.763)" fill="#6b67ec"></path><path id="Path_3179" data-name="Path 3179" d="M209.319,90.14v2.053l-1.789,1.034V91.174Z" transform="translate(-50.916 -22.115)" fill="#6b67ec"></path><path id="Path_3180" data-name="Path 3180" d="M215.989,86.29v2.045L214.2,89.369V87.324Z" transform="translate(-52.552 -21.171)" fill="#6b67ec"></path><path id="Path_3181" data-name="Path 3181" d="M220.559,83.66v2.053l-1.789,1.026V84.671Z" transform="translate(-53.673 -20.525)" fill="#6b67ec"></path><path id="Path_3182" data-name="Path 3182" d="M204.773,98v2.053L203,101.1v-2.06Z" transform="translate(-49.804 -24.043)" fill="#6b67ec"></path><path id="Path_3183" data-name="Path 3183" d="M209.341,95.38v2.06l-1.781,1.026V96.414Z" transform="translate(-50.923 -23.401)" fill="#6b67ec"></path><path id="Path_3184" data-name="Path 3184" d="M216.006,91.53v2.053l-1.8,1.034V92.564Z" transform="translate(-52.555 -22.456)" fill="#6b67ec"></path><path id="Path_3185" data-name="Path 3185" d="M220.579,88.89v2.06l-1.789,1.041V89.924Z" transform="translate(-53.678 -21.808)" fill="#6b67ec"></path><path id="Path_3186" data-name="Path 3186" d="M204.781,103.26v2.068L203,106.347v-2.053Z" transform="translate(-49.804 -25.334)" fill="#6b67ec"></path><path id="Path_3187" data-name="Path 3187" d="M209.349,100.62v2.053l-1.789,1.034v-2.045Z" transform="translate(-50.923 -24.686)" fill="#6b67ec"></path><path id="Path_3188" data-name="Path 3188" d="M216.019,96.77v2.053l-1.789,1.034V97.8Z" transform="translate(-52.56 -23.742)" fill="#6b67ec"></path><path id="Path_3189" data-name="Path 3189" d="M220.589,94.13v2.053L218.8,97.217V95.164Z" transform="translate(-53.681 -23.094)" fill="#6b67ec"></path><path id="Path_3190" data-name="Path 3190" d="M204.8,108.49v2.06l-1.8,1.034v-2.06Z" transform="translate(-49.804 -26.617)" fill="#6b67ec"></path><path id="Path_3191" data-name="Path 3191" d="M209.409,105.86v2.053l-1.819,1.072v-2.053Z" transform="translate(-50.93 -25.972)" fill="#6b67ec"></path><path id="Path_3192" data-name="Path 3192" d="M216.039,102v2.053l-1.789,1.034v-2.053Z" transform="translate(-52.564 -25.025)" fill="#6b67ec"></path><path id="Path_3193" data-name="Path 3193" d="M220.609,99.37v2.053l-1.789,1.034V100.4Z" transform="translate(-53.686 -24.38)" fill="#6b67ec"></path><path id="Path_3194" data-name="Path 3194" d="M204.8,113.74v2.053l-1.8,1.034v-2.06Z" transform="translate(-49.804 -27.905)" fill="#6b67ec"></path><path id="Path_3195" data-name="Path 3195" d="M209.419,111.1v2.053l-1.789,1.034v-2.053Z" transform="translate(-50.94 -27.257)" fill="#6b67ec"></path><path id="Path_3196" data-name="Path 3196" d="M216.049,107.25v2.075l-1.789,1.041v-2.06Z" transform="translate(-52.567 -26.313)" fill="#6b67ec"></path><path id="Path_3197" data-name="Path 3197" d="M220.616,104.61v2.06l-1.8,1.034v-2.045Z" transform="translate(-53.686 -25.665)" fill="#6b67ec"></path><path id="Path_3198" data-name="Path 3198" d="M204.829,119v2.053l-1.789,1.026v-2.053Z" transform="translate(-49.814 -29.196)" fill="#6b67ec"></path><path id="Path_3199" data-name="Path 3199" d="M209.419,116.34v2.053l-1.789,1.034v-2.053Z" transform="translate(-50.94 -28.543)" fill="#6b67ec"></path><path id="Path_3200" data-name="Path 3200" d="M216.066,112.49v2.053l-1.8,1.034v-2.053Z" transform="translate(-52.569 -27.598)" fill="#6b67ec"></path><path id="Path_3201" data-name="Path 3201" d="M220.639,109.85V111.9l-1.789,1.034v-2.053Z" transform="translate(-53.693 -26.951)" fill="#6b67ec"></path><path id="Path_3202" data-name="Path 3202" d="M189.989,39.539,189.7,141.757,160.64,124.974l.272-102.234Z" transform="translate(-39.412 -5.579)" fill="#322c8d"></path><path id="Path_3203" data-name="Path 3203" d="M199.437,41.5,199.15,143.72l18.474-10.739L217.9,30.74Z" transform="translate(-48.86 -7.542)" fill="#cbd3fa"></path><path id="Path_3204" data-name="Path 3204" d="M189.888.5,161,17.284l29.077,16.8,18.466-10.761-10.4-6,10.392-6.037Z" transform="translate(-39.5 -0.123)" fill="#6b67ec"></path><path id="Path_3205" data-name="Path 3205" d="M204.981,45.21v2.06L203.2,48.3V46.244Z" transform="translate(-49.853 -11.092)" fill="#322c8d"></path><path id="Path_3206" data-name="Path 3206" d="M209.549,42.58v2.053l-1.789,1.034V43.652Z" transform="translate(-50.972 -10.447)" fill="#322c8d"></path><path id="Path_3207" data-name="Path 3207" d="M216.219,38.72v2.06l-1.789,1.034v-2.06Z" transform="translate(-52.609 -9.5)" fill="#322c8d"></path><g id="Group_2363" data-name="Group 2363" transform="translate(165.27 27.236)"><g id="Group_8325" data-name="Group 8325" clip-path="url(#clip-path-3)"><g id="Group_2362" data-name="Group 2362"><rect id="Rectangle_518" data-name="Rectangle 518" width="1.796" height="3.094" fill="url(#linear-gradient-2)"></rect></g></g></g><path id="Path_3209" data-name="Path 3209" d="M205,50.45V52.5l-1.789,1.034V51.484Z" transform="translate(-49.856 -12.377)" fill="#322c8d"></path><path id="Path_3210" data-name="Path 3210" d="M209.559,47.82v2.053L207.77,50.9V48.846Z" transform="translate(-50.975 -11.732)" fill="#322c8d"></path><path id="Path_3211" data-name="Path 3211" d="M216.236,44v2.053l-1.8,1.041V45.011Z" transform="translate(-52.611 -10.795)" fill="#322c8d"></path><path id="Path_3212" data-name="Path 3212" d="M220.8,41.33v2.053L219,44.417V42.364Z" transform="translate(-53.73 -10.14)" fill="#322c8d"></path><path id="Path_3213" data-name="Path 3213" d="M205.009,55.69v2.06l-1.789,1.026V56.724Z" transform="translate(-49.858 -13.663)" fill="#322c8d"></path><g id="Group_2365" data-name="Group 2365" transform="translate(156.81 40.035)"><g id="Group_8326" data-name="Group 8326" clip-path="url(#clip-path-4)"><g id="Group_2364" data-name="Group 2364"><rect id="Rectangle_519" data-name="Rectangle 519" width="1.789" height="3.087" fill="url(#linear-gradient-3)"></rect></g></g></g><path id="Path_3215" data-name="Path 3215" d="M216.249,49.2v2.06l-1.789,1.034v-2.06Z" transform="translate(-52.616 -12.071)" fill="#322c8d"></path><g id="Group_2367" data-name="Group 2367" transform="translate(165.293 35.137)"><g id="Group_8327" data-name="Group 8327" clip-path="url(#clip-path-5)"><g id="Group_2366" data-name="Group 2366"><rect id="Rectangle_520" data-name="Rectangle 520" width="1.796" height="3.094" fill="url(#linear-gradient-4)"></rect></g></g></g><path id="Path_3217" data-name="Path 3217" d="M205.031,60.93v2.053L203.25,64V61.964Z" transform="translate(-49.866 -14.949)" fill="#322c8d"></path><path id="Path_3218" data-name="Path 3218" d="M209.589,58.29v2.045L207.8,61.369V59.324Z" transform="translate(-50.982 -14.301)" fill="#322c8d"></path><path id="Path_3219" data-name="Path 3219" d="M216.266,54.44v2.053l-1.8,1.034V55.474Z" transform="translate(-52.618 -13.356)" fill="#322c8d"></path><path id="Path_3220" data-name="Path 3220" d="M220.829,51.81v2.053l-1.789,1.026V52.836Z" transform="translate(-53.74 -12.711)" fill="#322c8d"></path><path id="Path_3221" data-name="Path 3221" d="M205.039,66.17v2.053l-1.789,1.034V67.2Z" transform="translate(-49.866 -16.234)" fill="#322c8d"></path><path id="Path_3222" data-name="Path 3222" d="M209.609,63.53v2.06l-1.789,1.026V64.564Z" transform="translate(-50.987 -15.587)" fill="#322c8d"></path><path id="Path_3223" data-name="Path 3223" d="M216.279,59.68v2.053l-1.789,1.034V60.714Z" transform="translate(-52.623 -14.642)" fill="#322c8d"></path><path id="Path_3224" data-name="Path 3224" d="M220.846,57v2.06l-1.8,1.034v-2.03Z" transform="translate(-53.742 -13.984)" fill="#322c8d"></path><path id="Path_3225" data-name="Path 3225" d="M205.059,71.41v2.053l-1.789,1.026V72.436Z" transform="translate(-49.871 -17.52)" fill="#322c8d"></path><path id="Path_3226" data-name="Path 3226" d="M209.619,68.78v2.053l-1.789,1.026V69.806Z" transform="translate(-50.989 -16.875)" fill="#322c8d"></path><path id="Path_3227" data-name="Path 3227" d="M216.3,64.92v2.053L214.51,68V65.954Z" transform="translate(-52.628 -15.928)" fill="#322c8d"></path><path id="Path_3228" data-name="Path 3228" d="M220.859,62.28v2.053l-1.789,1.034V63.314Z" transform="translate(-53.747 -15.28)" fill="#322c8d"></path><path id="Path_3229" data-name="Path 3229" d="M205.069,76.64V78.7l-1.789,1.034V77.666Z" transform="translate(-49.873 -18.803)" fill="#322c8d"></path><path id="Path_3230" data-name="Path 3230" d="M209.639,74v2.053l-1.789,1.034V75.034Z" transform="translate(-50.994 -18.155)" fill="#322c8d"></path><path id="Path_3231" data-name="Path 3231" d="M216.309,70.16v2.06l-1.789,1.026V71.194Z" transform="translate(-52.631 -17.213)" fill="#322c8d"></path><path id="Path_3232" data-name="Path 3232" d="M220.879,67.52v2.053l-1.789,1.034V68.554Z" transform="translate(-53.752 -16.565)" fill="#322c8d"></path><path id="Path_3233" data-name="Path 3233" d="M205.091,81.89v2.053l-1.781,1.049V82.916Z" transform="translate(-49.88 -20.091)" fill="#322c8d"></path><path id="Path_3234" data-name="Path 3234" d="M209.649,79.25v2.075l-1.789,1.026V80.284Z" transform="translate(-50.997 -19.443)" fill="#322c8d"></path><path id="Path_3235" data-name="Path 3235" d="M216.326,75.4v2.053l-1.8,1.034V76.434Z" transform="translate(-52.633 -18.499)" fill="#322c8d"></path><g id="Group_2369" data-name="Group 2369" transform="translate(165.346 54.909)"><g id="Group_8328" data-name="Group 8328" clip-path="url(#clip-path-6)"><g id="Group_2368" data-name="Group 2368"><rect id="Rectangle_521" data-name="Rectangle 521" width="1.796" height="3.094" fill="url(#linear-gradient-5)"></rect></g></g></g><path id="Path_3237" data-name="Path 3237" d="M205.1,87.13v2.053l-1.789,1.026V88.156Z" transform="translate(-49.88 -21.377)" fill="#322c8d"></path><g id="Group_2371" data-name="Group 2371" transform="translate(156.878 63.761)"><g id="Group_8329" data-name="Group 8329" clip-path="url(#clip-path-7)"><g id="Group_2370" data-name="Group 2370"><rect id="Rectangle_522" data-name="Rectangle 522" width="1.789" height="3.087" fill="url(#linear-gradient-6)"></rect></g></g></g><path id="Path_3239" data-name="Path 3239" d="M216.339,80.64v2.053l-1.789,1.034v-2.06Z" transform="translate(-52.638 -19.784)" fill="#322c8d"></path><path id="Path_3240" data-name="Path 3240" d="M220.906,78v2.053l-1.8,1.034V79.034Z" transform="translate(-53.757 -19.137)" fill="#322c8d"></path><path id="Path_3241" data-name="Path 3241" d="M205.119,92.36v2.06l-1.789,1.034v-2.06Z" transform="translate(-49.885 -22.66)" fill="#322c8d"></path><path id="Path_3242" data-name="Path 3242" d="M209.679,89.73v2.053l-1.789,1.034v-2.06Z" transform="translate(-51.004 -22.015)" fill="#322c8d"></path><path id="Path_3243" data-name="Path 3243" d="M216.359,85.87v2.06l-1.789,1.057V86.911Z" transform="translate(-52.643 -21.067)" fill="#322c8d"></path><path id="Path_3244" data-name="Path 3244" d="M220.919,83.24v2.083l-1.789,1.034V84.274Z" transform="translate(-53.762 -20.422)" fill="#322c8d"></path><g id="Group_2373" data-name="Group 2373" transform="translate(153.46 73.662)"><g id="Group_8330" data-name="Group 8330" clip-path="url(#clip-path-8)"><g id="Group_2372" data-name="Group 2372"><rect id="Rectangle_523" data-name="Rectangle 523" width="1.789" height="3.087" fill="url(#linear-gradient-7)"></rect></g></g></g><path id="Path_3246" data-name="Path 3246" d="M209.7,95v2.053l-1.789,1.034V96.011Z" transform="translate(-51.009 -23.307)" fill="#322c8d"></path><path id="Path_3247" data-name="Path 3247" d="M216.419,91.12v2.053l-1.789,1.034V92.154Z" transform="translate(-52.658 -22.356)" fill="#322c8d"></path><path id="Path_3248" data-name="Path 3248" d="M220.936,88.48v2.053l-1.8,1.034v-2.06Z" transform="translate(-53.764 -21.708)" fill="#322c8d"></path><path id="Path_3249" data-name="Path 3249" d="M205.149,102.84v2.06l-1.789,1.034v-2.06Z" transform="translate(-49.893 -25.231)" fill="#322c8d"></path><path id="Path_3250" data-name="Path 3250" d="M209.709,100.2v2.06l-1.789,1.034v-2.06Z" transform="translate(-51.011 -24.583)" fill="#322c8d"></path><path id="Path_3251" data-name="Path 3251" d="M216.419,96.35v2.06l-1.789,1.034v-2.06Z" transform="translate(-52.658 -23.639)" fill="#322c8d"></path><path id="Path_3252" data-name="Path 3252" d="M220.959,93.72v2.053l-1.789,1.034V94.754Z" transform="translate(-53.772 -22.993)" fill="#322c8d"></path><path id="Path_3253" data-name="Path 3253" d="M205.159,108.08v2.053l-1.789,1.034v-2.053Z" transform="translate(-49.895 -26.517)" fill="#322c8d"></path><path id="Path_3254" data-name="Path 3254" d="M209.743,105.45V107.5L208,108.529v-2.053Z" transform="translate(-51.031 -25.871)" fill="#322c8d"></path><path id="Path_3255" data-name="Path 3255" d="M216.419,101.6v2.053l-1.789,1.034v-2.03Z" transform="translate(-52.658 -24.927)" fill="#322c8d"></path><path id="Path_3256" data-name="Path 3256" d="M220.966,99v2.053l-1.8,1.034v-2.053Z" transform="translate(-53.772 -24.289)" fill="#322c8d"></path><path id="Path_3257" data-name="Path 3257" d="M205.169,113.32v2.06l-1.789,1.026v-2.053Z" transform="translate(-49.898 -27.802)" fill="#322c8d"></path><path id="Path_3258" data-name="Path 3258" d="M209.751,110.68v2.06L208,113.774v-2.06Z" transform="translate(-51.031 -27.154)" fill="#322c8d"></path><path id="Path_3259" data-name="Path 3259" d="M216.416,106.83v2.06l-1.8,1.034v-2.06Z" transform="translate(-52.655 -26.21)" fill="#322c8d"></path><path id="Path_3260" data-name="Path 3260" d="M220.979,104.19v2.06l-1.789,1.034v-2.06Z" transform="translate(-53.776 -25.562)" fill="#322c8d"></path><path id="Path_3261" data-name="Path 3261" d="M205.189,118.56v2.053l-1.789,1.034v-2.053Z" transform="translate(-49.902 -29.088)" fill="#322c8d"></path><path id="Path_3262" data-name="Path 3262" d="M209.766,115.92v2.053L208,119v-2.053Z" transform="translate(-51.031 -28.44)" fill="#322c8d"></path><path id="Path_3263" data-name="Path 3263" d="M216.419,112.07v2.053l-1.789,1.034V113.1Z" transform="translate(-52.658 -27.495)" fill="#322c8d"></path><path id="Path_3264" data-name="Path 3264" d="M221,109.43v2.06l-1.8,1.026v-2.053Z" transform="translate(-53.779 -26.848)" fill="#322c8d"></path><path id="Path_3265" data-name="Path 3265" d="M205.211,123.8v2.053l-1.781,1.034v-2.06Z" transform="translate(-49.91 -30.373)" fill="#322c8d"></path><path id="Path_3266" data-name="Path 3266" d="M209.773,121.16v2.06L208,124.247v-2.053Z" transform="translate(-51.031 -29.726)" fill="#322c8d"></path><path id="Path_3267" data-name="Path 3267" d="M216.419,117.31v2.03l-1.789,1.034v-2.053Z" transform="translate(-52.658 -28.781)" fill="#322c8d"></path><path id="Path_3268" data-name="Path 3268" d="M221.009,114.67v2.06l-1.789,1.034v-2.09Z" transform="translate(-53.784 -28.133)" fill="#322c8d"></path><path id="Path_3269" data-name="Path 3269" d="M205.219,129v2.053l-1.789,1.034v-2.03Z" transform="translate(-49.91 -31.649)" fill="#322c8d"></path><g id="Group_2375" data-name="Group 2375" transform="translate(156.969 95.389)"><g id="Group_8331" data-name="Group 8331" clip-path="url(#clip-path-9)"><g id="Group_2374" data-name="Group 2374"><rect id="Rectangle_524" data-name="Rectangle 524" width="1.789" height="3.087" fill="url(#linear-gradient-8)"></rect></g></g></g><path id="Path_3271" data-name="Path 3271" d="M216.419,122.55v2.06l-1.789,1.034v-2.06Z" transform="translate(-52.658 -30.067)" fill="#322c8d"></path><g id="Group_2377" data-name="Group 2377" transform="translate(165.451 90.491)"><g id="Group_8332" data-name="Group 8332" clip-path="url(#clip-path-10)"><g id="Group_2376" data-name="Group 2376"><rect id="Rectangle_525" data-name="Rectangle 525" width="1.796" height="3.094" fill="url(#linear-gradient-9)"></rect></g></g></g><path id="Path_3273" data-name="Path 3273" d="M205.241,134.28v2.053l-1.781,1.034v-2.053Z" transform="translate(-49.917 -32.944)" fill="#322c8d"></path><path id="Path_3274" data-name="Path 3274" d="M209.8,131.64v2.053l-1.8,1.034v-2.06Z" transform="translate(-51.031 -32.297)" fill="#322c8d"></path><path id="Path_3275" data-name="Path 3275" d="M216.479,127.79v2.053l-1.789,1.034v-2.053Z" transform="translate(-52.672 -31.352)" fill="#322c8d"></path><path id="Path_3276" data-name="Path 3276" d="M221.039,125.15V127.2l-1.789,1.041v-2.06Z" transform="translate(-53.791 -30.705)" fill="#322c8d"></path><path id="Path_3277" data-name="Path 3277" d="M205.269,139.52v2.053l-1.789,1.034v-2.053Z" transform="translate(-49.922 -34.23)" fill="#322c8d"></path><path id="Path_3278" data-name="Path 3278" d="M209.841,136.88v2.06l-1.781,1.049v-2.053Z" transform="translate(-51.046 -33.582)" fill="#322c8d"></path><path id="Path_3279" data-name="Path 3279" d="M216.506,133v2.06l-1.8,1.034v-2.038Z" transform="translate(-52.677 -32.63)" fill="#322c8d"></path><path id="Path_3280" data-name="Path 3280" d="M221.079,130.39v2.06l-1.789,1.034v-2.06Z" transform="translate(-53.801 -31.99)" fill="#322c8d"></path><path id="Path_3281" data-name="Path 3281" d="M205.291,144.76v2.053l-1.781,1.034v-2.053Z" transform="translate(-49.929 -35.516)" fill="#322c8d"></path><path id="Path_3282" data-name="Path 3282" d="M209.849,142.12v2.053l-1.789,1.034v-2.053Z" transform="translate(-51.046 -34.868)" fill="#322c8d"></path><path id="Path_3283" data-name="Path 3283" d="M216.529,138.27v2.06l-1.789,1.034v-2.053Z" transform="translate(-52.685 -33.923)" fill="#322c8d"></path><path id="Path_3284" data-name="Path 3284" d="M221.089,135.63v2.053l-1.789,1.034v-2.053Z" transform="translate(-53.803 -33.276)" fill="#322c8d"></path><path id="Path_3285" data-name="Path 3285" d="M205.3,150v2.053l-1.789,1.034v-2.06Z" transform="translate(-49.929 -36.801)" fill="#322c8d"></path><g id="Group_2379" data-name="Group 2379" transform="translate(157.029 111.206)"><g id="Group_8333" data-name="Group 8333" clip-path="url(#clip-path-11)"><g id="Group_2378" data-name="Group 2378"><rect id="Rectangle_526" data-name="Rectangle 526" width="1.789" height="3.087" fill="url(#linear-gradient-10)"></rect></g></g></g><g id="Group_2381" data-name="Group 2381" transform="translate(162.063 108.301)"><g id="Group_8334" data-name="Group 8334" clip-path="url(#clip-path-12)"><g id="Group_2380" data-name="Group 2380"><rect id="Rectangle_527" data-name="Rectangle 527" width="1.796" height="3.094" fill="url(#linear-gradient-11)"></rect></g></g></g><path id="Path_3288" data-name="Path 3288" d="M221.109,140.87v2.06l-1.789,1.057v-2.06Z" transform="translate(-53.808 -34.561)" fill="#322c8d"></path><path id="Path_3289" data-name="Path 3289" d="M205.309,155.24v2.083l-1.789,1.026v-2.083Z" transform="translate(-49.932 -38.087)" fill="#322c8d"></path><path id="Path_3290" data-name="Path 3290" d="M209.879,152.6v2.053l-1.789,1.034v-2.03Z" transform="translate(-51.053 -37.439)" fill="#322c8d"></path><path id="Path_3291" data-name="Path 3291" d="M216.549,148.75V150.8l-1.789,1.034v-2.053Z" transform="translate(-52.69 -36.495)" fill="#322c8d"></path><path id="Path_3292" data-name="Path 3292" d="M221.119,146.11v2.053L219.33,149.2v-2.053Z" transform="translate(-53.811 -35.847)" fill="#322c8d"></path><path id="Path_3293" data-name="Path 3293" d="M205.329,160.47v2.06l-1.789,1.034V161.5Z" transform="translate(-49.937 -39.37)" fill="#322c8d"></path><path id="Path_3294" data-name="Path 3294" d="M209.9,157.84v2.053l-1.781,1.034v-2.06Z" transform="translate(-51.061 -38.725)" fill="#322c8d"></path><path id="Path_3295" data-name="Path 3295" d="M216.569,154v2.06l-1.789,1.034v-2.06Z" transform="translate(-52.694 -37.783)" fill="#322c8d"></path><path id="Path_3296" data-name="Path 3296" d="M221.139,151.35V153.4l-1.789,1.034v-2.053Z" transform="translate(-53.816 -37.132)" fill="#322c8d"></path><path id="Path_3297" data-name="Path 3297" d="M205.351,165.72v2.06l-1.781,1.026v-2.053Z" transform="translate(-49.944 -40.658)" fill="#322c8d"></path><path id="Path_3298" data-name="Path 3298" d="M209.909,163.08v2.053l-1.789,1.034v-2.053Z" transform="translate(-51.061 -40.01)" fill="#322c8d"></path><path id="Path_3299" data-name="Path 3299" d="M216.579,159.23v2.09l-1.789,1.034v-2.09Z" transform="translate(-52.697 -39.066)" fill="#322c8d"></path><path id="Path_3300" data-name="Path 3300" d="M221.149,156.59v2.06l-1.789,1.034v-2.03Z" transform="translate(-53.818 -38.418)" fill="#322c8d"></path><path id="Path_3301" data-name="Path 3301" d="M205.361,171v2.053l-1.781.966v-2.053Z" transform="translate(-49.947 -41.953)" fill="#322c8d"></path><path id="Path_3302" data-name="Path 3302" d="M209.931,168.32v2.022l-1.781,1.034v-2.053Z" transform="translate(-51.068 -41.296)" fill="#322c8d"></path><path id="Path_3303" data-name="Path 3303" d="M216.6,164.47v2.053l-1.789,1.034V165.5Z" transform="translate(-52.702 -40.351)" fill="#322c8d"></path><path id="Path_3304" data-name="Path 3304" d="M221.169,161.83v2.053l-1.789,1.034v-2.053Z" transform="translate(-53.823 -39.704)" fill="#322c8d"></path><path id="Path_3305" data-name="Path 3305" d="M186.35,40.75V42.8l1.789,1.034V41.784Z" transform="translate(-45.719 -9.998)" fill="#6b67ec"></path><path id="Path_3306" data-name="Path 3306" d="M181.79,38.11v2.06l1.789,1.026V39.144Z" transform="translate(-44.601 -9.35)" fill="#6b67ec"></path><path id="Path_3307" data-name="Path 3307" d="M175.11,34.26v2.068l1.8,1.026v-2.06Z" transform="translate(-42.962 -8.405)" fill="#6b67ec"></path><path id="Path_3308" data-name="Path 3308" d="M170.55,31.62v2.06l1.789,1.034V32.661Z" transform="translate(-41.843 -7.758)" fill="#6b67ec"></path><path id="Path_3309" data-name="Path 3309" d="M186.34,46v2.053l1.789,1.034v-2.06Z" transform="translate(-45.717 -11.286)" fill="#6b67ec"></path><path id="Path_3310" data-name="Path 3310" d="M181.77,43.35V45.4l1.789,1.034V44.384Z" transform="translate(-44.596 -10.636)" fill="#6b67ec"></path><path id="Path_3311" data-name="Path 3311" d="M175.1,39.5v2.053l1.789,1.034V40.534Z" transform="translate(-42.959 -9.691)" fill="#6b67ec"></path><g id="Group_2383" data-name="Group 2383" transform="translate(128.684 27.817)"><g id="Group_8335" data-name="Group 8335" clip-path="url(#clip-path-13)"><g id="Group_2382" data-name="Group 2382"><rect id="Rectangle_528" data-name="Rectangle 528" width="1.796" height="3.087" fill="url(#linear-gradient-12)"></rect></g></g></g><path id="Path_3313" data-name="Path 3313" d="M186.32,51.23v2.09l1.789,1.034v-2.1Z" transform="translate(-45.712 -12.569)" fill="#6b67ec"></path><path id="Path_3314" data-name="Path 3314" d="M181.76,48.59v2.06l1.789,1.026V49.654Z" transform="translate(-44.593 -11.921)" fill="#6b67ec"></path><g id="Group_2385" data-name="Group 2385" transform="translate(132.118 33.763)"><g id="Group_8336" data-name="Group 8336" clip-path="url(#clip-path-14)"><g id="Group_2384" data-name="Group 2384" transform="translate(0.008)"><rect id="Rectangle_529" data-name="Rectangle 529" width="1.796" height="3.094" fill="url(#linear-gradient-13)"></rect></g></g></g><path id="Path_3316" data-name="Path 3316" d="M170.52,42.1v2.06l1.789,1.034v-2.06Z" transform="translate(-41.836 -10.329)" fill="#6b67ec"></path><path id="Path_3317" data-name="Path 3317" d="M186.31,56.47v2.053l1.789,1.026V57.5Z" transform="translate(-45.71 -13.854)" fill="#6b67ec"></path><path id="Path_3318" data-name="Path 3318" d="M181.75,53.83v2.053l1.789,1.034V54.864Z" transform="translate(-44.591 -13.207)" fill="#6b67ec"></path><path id="Path_3319" data-name="Path 3319" d="M175.07,50v2.038l1.789,1.034V51.019Z" transform="translate(-42.952 -12.267)" fill="#6b67ec"></path><path id="Path_3320" data-name="Path 3320" d="M170.5,47.34v2.053l1.8,1.034V48.374Z" transform="translate(-41.831 -11.614)" fill="#6b67ec"></path><path id="Path_3321" data-name="Path 3321" d="M186.29,61.7v2.06l1.781,1.034v-2.06Z" transform="translate(-45.705 -15.138)" fill="#6b67ec"></path><path id="Path_3322" data-name="Path 3322" d="M181.73,59.07v2.053l1.789,1.034V60.1Z" transform="translate(-44.586 -14.492)" fill="#6b67ec"></path><path id="Path_3323" data-name="Path 3323" d="M175.05,55.21v2.06l1.789,1.034v-2.06Z" transform="translate(-42.947 -13.545)" fill="#6b67ec"></path><g id="Group_2387" data-name="Group 2387" transform="translate(128.654 39.672)"><g id="Group_8337" data-name="Group 8337" clip-path="url(#clip-path-15)"><g id="Group_2386" data-name="Group 2386" transform="translate(0 0.008)"><rect id="Rectangle_530" data-name="Rectangle 530" width="1.796" height="3.094" fill="url(#linear-gradient-14)"></rect></g></g></g><path id="Path_3325" data-name="Path 3325" d="M186.28,67v2.053l1.781.966v-2.03Z" transform="translate(-45.702 -16.438)" fill="#6b67ec"></path><path id="Path_3326" data-name="Path 3326" d="M181.71,64.31v2.03l1.789,1.034v-2.03Z" transform="translate(-44.581 -15.778)" fill="#6b67ec"></path><path id="Path_3327" data-name="Path 3327" d="M175,60.46v2.053l1.789,1.026V61.486Z" transform="translate(-42.935 -14.833)" fill="#6b67ec"></path><path id="Path_3328" data-name="Path 3328" d="M170.47,57.82v2.053l1.8,1.034V58.854Z" transform="translate(-41.823 -14.186)" fill="#6b67ec"></path><g id="Group_2389" data-name="Group 2389" transform="translate(140.563 54.471)"><g id="Group_8338" data-name="Group 8338" clip-path="url(#clip-path-16)"><g id="Group_2388" data-name="Group 2388"><rect id="Rectangle_531" data-name="Rectangle 531" width="1.789" height="3.087" fill="url(#linear-gradient-15)"></rect></g></g></g><path id="Path_3330" data-name="Path 3330" d="M181.7,69.54V71.6l1.789,1.034V70.581Z" transform="translate(-44.579 -17.061)" fill="#6b67ec"></path><path id="Path_3331" data-name="Path 3331" d="M175,65.69v2.06l1.789,1.034v-2.06Z" transform="translate(-42.935 -16.116)" fill="#6b67ec"></path><path id="Path_3332" data-name="Path 3332" d="M170.46,63.06v2.053l1.789,1.034V64.094Z" transform="translate(-41.821 -15.471)" fill="#6b67ec"></path><path id="Path_3333" data-name="Path 3333" d="M186.25,77.42v2.06l1.789,1.026V78.454Z" transform="translate(-45.695 -18.994)" fill="#6b67ec"></path><path id="Path_3334" data-name="Path 3334" d="M181.68,74.79v2.053l1.751,1.034v-2.06Z" transform="translate(-44.574 -18.349)" fill="#6b67ec"></path><path id="Path_3335" data-name="Path 3335" d="M175,70.93v2.06L176.789,74v-2.03Z" transform="translate(-42.935 -17.402)" fill="#6b67ec"></path><path id="Path_3336" data-name="Path 3336" d="M170.44,68.3v2.038l1.8,1.034V69.334Z" transform="translate(-41.816 -16.757)" fill="#6b67ec"></path><path id="Path_3337" data-name="Path 3337" d="M186.23,82.66v2.053l1.781,1.034V83.671Z" transform="translate(-45.69 -20.28)" fill="#6b67ec"></path><path id="Path_3338" data-name="Path 3338" d="M181.67,80v2.053l1.758,1.049V81.049Z" transform="translate(-44.571 -19.627)" fill="#6b67ec"></path><path id="Path_3339" data-name="Path 3339" d="M175,76.17v2.053l1.789,1.034V77.2Z" transform="translate(-42.935 -18.688)" fill="#6b67ec"></path><path id="Path_3340" data-name="Path 3340" d="M170.43,73.54v2.053l1.789,1.034V74.574Z" transform="translate(-41.814 -18.042)" fill="#6b67ec"></path><path id="Path_3341" data-name="Path 3341" d="M186.22,87.9v2.06L188,90.994v-2.06Z" transform="translate(-45.688 -21.566)" fill="#6b67ec"></path><path id="Path_3342" data-name="Path 3342" d="M181.65,85.26v2.068l1.773,1.026v-2.06Z" transform="translate(-44.566 -20.918)" fill="#6b67ec"></path><path id="Path_3343" data-name="Path 3343" d="M175,81.41v2.06l1.789,1.034v-2.06Z" transform="translate(-42.935 -19.973)" fill="#6b67ec"></path><path id="Path_3344" data-name="Path 3344" d="M170.41,78.77v2.06l1.8,1.034V79.811Z" transform="translate(-41.809 -19.326)" fill="#6b67ec"></path><path id="Path_3345" data-name="Path 3345" d="M186.2,93.14v2.053l1.781,1.034V94.174Z" transform="translate(-45.683 -22.851)" fill="#6b67ec"></path><g id="Group_2391" data-name="Group 2391" transform="translate(137.069 68.297)"><g id="Group_8339" data-name="Group 8339" clip-path="url(#clip-path-17)"><g id="Group_2390" data-name="Group 2390" transform="translate(0 0.008)"><rect id="Rectangle_532" data-name="Rectangle 532" width="1.789" height="3.087" fill="url(#linear-gradient-16)"></rect></g></g></g><path id="Path_3347" data-name="Path 3347" d="M175,86.65V88.7l1.8,1.034V87.669Z" transform="translate(-42.935 -21.259)" fill="#6b67ec"></path><path id="Path_3348" data-name="Path 3348" d="M170.39,84v2.06l1.8,1.034V85.049Z" transform="translate(-41.804 -20.609)" fill="#6b67ec"></path><path id="Path_3349" data-name="Path 3349" d="M186.19,98.38v2.053l1.789,1.034v-2.06Z" transform="translate(-45.68 -24.137)" fill="#6b67ec"></path><path id="Path_3350" data-name="Path 3350" d="M181.62,95.74V97.8l1.8,1.026V96.774Z" transform="translate(-44.559 -23.489)" fill="#6b67ec"></path><path id="Path_3351" data-name="Path 3351" d="M175,91.89v2.053l1.743,1.049V92.924Z" transform="translate(-42.935 -22.544)" fill="#6b67ec"></path><path id="Path_3352" data-name="Path 3352" d="M170.38,89.25v2.075l1.8,1.026V90.284Z" transform="translate(-41.801 -21.897)" fill="#6b67ec"></path><path id="Path_3353" data-name="Path 3353" d="M186.18,103.62v2.053l1.789,1.034v-2.045Z" transform="translate(-45.678 -25.422)" fill="#6b67ec"></path><path id="Path_3354" data-name="Path 3354" d="M181.61,101v2.053l1.789,1.034v-2.053Z" transform="translate(-44.556 -24.78)" fill="#6b67ec"></path><path id="Path_3355" data-name="Path 3355" d="M174.93,97.13v2.053l1.789,1.034V98.164Z" transform="translate(-42.918 -23.83)" fill="#6b67ec"></path><path id="Path_3356" data-name="Path 3356" d="M170.37,94.49v2.053l1.789,1.034V95.524Z" transform="translate(-41.799 -23.182)" fill="#6b67ec"></path><path id="Path_3357" data-name="Path 3357" d="M186.16,108.86v2.053l1.789,1.034v-2.06Z" transform="translate(-45.673 -26.708)" fill="#6b67ec"></path><path id="Path_3358" data-name="Path 3358" d="M181.59,106.22v2.053l1.781,1.034v-2.053Z" transform="translate(-44.552 -26.06)" fill="#6b67ec"></path><g id="Group_2393" data-name="Group 2393" transform="translate(131.997 77.254)"><g id="Group_8340" data-name="Group 8340" clip-path="url(#clip-path-18)"><g id="Group_2392" data-name="Group 2392"><rect id="Rectangle_533" data-name="Rectangle 533" width="1.796" height="3.094" fill="url(#linear-gradient-17)"></rect></g></g></g><path id="Path_3360" data-name="Path 3360" d="M170.35,99.73v2.06l1.789,1.034v-2.06Z" transform="translate(-41.794 -24.468)" fill="#6b67ec"></path><g id="Group_2395" data-name="Group 2395" transform="translate(140.472 86.107)"><g id="Group_8341" data-name="Group 8341" clip-path="url(#clip-path-19)"><g id="Group_2394" data-name="Group 2394"><rect id="Rectangle_534" data-name="Rectangle 534" width="1.789" height="3.087" fill="url(#linear-gradient-18)"></rect></g></g></g><path id="Path_3362" data-name="Path 3362" d="M181.58,111.46v2.053l1.789,1.034v-2.053Z" transform="translate(-44.549 -27.346)" fill="#6b67ec"></path><path id="Path_3363" data-name="Path 3363" d="M174.91,107.61v2.053L176.7,110.7v-2.038Z" transform="translate(-42.913 -26.401)" fill="#6b67ec"></path><path id="Path_3364" data-name="Path 3364" d="M170.34,105v2.053l1.789,1.034v-2.053Z" transform="translate(-41.791 -25.761)" fill="#6b67ec"></path><path id="Path_3365" data-name="Path 3365" d="M186.13,119.33v2.06l1.789,1.034v-2.06Z" transform="translate(-45.665 -29.277)" fill="#6b67ec"></path><path id="Path_3366" data-name="Path 3366" d="M181.56,116.7v2.053l1.781,1.034v-2.06Z" transform="translate(-44.544 -28.631)" fill="#6b67ec"></path><path id="Path_3367" data-name="Path 3367" d="M174.89,112.84v2.06l1.8,1.034v-2.06Z" transform="translate(-42.908 -27.684)" fill="#6b67ec"></path><path id="Path_3368" data-name="Path 3368" d="M170.32,110.21v2.053l1.789,1.034v-2.053Z" transform="translate(-41.787 -27.039)" fill="#6b67ec"></path><path id="Path_3369" data-name="Path 3369" d="M186.12,124.57v2.06l1.789,1.034V125.6Z" transform="translate(-45.663 -30.562)" fill="#6b67ec"></path><path id="Path_3370" data-name="Path 3370" d="M181.55,121.94v2.053l1.789,1.034v-2.06Z" transform="translate(-44.542 -29.917)" fill="#6b67ec"></path><path id="Path_3371" data-name="Path 3371" d="M174.88,118.08v2.06l1.789,1.034v-2.06Z" transform="translate(-42.905 -28.97)" fill="#6b67ec"></path><path id="Path_3372" data-name="Path 3372" d="M170.31,115.45V117.5l1.789,1.034v-2.053Z" transform="translate(-41.784 -28.325)" fill="#6b67ec"></path><path id="Path_3373" data-name="Path 3373" d="M186.1,129.82v2.053l1.789,1.026v-2.053Z" transform="translate(-45.658 -31.85)" fill="#6b67ec"></path><path id="Path_3374" data-name="Path 3374" d="M181.53,127.18v2.053l1.781,1.034v-2.053Z" transform="translate(-44.537 -31.203)" fill="#6b67ec"></path><path id="Path_3375" data-name="Path 3375" d="M174.86,123.33v2.053l1.789,1.034v-2.053Z" transform="translate(-42.9 -30.258)" fill="#6b67ec"></path><path id="Path_3376" data-name="Path 3376" d="M170.29,120.69v2.053l1.789,1.034v-2.053Z" transform="translate(-41.779 -29.61)" fill="#6b67ec"></path><g id="Group_2397" data-name="Group 2397" transform="translate(140.412 101.924)"><g id="Group_8342" data-name="Group 8342" clip-path="url(#clip-path-20)"><g id="Group_2396" data-name="Group 2396"><rect id="Rectangle_535" data-name="Rectangle 535" width="1.789" height="3.087" fill="url(#linear-gradient-19)"></rect></g></g></g><path id="Path_3378" data-name="Path 3378" d="M181.5,132.42v2.053l1.789,1.034v-2.06Z" transform="translate(-44.53 -32.488)" fill="#6b67ec"></path><path id="Path_3379" data-name="Path 3379" d="M174.82,128.57v2.053l1.789,1.034V129.6Z" transform="translate(-42.891 -31.544)" fill="#6b67ec"></path><path id="Path_3380" data-name="Path 3380" d="M170.26,125.93v2.06l1.789,1.026v-2.053Z" transform="translate(-41.772 -30.896)" fill="#6b67ec"></path><path id="Path_3381" data-name="Path 3381" d="M186.05,140.3v2.038l1.789,1.026v-2.053Z" transform="translate(-45.646 -34.421)" fill="#6b67ec"></path><path id="Path_3382" data-name="Path 3382" d="M181.48,137.66v2.053l1.789,1.034v-2.075Z" transform="translate(-44.525 -33.774)" fill="#6b67ec"></path><path id="Path_3383" data-name="Path 3383" d="M174.81,133.81v2.053l1.8,1.034v-2.053Z" transform="translate(-42.888 -32.829)" fill="#6b67ec"></path><path id="Path_3384" data-name="Path 3384" d="M170.24,131.17v2.053l1.789,1.034V132.2Z" transform="translate(-41.767 -32.181)" fill="#6b67ec"></path><path id="Path_3385" data-name="Path 3385" d="M186,145.53v2.06l1.789,1.026v-2.053Z" transform="translate(-45.634 -35.705)" fill="#6b67ec"></path><path id="Path_3386" data-name="Path 3386" d="M181.47,142.9v2.053l1.789,1.034v-2.06Z" transform="translate(-44.522 -35.059)" fill="#6b67ec"></path><g id="Group_2399" data-name="Group 2399" transform="translate(131.907 104.928)"><g id="Group_8343" data-name="Group 8343" clip-path="url(#clip-path-21)"><g id="Group_2398" data-name="Group 2398"><rect id="Rectangle_536" data-name="Rectangle 536" width="1.796" height="3.094" fill="url(#linear-gradient-20)"></rect></g></g></g><path id="Path_3388" data-name="Path 3388" d="M170.23,136.41v2.053l1.789,1.034v-2.053Z" transform="translate(-41.765 -33.467)" fill="#6b67ec"></path><path id="Path_3389" data-name="Path 3389" d="M186,150.77v2.053l1.789,1.034V151.8Z" transform="translate(-45.634 -36.99)" fill="#6b67ec"></path><path id="Path_3390" data-name="Path 3390" d="M181.45,148.13v2.053l1.781,1.034v-2.053Z" transform="translate(-44.517 -36.342)" fill="#6b67ec"></path><path id="Path_3391" data-name="Path 3391" d="M174.78,144.28v2.053l1.789,1.034v-2.053Z" transform="translate(-42.881 -35.398)" fill="#6b67ec"></path><path id="Path_3392" data-name="Path 3392" d="M170.21,141.65V143.7L172,144.737v-2.068Z" transform="translate(-41.76 -34.753)" fill="#6b67ec"></path><path id="Path_3393" data-name="Path 3393" d="M186,156v2.06l1.789,1.026v-2.053Z" transform="translate(-45.634 -38.273)" fill="#6b67ec"></path><path id="Path_3394" data-name="Path 3394" d="M181.44,153.37v2.06l1.789,1.034V154.4Z" transform="translate(-44.515 -37.628)" fill="#6b67ec"></path><path id="Path_3395" data-name="Path 3395" d="M174.77,149.52v2.053l1.789,1.034v-2.053Z" transform="translate(-42.878 -36.683)" fill="#6b67ec"></path><path id="Path_3396" data-name="Path 3396" d="M170.2,146.88v2.06l1.789,1.034v-2.053Z" transform="translate(-41.757 -36.036)" fill="#6b67ec"></path><path id="Path_3397" data-name="Path 3397" d="M186,161.25v2.075l1.789,1.026V162.3Z" transform="translate(-45.634 -39.561)" fill="#6b67ec"></path><path id="Path_3398" data-name="Path 3398" d="M181.43,158.62v2.053l1.789,1.034v-2.045Z" transform="translate(-44.512 -38.916)" fill="#6b67ec"></path><path id="Path_3399" data-name="Path 3399" d="M174.75,154.76v2.06l1.8,1.034v-2.06Z" transform="translate(-42.873 -37.969)" fill="#6b67ec"></path><path id="Path_3400" data-name="Path 3400" d="M170.19,152.13v2.053l1.789,1.034v-2.053Z" transform="translate(-41.755 -37.324)" fill="#6b67ec"></path><path id="Path_3401" data-name="Path 3401" d="M186,166.49v2.053l1.789,1.034v-2.053Z" transform="translate(-45.634 -40.847)" fill="#6b67ec"></path><path id="Path_3402" data-name="Path 3402" d="M181.41,163.86v2.053l1.789,1.026v-2.053Z" transform="translate(-44.507 -40.202)" fill="#6b67ec"></path><path id="Path_3403" data-name="Path 3403" d="M174.74,160v2.053l1.789,1.034v-2.053Z" transform="translate(-42.871 -39.255)" fill="#6b67ec"></path><path id="Path_3404" data-name="Path 3404" d="M170.17,157.37v2.045l1.8,1.034V158.4Z" transform="translate(-41.75 -38.609)" fill="#6b67ec"></path><path id="Path_3405" data-name="Path 3405" d="M128.449,62.7l-.287,114.987L99.38,194.411l.287-114.98Z" transform="translate(-24.382 -15.383)" fill="#cbd3fa"></path><path id="Path_3406" data-name="Path 3406" d="M61,177.69l28.971,16.723.287-114.98L61.279,62.71Z" transform="translate(-14.966 -15.385)" fill="#423bb4"></path><path id="Path_3407" data-name="Path 3407" d="M61.37,57.271,90.341,73.994l28.783-16.723L90.16,40.54Z" transform="translate(-15.057 -9.946)" fill="#6b67ec"></path><path id="Path_3408" data-name="Path 3408" d="M69.118,83.486v4.385l-2.438-1.4V82.09Z" transform="translate(-16.359 -20.14)" fill="#322c8d"></path><g id="Group_2401" data-name="Group 2401" transform="translate(50.336 56.577)"><g id="Group_8344" data-name="Group 8344" clip-path="url(#clip-path-22)"><g id="Group_2400" data-name="Group 2400"><rect id="Rectangle_537" data-name="Rectangle 537" width="2.43" height="5.781" fill="url(#linear-gradient-21)"></rect></g></g></g><path id="Path_3410" data-name="Path 3410" d="M69.082,97.724V102.1l-2.422-1.4V96.32Z" transform="translate(-16.354 -23.631)" fill="#322c8d"></path><path id="Path_3411" data-name="Path 3411" d="M69.1,90.6v4.385l-2.43-1.411V89.2Z" transform="translate(-16.357 -21.884)" fill="#322c8d"></path><path id="Path_3412" data-name="Path 3412" d="M68.912,154.646v4.385l-2.422-1.4V153.25Z" transform="translate(-16.313 -37.599)" fill="#322c8d"></path><path id="Path_3413" data-name="Path 3413" d="M68.932,147.544v4.377l-2.422-1.4V146.14Z" transform="translate(-16.318 -35.854)" fill="#322c8d"></path><path id="Path_3414" data-name="Path 3414" d="M68.965,140.411V144.8l-2.415-1.4V139Z" transform="translate(-16.327 -34.102)" fill="#322c8d"></path><path id="Path_3415" data-name="Path 3415" d="M68.972,133.306v4.377l-2.422-1.4V131.91Z" transform="translate(-16.327 -32.363)" fill="#322c8d"></path><path id="Path_3416" data-name="Path 3416" d="M68.992,126.186v4.385l-2.422-1.4V124.79Z" transform="translate(-16.332 -30.616)" fill="#322c8d"></path><path id="Path_3417" data-name="Path 3417" d="M69.012,119.064v4.385l-2.422-1.4V117.66Z" transform="translate(-16.337 -28.867)" fill="#322c8d"></path><g id="Group_2403" data-name="Group 2403" transform="translate(50.26 83.427)"><g id="Group_8345" data-name="Group 8345" clip-path="url(#clip-path-23)"><g id="Group_2402" data-name="Group 2402"><rect id="Rectangle_538" data-name="Rectangle 538" width="2.43" height="5.781" fill="url(#linear-gradient-22)"></rect></g></g></g><path id="Path_3419" data-name="Path 3419" d="M69.062,104.836v4.385l-2.422-1.4V103.44Z" transform="translate(-16.35 -25.378)" fill="#322c8d"></path><path id="Path_3420" data-name="Path 3420" d="M68.852,176v4.385l-2.422-1.4V174.6Z" transform="translate(-16.298 -42.837)" fill="#322c8d"></path><g id="Group_2405" data-name="Group 2405" transform="translate(50.14 126.39)"><g id="Group_8346" data-name="Group 8346" clip-path="url(#clip-path-24)"><g id="Group_2404" data-name="Group 2404"><rect id="Rectangle_539" data-name="Rectangle 539" width="2.43" height="5.781" fill="url(#linear-gradient-23)"></rect></g></g></g><path id="Path_3422" data-name="Path 3422" d="M68.892,161.759v4.362l-2.422-1.4V160.34Z" transform="translate(-16.308 -39.338)" fill="#322c8d"></path><path id="Path_3423" data-name="Path 3423" d="M68.832,183.116v4.377l-2.422-1.4V181.72Z" transform="translate(-16.293 -44.583)" fill="#322c8d"></path><path id="Path_3424" data-name="Path 3424" d="M68.812,190.226v4.385l-2.422-1.4V188.83Z" transform="translate(-16.288 -46.328)" fill="#322c8d"></path><path id="Path_3425" data-name="Path 3425" d="M68.795,197.346v4.385l-2.415-1.4V195.95Z" transform="translate(-16.286 -48.075)" fill="#322c8d"></path><g id="Group_2407" data-name="Group 2407" transform="translate(50.072 56.577)"><g id="Group_8347" data-name="Group 8347" clip-path="url(#clip-path-25)"><g id="Group_2406" data-name="Group 2406"><rect id="Rectangle_540" data-name="Rectangle 540" width="2.687" height="100.936" fill="url(#linear-gradient-24)"></rect></g></g></g><path id="Path_3427" data-name="Path 3427" d="M76.8,80.794v4.385l-2.422-1.4V79.39Z" transform="translate(-18.249 -19.478)" fill="#322c8d"></path><path id="Path_3428" data-name="Path 3428" d="M76.732,102.144v4.377l-2.422-1.4V100.74Z" transform="translate(-18.231 -24.716)" fill="#322c8d"></path><path id="Path_3429" data-name="Path 3429" d="M76.752,95.026v4.385l-2.422-1.4V93.63Z" transform="translate(-18.236 -22.971)" fill="#322c8d"></path><path id="Path_3430" data-name="Path 3430" d="M76.772,87.914v4.377l-2.422-1.4V86.51Z" transform="translate(-18.241 -21.225)" fill="#322c8d"></path><path id="Path_3431" data-name="Path 3431" d="M76.692,116.376v4.385l-2.422-1.4V114.98Z" transform="translate(-18.222 -28.209)" fill="#322c8d"></path><path id="Path_3432" data-name="Path 3432" d="M76.712,109.256v4.385l-2.422-1.4V107.86Z" transform="translate(-18.226 -26.463)" fill="#322c8d"></path><path id="Path_3433" data-name="Path 3433" d="M76.672,123.486v4.385l-2.422-1.4V122.09Z" transform="translate(-18.217 -29.954)" fill="#322c8d"></path><path id="Path_3434" data-name="Path 3434" d="M76.658,130.6v4.385l-2.438-1.411V129.19Z" transform="translate(-18.209 -31.696)" fill="#322c8d"></path><path id="Path_3435" data-name="Path 3435" d="M76.552,166.186v4.385l-2.422-1.4V164.79Z" transform="translate(-18.187 -40.43)" fill="#322c8d"></path><path id="Path_3436" data-name="Path 3436" d="M76.572,159.066v4.385l-2.422-1.4V157.67Z" transform="translate(-18.192 -38.683)" fill="#322c8d"></path><path id="Path_3437" data-name="Path 3437" d="M76.592,151.956v4.377l-2.422-1.4V150.56Z" transform="translate(-18.197 -36.939)" fill="#322c8d"></path><path id="Path_3438" data-name="Path 3438" d="M76.612,144.836v4.385l-2.422-1.4V143.44Z" transform="translate(-18.202 -35.192)" fill="#322c8d"></path><g id="Group_2409" data-name="Group 2409" transform="translate(55.996 102.883)"><g id="Group_8348" data-name="Group 8348" clip-path="url(#clip-path-26)"><g id="Group_2408" data-name="Group 2408"><rect id="Rectangle_541" data-name="Rectangle 541" width="2.43" height="5.781" fill="url(#linear-gradient-25)"></rect></g></g></g><g id="Group_2411" data-name="Group 2411" transform="translate(55.905 135.099)"><g id="Group_8349" data-name="Group 8349" clip-path="url(#clip-path-27)"><g id="Group_2410" data-name="Group 2410"><rect id="Rectangle_542" data-name="Rectangle 542" width="2.43" height="5.781" fill="url(#linear-gradient-26)"></rect></g></g></g><path id="Path_3441" data-name="Path 3441" d="M76.532,173.3v4.385l-2.422-1.4V171.9Z" transform="translate(-18.182 -42.174)" fill="#322c8d"></path><path id="Path_3442" data-name="Path 3442" d="M76.445,201.766v4.385L74,204.755V200.37Z" transform="translate(-18.155 -49.159)" fill="#322c8d"></path><g id="Group_2413" data-name="Group 2413" transform="translate(55.875 145.838)"><g id="Group_8350" data-name="Group 8350" clip-path="url(#clip-path-28)"><g id="Group_2412" data-name="Group 2412"><rect id="Rectangle_543" data-name="Rectangle 543" width="2.43" height="5.781" fill="url(#linear-gradient-27)"></rect></g></g></g><path id="Path_3444" data-name="Path 3444" d="M76.495,187.546v4.385l-2.415-1.4V186.15Z" transform="translate(-18.175 -45.67)" fill="#322c8d"></path><g id="Group_2415" data-name="Group 2415" transform="translate(55.845 59.912)"><g id="Group_8351" data-name="Group 8351" clip-path="url(#clip-path-29)"><g id="Group_2414" data-name="Group 2414"><rect id="Rectangle_544" data-name="Rectangle 544" width="2.687" height="100.936" fill="url(#linear-gradient-28)"></rect></g></g></g><path id="Path_3446" data-name="Path 3446" d="M84.4,106.558v4.377L82,109.577V105.2Z" transform="translate(-20.118 -25.81)" fill="#322c8d"></path><path id="Path_3447" data-name="Path 3447" d="M84.415,99.446v4.385L82,102.435V98.05Z" transform="translate(-20.118 -24.056)" fill="#322c8d"></path><path id="Path_3448" data-name="Path 3448" d="M84.275,149.256v4.385l-2.415-1.4V147.86Z" transform="translate(-20.084 -36.276)" fill="#322c8d"></path><path id="Path_3449" data-name="Path 3449" d="M84.295,142.146v4.377l-2.415-1.4V140.75Z" transform="translate(-20.089 -34.532)" fill="#322c8d"></path><path id="Path_3450" data-name="Path 3450" d="M84.215,163.486v4.385L81.8,166.482V162.09Z" transform="translate(-20.069 -39.767)" fill="#322c8d"></path><path id="Path_3451" data-name="Path 3451" d="M84.215,156.373v4.385l-2.415-1.4V155Z" transform="translate(-20.069 -38.028)" fill="#322c8d"></path><g id="Group_2417" data-name="Group 2417" transform="translate(61.625 63.248)"><g id="Group_8352" data-name="Group 8352" clip-path="url(#clip-path-30)"><g id="Group_2416" data-name="Group 2416" transform="translate(0 0.008)"><rect id="Rectangle_545" data-name="Rectangle 545" width="2.687" height="100.936" fill="url(#linear-gradient-29)"></rect></g></g></g><g id="Group_2419" data-name="Group 2419" transform="translate(61.882 68.629)"><g id="Group_8353" data-name="Group 8353" clip-path="url(#clip-path-31)"><g id="Group_2418" data-name="Group 2418"><rect id="Rectangle_546" data-name="Rectangle 546" width="2.43" height="5.773" fill="url(#linear-gradient-30)"></rect></g></g></g><path id="Path_3454" data-name="Path 3454" d="M84.445,85.206v4.385L82,88.195V83.81Z" transform="translate(-20.118 -20.562)" fill="#322c8d"></path><path id="Path_3455" data-name="Path 3455" d="M84.375,113.676v4.385l-2.415-1.4V112.28Z" transform="translate(-20.108 -27.547)" fill="#322c8d"></path><g id="Group_2421" data-name="Group 2421" transform="translate(61.822 90.106)"><g id="Group_8354" data-name="Group 8354" clip-path="url(#clip-path-32)"><g id="Group_2420" data-name="Group 2420"><rect id="Rectangle_547" data-name="Rectangle 547" width="2.43" height="5.781" fill="url(#linear-gradient-31)"></rect></g></g></g><path id="Path_3457" data-name="Path 3457" d="M84.315,135.026v4.385l-2.415-1.4V133.63Z" transform="translate(-20.093 -32.785)" fill="#322c8d"></path><g id="Group_2423" data-name="Group 2423" transform="translate(61.807 95.472)"><g id="Group_8355" data-name="Group 8355" clip-path="url(#clip-path-33)"><g id="Group_2422" data-name="Group 2422"><rect id="Rectangle_548" data-name="Rectangle 548" width="2.43" height="5.781" fill="url(#linear-gradient-32)"></rect></g></g></g><path id="Path_3459" data-name="Path 3459" d="M84.1,206.186v4.385l-2.415-1.4V204.79Z" transform="translate(-20.042 -50.244)" fill="#322c8d"></path><path id="Path_3460" data-name="Path 3460" d="M84.135,199.066v4.385l-2.415-1.4V197.67Z" transform="translate(-20.049 -48.497)" fill="#322c8d"></path><path id="Path_3461" data-name="Path 3461" d="M84.145,191.956v4.377l-2.415-1.389V190.56Z" transform="translate(-20.052 -46.752)" fill="#322c8d"></path><path id="Path_3462" data-name="Path 3462" d="M84.215,184.839v4.385l-2.415-1.4V183.45Z" transform="translate(-20.069 -45.008)" fill="#322c8d"></path><path id="Path_3463" data-name="Path 3463" d="M84.215,177.721v4.4l-2.415-1.4V176.34Z" transform="translate(-20.069 -43.264)" fill="#322c8d"></path><path id="Path_3464" data-name="Path 3464" d="M84.21,170.6v4.385l-2.43-1.411V169.19Z" transform="translate(-20.064 -41.509)" fill="#322c8d"></path><path id="Path_3465" data-name="Path 3465" d="M91.8,196.376v4.385l-2.422-1.4V194.98Z" transform="translate(-21.929 -47.837)" fill="#322c8d"></path><g id="Group_2425" data-name="Group 2425" transform="translate(67.421 66.584)"><g id="Group_8356" data-name="Group 8356" clip-path="url(#clip-path-34)"><g id="Group_2424" data-name="Group 2424" transform="translate(-0.015)"><rect id="Rectangle_549" data-name="Rectangle 549" width="2.687" height="100.936" fill="url(#linear-gradient-33)"></rect></g></g></g><path id="Path_3467" data-name="Path 3467" d="M91.76,210.6v4.385l-2.43-1.411V209.19Z" transform="translate(-21.916 -51.323)" fill="#322c8d"></path><path id="Path_3468" data-name="Path 3468" d="M91.782,203.486v4.385l-2.422-1.4V202.09Z" transform="translate(-21.924 -49.581)" fill="#322c8d"></path><path id="Path_3469" data-name="Path 3469" d="M91.822,189.256v4.385l-2.422-1.4V187.86Z" transform="translate(-21.934 -46.09)" fill="#322c8d"></path><path id="Path_3470" data-name="Path 3470" d="M91.852,182.136v4.392l-2.422-1.4V180.74Z" transform="translate(-21.941 -44.343)" fill="#322c8d"></path><path id="Path_3471" data-name="Path 3471" d="M91.862,175.026v4.385l-2.422-1.4V173.63Z" transform="translate(-21.943 -42.599)" fill="#322c8d"></path><path id="Path_3472" data-name="Path 3472" d="M91.882,167.906v4.385l-2.422-1.4V166.51Z" transform="translate(-21.948 -40.852)" fill="#322c8d"></path><g id="Group_2427" data-name="Group 2427" transform="translate(67.519 120.293)"><g id="Group_8357" data-name="Group 8357" clip-path="url(#clip-path-35)"><g id="Group_2426" data-name="Group 2426"><rect id="Rectangle_550" data-name="Rectangle 550" width="2.43" height="5.781" fill="url(#linear-gradient-34)"></rect></g></g></g><path id="Path_3474" data-name="Path 3474" d="M91.972,139.446v4.385l-2.422-1.4V138.05Z" transform="translate(-21.97 -33.869)" fill="#322c8d"></path><path id="Path_3475" data-name="Path 3475" d="M91.992,132.326v4.385l-2.422-1.4V130.93Z" transform="translate(-21.975 -32.123)" fill="#322c8d"></path><path id="Path_3476" data-name="Path 3476" d="M92.092,96.754v4.377l-2.422-1.4V95.35Z" transform="translate(-22 -23.393)" fill="#322c8d"></path><path id="Path_3477" data-name="Path 3477" d="M92.108,89.624v4.385L89.67,92.575V88.19Z" transform="translate(-22 -21.637)" fill="#322c8d"></path><path id="Path_3478" data-name="Path 3478" d="M92.072,103.866v4.385l-2.422-1.4V102.47Z" transform="translate(-21.995 -25.14)" fill="#322c8d"></path><path id="Path_3479" data-name="Path 3479" d="M92.012,125.206v4.385l-2.422-1.4V123.81Z" transform="translate(-21.98 -30.376)" fill="#322c8d"></path><path id="Path_3480" data-name="Path 3480" d="M92.032,118.1v4.377l-2.422-1.4V116.7Z" transform="translate(-21.985 -28.631)" fill="#322c8d"></path><g id="Group_2429" data-name="Group 2429" transform="translate(67.625 82.695)"><g id="Group_8358" data-name="Group 8358" clip-path="url(#clip-path-36)"><g id="Group_2428" data-name="Group 2428" transform="translate(0 0.008)"><rect id="Rectangle_551" data-name="Rectangle 551" width="2.43" height="5.781" fill="url(#linear-gradient-35)"></rect></g></g></g><g id="Group_2431" data-name="Group 2431" transform="translate(67.557 109.554)"><g id="Group_8359" data-name="Group 8359" clip-path="url(#clip-path-37)"><g id="Group_2430" data-name="Group 2430" transform="translate(-0.008)"><rect id="Rectangle_552" data-name="Rectangle 552" width="2.43" height="5.781" fill="url(#linear-gradient-36)"></rect></g></g></g><path id="Path_3483" data-name="Path 3483" d="M91.922,153.679v4.385l-2.422-1.4V152.29Z" transform="translate(-21.958 -37.363)" fill="#322c8d"></path><path id="Path_3484" data-name="Path 3484" d="M108.7,145.45v4.377l-2.415,1.4v-4.377Z" transform="translate(-26.077 -35.685)" fill="#322c8d"></path><path id="Path_3485" data-name="Path 3485" d="M108.685,138.33v4.385l-2.415,1.4v-4.385Z" transform="translate(-26.072 -33.938)" fill="#322c8d"></path><path id="Path_3486" data-name="Path 3486" d="M108.725,152.56v4.385l-2.415,1.4v-4.385Z" transform="translate(-26.082 -37.429)" fill="#322c8d"></path><path id="Path_3487" data-name="Path 3487" d="M108.745,159.68v4.385l-2.415,1.4v-4.385Z" transform="translate(-26.087 -39.176)" fill="#322c8d"></path><path id="Path_3488" data-name="Path 3488" d="M108.845,195.26v4.377l-2.415,1.4v-4.377Z" transform="translate(-26.112 -47.905)" fill="#322c8d"></path><path id="Path_3489" data-name="Path 3489" d="M108.825,188.14v4.422l-2.415,1.4v-4.385Z" transform="translate(-26.107 -46.159)" fill="#fff"></path><path id="Path_3490" data-name="Path 3490" d="M108.8,181v4.377l-2.415,1.4V182.4Z" transform="translate(-26.102 -44.407)" fill="#322c8d"></path><path id="Path_3491" data-name="Path 3491" d="M108.775,173.91v4.385l-2.415,1.4v-4.385Z" transform="translate(-26.095 -42.667)" fill="#322c8d"></path><path id="Path_3492" data-name="Path 3492" d="M108.765,166.79v4.385l-2.415,1.4v-4.385Z" transform="translate(-26.092 -40.921)" fill="#322c8d"></path><g id="Group_2433" data-name="Group 2433" transform="translate(80.084 68.198)"><g id="Group_8360" data-name="Group 8360" clip-path="url(#clip-path-38)"><g id="Group_2432" data-name="Group 2432"><rect id="Rectangle_553" data-name="Rectangle 553" width="2.702" height="99.532" fill="url(#linear-gradient-37)"></rect></g></g></g><path id="Path_3494" data-name="Path 3494" d="M108.885,209.49v4.385l-2.415,1.389v-4.385Z" transform="translate(-26.122 -51.397)" fill="#322c8d"></path><path id="Path_3495" data-name="Path 3495" d="M108.865,202.37v4.385l-2.415,1.4v-4.385Z" transform="translate(-26.117 -49.65)" fill="#322c8d"></path><path id="Path_3496" data-name="Path 3496" d="M108.665,131.22v4.362l-2.415,1.4v-4.385Z" transform="translate(-26.068 -32.194)" fill="#322c8d"></path><path id="Path_3497" data-name="Path 3497" d="M108.645,124.1v4.385l-2.415,1.4v-4.392Z" transform="translate(-26.063 -30.447)" fill="#322c8d"></path><path id="Path_3498" data-name="Path 3498" d="M108.615,117v4.385l-2.415,1.4V118.4Z" transform="translate(-26.055 -28.705)" fill="#322c8d"></path><path id="Path_3499" data-name="Path 3499" d="M108.575,102.75v4.385l-2.415,1.389v-4.377Z" transform="translate(-26.045 -25.209)" fill="#322c8d"></path><path id="Path_3500" data-name="Path 3500" d="M108.555,95.64v4.377l-2.415,1.4V97.029Z" transform="translate(-26.041 -23.464)" fill="#322c8d"></path><path id="Path_3501" data-name="Path 3501" d="M108.535,88.52V92.9l-2.415,1.389V89.916Z" transform="translate(-26.036 -21.718)" fill="#322c8d"></path><path id="Path_3502" data-name="Path 3502" d="M108.595,109.86v4.385l-2.415,1.4v-4.385Z" transform="translate(-26.05 -26.953)" fill="#fff"></path><path id="Path_3503" data-name="Path 3503" d="M116.212,84.1v4.377l-2.422,1.4V85.534Z" transform="translate(-27.917 -20.633)" fill="#fff"></path><path id="Path_3504" data-name="Path 3504" d="M116.475,183.72V188.1l-2.415,1.4v-4.385Z" transform="translate(-27.984 -45.074)" fill="#322c8d"></path><path id="Path_3505" data-name="Path 3505" d="M116.455,176.61v4.377l-2.415,1.4v-4.385Z" transform="translate(-27.979 -43.33)" fill="#322c8d"></path><path id="Path_3506" data-name="Path 3506" d="M116.43,169.49v4.385l-2.43,1.4v-4.385Z" transform="translate(-27.969 -41.583)" fill="#322c8d"></path><path id="Path_3507" data-name="Path 3507" d="M116.415,162.37v4.385L114,168.128v-4.385Z" transform="translate(-27.969 -39.836)" fill="#322c8d"></path><path id="Path_3508" data-name="Path 3508" d="M116.4,155.26v4.385l-2.4,1.4v-4.385Z" transform="translate(-27.969 -38.092)" fill="#322c8d"></path><path id="Path_3509" data-name="Path 3509" d="M116.492,190.84v4.377l-2.422,1.4v-4.377Z" transform="translate(-27.986 -46.821)" fill="#322c8d"></path><g id="Group_2435" data-name="Group 2435" transform="translate(85.865 64.863)"><g id="Group_8361" data-name="Group 8361" clip-path="url(#clip-path-39)"><g id="Group_2434" data-name="Group 2434"><rect id="Rectangle_554" data-name="Rectangle 554" width="2.702" height="99.539" fill="url(#linear-gradient-38)"></rect></g></g></g><path id="Path_3511" data-name="Path 3511" d="M116.545,205.07v4.385l-2.415,1.4v-4.385Z" transform="translate(-28.001 -50.312)" fill="#322c8d"></path><path id="Path_3512" data-name="Path 3512" d="M116.525,198v4.385l-2.415,1.4V199.4Z" transform="translate(-27.996 -48.578)" fill="#322c8d"></path><path id="Path_3513" data-name="Path 3513" d="M116.385,148.14v4.385l-2.385,1.4v-4.377Z" transform="translate(-27.969 -36.345)" fill="#322c8d"></path><path id="Path_3514" data-name="Path 3514" d="M116.37,141v4.385L114,146.8v-4.377Z" transform="translate(-27.969 -34.593)" fill="#322c8d"></path><path id="Path_3515" data-name="Path 3515" d="M116.332,133.91v4.385l-2.422,1.4v-4.385Z" transform="translate(-27.947 -32.854)" fill="#322c8d"></path><path id="Path_3516" data-name="Path 3516" d="M116.312,126.79v4.385l-2.422,1.4v-4.377Z" transform="translate(-27.942 -31.107)" fill="#fff"></path><path id="Path_3517" data-name="Path 3517" d="M116.292,119.67v4.392l-2.422,1.4v-4.385Z" transform="translate(-27.937 -29.36)" fill="#322c8d"></path><path id="Path_3518" data-name="Path 3518" d="M116.272,112.56v4.385l-2.422,1.4v-4.385Z" transform="translate(-27.932 -27.616)" fill="#322c8d"></path><path id="Path_3519" data-name="Path 3519" d="M116.212,105.44v4.385l-2.422,1.4v-4.385Z" transform="translate(-27.917 -25.869)" fill="#322c8d"></path><path id="Path_3520" data-name="Path 3520" d="M116.222,98.33v4.377l-2.392,1.411V99.734Z" transform="translate(-27.927 -24.124)" fill="#322c8d"></path><path id="Path_3521" data-name="Path 3521" d="M116.212,91.21v4.369l-2.422,1.4V92.606Z" transform="translate(-27.917 -22.378)" fill="#322c8d"></path><path id="Path_3522" data-name="Path 3522" d="M123.895,93.91v4.385l-2.415,1.389V95.306Z" transform="translate(-29.804 -23.04)" fill="#322c8d"></path><path id="Path_3523" data-name="Path 3523" d="M123.875,86.79v4.385l-2.415,1.4V88.186Z" transform="translate(-29.799 -21.293)" fill="#322c8d"></path><path id="Path_3524" data-name="Path 3524" d="M124.015,136.61v4.377l-2.415,1.4V138Z" transform="translate(-29.834 -33.516)" fill="#322c8d"></path><path id="Path_3525" data-name="Path 3525" d="M123.995,129.49v4.385l-2.415,1.4v-4.385Z" transform="translate(-29.829 -31.769)" fill="#322c8d"></path><path id="Path_3526" data-name="Path 3526" d="M123.975,122.37v4.385l-2.415,1.4v-4.385Z" transform="translate(-29.824 -30.022)" fill="#322c8d"></path><path id="Path_3527" data-name="Path 3527" d="M123.955,115.26v4.385l-2.415,1.389v-4.385Z" transform="translate(-29.819 -28.278)" fill="#322c8d"></path><path id="Path_3528" data-name="Path 3528" d="M123.935,108.14v4.422l-2.415,1.4v-4.385Z" transform="translate(-29.814 -26.531)" fill="#322c8d"></path><path id="Path_3529" data-name="Path 3529" d="M123.915,101v4.377l-2.415,1.4V102.4Z" transform="translate(-29.809 -24.78)" fill="#322c8d"></path><path id="Path_3530" data-name="Path 3530" d="M124.055,150.84v4.385l-2.415,1.4v-4.392Z" transform="translate(-29.843 -37.007)" fill="#322c8d"></path><path id="Path_3531" data-name="Path 3531" d="M124.032,143.72V148.1l-2.422,1.4v-4.385Z" transform="translate(-29.836 -35.26)" fill="#322c8d"></path><path id="Path_3532" data-name="Path 3532" d="M124.152,186.42V190.8l-2.422,1.4v-4.385Z" transform="translate(-29.865 -45.737)" fill="#322c8d"></path><path id="Path_3533" data-name="Path 3533" d="M124.137,179.3v4.385l-2.407,1.426v-4.385Z" transform="translate(-29.865 -43.99)" fill="#322c8d"></path><path id="Path_3534" data-name="Path 3534" d="M124.212,200.65v4.385l-2.422,1.4v-4.385Z" transform="translate(-29.88 -49.228)" fill="#322c8d"></path><path id="Path_3535" data-name="Path 3535" d="M124.115,172.19v4.385l-2.415,1.4v-4.415Z" transform="translate(-29.858 -42.245)" fill="#322c8d"></path><g id="Group_2437" data-name="Group 2437" transform="translate(91.638 61.527)"><g id="Group_8362" data-name="Group 8362" clip-path="url(#clip-path-40)"><g id="Group_2436" data-name="Group 2436"><rect id="Rectangle_555" data-name="Rectangle 555" width="2.702" height="99.532" fill="url(#linear-gradient-39)"></rect></g></g></g><path id="Path_3537" data-name="Path 3537" d="M124.095,165.07v4.385l-2.415,1.4v-4.385Z" transform="translate(-29.853 -40.499)" fill="#fff"></path><path id="Path_3538" data-name="Path 3538" d="M124.075,158v4.385l-2.415,1.4v-4.422Z" transform="translate(-29.848 -38.764)" fill="#322c8d"></path><path id="Path_3539" data-name="Path 3539" d="M123.855,79.68v4.385l-2.415,1.389V81.076Z" transform="translate(-29.794 -19.549)" fill="#322c8d"></path><path id="Path_3540" data-name="Path 3540" d="M124.212,193.53v4.385l-2.422,1.4v-4.385Z" transform="translate(-29.88 -47.481)" fill="#322c8d"></path><path id="Path_3541" data-name="Path 3541" d="M131.695,139.3v4.385l-2.415,1.4V140.7Z" transform="translate(-31.718 -34.176)" fill="#322c8d"></path><path id="Path_3542" data-name="Path 3542" d="M131.855,196.23v4.354l-2.415,1.4V197.6Z" transform="translate(-31.757 -48.143)" fill="#322c8d"></path><path id="Path_3543" data-name="Path 3543" d="M131.815,182v4.377l-2.415,1.4V183.4Z" transform="translate(-31.747 -44.652)" fill="#322c8d"></path><path id="Path_3544" data-name="Path 3544" d="M131.792,174.88v4.385l-2.422,1.4v-4.385Z" transform="translate(-31.74 -42.905)" fill="#322c8d"></path><path id="Path_3545" data-name="Path 3545" d="M131.775,167.77v4.377l-2.415,1.4v-4.377Z" transform="translate(-31.737 -41.161)" fill="#322c8d"></path><g id="Group_2439" data-name="Group 2439" transform="translate(97.419 58.192)"><g id="Group_8363" data-name="Group 8363" clip-path="url(#clip-path-41)"><g id="Group_2438" data-name="Group 2438"><rect id="Rectangle_556" data-name="Rectangle 556" width="2.702" height="99.532" fill="url(#linear-gradient-40)"></rect></g></g></g><path id="Path_3547" data-name="Path 3547" d="M131.735,153.53v4.385l-2.415,1.4v-4.385Z" transform="translate(-31.728 -37.667)" fill="#322c8d"></path><path id="Path_3548" data-name="Path 3548" d="M131.715,146.41V150.8l-2.415,1.4v-4.385Z" transform="translate(-31.723 -35.92)" fill="#322c8d"></path><path id="Path_3549" data-name="Path 3549" d="M131.572,96.6v4.385l-2.422,1.4V98Z" transform="translate(-31.686 -23.7)" fill="#322c8d"></path><path id="Path_3550" data-name="Path 3550" d="M131.545,89.49v4.377l-2.415,1.4V90.886Z" transform="translate(-31.681 -21.956)" fill="#fff"></path><path id="Path_3551" data-name="Path 3551" d="M131.527,82.37v4.385l-2.407,1.373V83.743Z" transform="translate(-31.679 -20.209)" fill="#322c8d"></path><path id="Path_3552" data-name="Path 3552" d="M131.512,75.26v4.377l-2.422,1.4V76.656Z" transform="translate(-31.671 -18.464)" fill="#322c8d"></path><path id="Path_3553" data-name="Path 3553" d="M131.615,110.83v4.385l-2.415,1.4v-4.385Z" transform="translate(-31.698 -27.191)" fill="#322c8d"></path><path id="Path_3554" data-name="Path 3554" d="M131.582,103.72V108.1l-2.422,1.4v-4.385Z" transform="translate(-31.688 -25.447)" fill="#322c8d"></path><path id="Path_3555" data-name="Path 3555" d="M131.662,132.18v4.385l-2.422,1.4v-4.407Z" transform="translate(-31.708 -32.429)" fill="#322c8d"></path><path id="Path_3556" data-name="Path 3556" d="M131.655,125.07v4.385l-2.415,1.4v-4.385Z" transform="translate(-31.708 -30.685)" fill="#322c8d"></path><path id="Path_3557" data-name="Path 3557" d="M131.632,118v4.385l-2.422,1.4V119.4Z" transform="translate(-31.701 -28.95)" fill="#322c8d"></path><path id="Path_3558" data-name="Path 3558" d="M131.755,160.65v4.385l-2.415,1.4v-4.385Z" transform="translate(-31.732 -39.414)" fill="#322c8d"></path><path id="Path_3559" data-name="Path 3559" d="M131.835,189.11v4.385l-2.415,1.4v-4.385Z" transform="translate(-31.752 -46.397)" fill="#322c8d"></path><path id="Path_3560" data-name="Path 3560" d="M121.277,50.73V60L99.52,72.615v-9.26Z" transform="translate(-24.416 -12.446)" fill="#cbd3fa"></path><path id="Path_3561" data-name="Path 3561" d="M92.44,63.355v9.26L70.54,59.99V50.73Z" transform="translate(-17.306 -12.446)" fill="#423bb4"></path><path id="Path_3562" data-name="Path 3562" d="M114.172,46.625,92.445,59.251,70.56,46.625,92.3,34Z" transform="translate(-17.311 -8.342)" fill="#6b67ec"></path><path id="Path_3563" data-name="Path 3563" d="M117.448,44v4.634L99.51,59.093V54.46Z" transform="translate(-24.414 -10.795)" fill="#cbd3fa"></path><path id="Path_3564" data-name="Path 3564" d="M93.661,54.424V59.1L75.61,48.644V44.01Z" transform="translate(-18.55 -10.797)" fill="#423bb4"></path><path id="Path_3565" data-name="Path 3565" d="M111.589,40.614,93.666,51.029,75.63,40.614,93.553,30.2Z" transform="translate(-18.555 -7.409)" fill="#6b67ec"></path><path id="Path_3566" data-name="Path 3566" d="M94.944,33.232V3.8L80.9,34.137l14.037,8.128Z" transform="translate(-19.848 -0.932)" fill="#6b67ec"></path><path id="Path_3567" data-name="Path 3567" d="M99.51,3.79l13.954,30.345L99.51,42.262Z" transform="translate(-24.414 -0.93)" fill="#cbd3fa"></path><path id="Path_3568" data-name="Path 3568" d="M61,212.258l28.971,16.723v-8.875L61,203.61Z" transform="translate(-14.966 -49.954)" fill="#6b67ec"></path><path id="Path_3569" data-name="Path 3569" d="M128.185,203.73,99.38,220.136v8.875l28.783-16.723Z" transform="translate(-24.382 -49.983)" fill="#cbd3fa"></path><path id="Path_3570" data-name="Path 3570" d="M130.075,254.158l33.2,19.312-.045-14.618-33.2-19.312Z" transform="translate(-31.902 -58.769)" fill="#322c8d"></path><path id="Path_3571" data-name="Path 3571" d="M174.08,258.852l.045,14.618,33.446-19.312-.038-14.618Z" transform="translate(-42.709 -58.769)" fill="#cbd3fa"></path><path id="Path_3572" data-name="Path 3572" d="M130,233.262l33.2,19.312,33.446-19.312-33.2-19.312Z" transform="translate(-31.894 -52.491)" fill="#6b67ec"></path><path id="Path_3573" data-name="Path 3573" d="M199,257.8v7.735l10.9-6.294V251.51Z" transform="translate(-48.823 -61.706)" fill="#6b67ec"></path><path id="Path_3574" data-name="Path 3574" d="M181.31,268.034v7.743l10.927-6.294V261.74Z" transform="translate(-44.483 -64.216)" fill="#6b67ec"></path><path id="Path_3575" data-name="Path 3575" d="M136.7,96.06l.038,108.724,28.224,16.4V112.466Z" transform="translate(-33.538 -23.568)" fill="#322c8d"></path><path id="Path_3576" data-name="Path 3576" d="M174.11,112.466V221.19l28.413-16.406L202.485,96.06Z" transform="translate(-42.716 -23.568)" fill="#cbd3fa"></path><path id="Path_3577" data-name="Path 3577" d="M136.7,90.729l28.232,16.406,28.405-16.406-28.224-16.4Z" transform="translate(-33.538 -18.236)" fill="#6b67ec"></path><path id="Path_3578" data-name="Path 3578" d="M200.46,108.289l3.268-1.879.128,101.5-3.268,1.887Z" transform="translate(-49.181 -26.107)" fill="#6b67ec"></path><path id="Path_3579" data-name="Path 3579" d="M191.58,113.387l3.268-1.887.128,101.5-3.268,1.887Z" transform="translate(-47.003 -27.356)" fill="#6b67ec"></path><path id="Path_3580" data-name="Path 3580" d="M182.7,118.547l3.26-1.887.128,101.509-3.268,1.887Z" transform="translate(-44.824 -28.622)" fill="#6b67ec"></path><path id="Path_3581" data-name="Path 3581" d="M192.61,94.36v2.468l5.335,3.1V97.462Z" transform="translate(-47.255 -23.15)" fill="#322c8d"></path><path id="Path_3582" data-name="Path 3582" d="M199.68,97.454v2.475l5.366-3.1V94.36Z" transform="translate(-48.99 -23.15)" fill="#6b67ec"></path><path id="Path_3583" data-name="Path 3583" d="M192.61,93.352l5.335,3.1,5.373-3.1-5.335-3.1Z" transform="translate(-47.255 -22.142)" fill="#6b67ec"></path><path id="Path_3584" data-name="Path 3584" d="M197,91.14v2.468l2.038,1.2V92.325Z" transform="translate(-48.332 -22.36)" fill="#322c8d"></path><path id="Path_3585" data-name="Path 3585" d="M199.69,92.317v2.49l2.053-1.185V91.14Z" transform="translate(-48.992 -22.36)" fill="#6b67ec"></path><g id="Group_2441" data-name="Group 2441" transform="translate(148.668 67.595)"><g id="Group_8364" data-name="Group 8364" clip-path="url(#clip-path-42)"><g id="Group_2440" data-name="Group 2440"><rect id="Rectangle_557" data-name="Rectangle 557" width="4.083" height="2.362" fill="url(#linear-gradient-41)"></rect></g></g></g><path id="Path_3587" data-name="Path 3587" d="M167.58,80.47v2.468l5.335,3.1V83.572Z" transform="translate(-41.114 -19.743)" fill="#322c8d"></path><path id="Path_3588" data-name="Path 3588" d="M174.65,83.574v2.468l5.366-3.094V80.48Z" transform="translate(-42.849 -19.745)" fill="#6b67ec"></path><path id="Path_3589" data-name="Path 3589" d="M167.58,79.464l5.335,3.1,5.366-3.1-5.335-3.094Z" transform="translate(-41.114 -18.737)" fill="#6b67ec"></path><path id="Path_3590" data-name="Path 3590" d="M172,77.25v2.475l2.038,1.177V78.435Z" transform="translate(-42.199 -18.953)" fill="#322c8d"></path><path id="Path_3591" data-name="Path 3591" d="M174.66,78.435V80.9l2.045-1.177V77.25Z" transform="translate(-42.851 -18.953)" fill="#6b67ec"></path><g id="Group_2443" data-name="Group 2443" transform="translate(129.771 57.12)"><g id="Group_8365" data-name="Group 8365" clip-path="url(#clip-path-43)"><g id="Group_2442" data-name="Group 2442"><rect id="Rectangle_558" data-name="Rectangle 558" width="4.083" height="2.362" fill="url(#linear-gradient-42)"></rect></g></g></g><path id="Path_3593" data-name="Path 3593" d="M148.56,97.47v1.577l19.795,11.5v-1.577Z" transform="translate(-36.448 -23.913)" fill="#322c8d"></path><path id="Path_3594" data-name="Path 3594" d="M174.79,111.135v1.577l8.4-4.845V106.29Z" transform="translate(-42.883 -26.077)" fill="#6b67ec"></path><path id="Path_3595" data-name="Path 3595" d="M148.56,95.895l19.795,11.5,8.392-4.845-19.795-11.5Z" transform="translate(-36.448 -22.338)" fill="#cbd3fa"></path><g id="Group_2445" data-name="Group 2445" transform="translate(46.027 0.377)"><g id="Group_8366" data-name="Group 8366" clip-path="url(#clip-path-44)"><g id="Group_2444" data-name="Group 2444" transform="translate(90.853 58.084)"><path id="Path_3596" data-name="Path 3596" d="M197.49,86.84V88.4a.2.2,0,0,0,.106.158.657.657,0,0,0,.558,0,.2.2,0,0,0,.113-.158V86.84a.2.2,0,0,1-.113.158.6.6,0,0,1-.551,0,.2.2,0,0,1-.113-.158" transform="translate(-185.332 -79.767)" fill="#6b67ec"></path><path id="Path_3597" data-name="Path 3597" d="M197.612,86.608a.166.166,0,0,0,0,.317.641.641,0,0,0,.551,0c.151-.091.151-.226,0-.317a.574.574,0,0,0-.543,0" transform="translate(-185.334 -79.693)" fill="#6b67ec"></path><path id="Path_3598" data-name="Path 3598" d="M181.38,77.768V79.33a.181.181,0,0,0,.113.151.6.6,0,0,0,.551,0,.2.2,0,0,0,.113-.158V77.76a.2.2,0,0,1-.113.166.642.642,0,0,1-.551,0,.2.2,0,0,1-.113-.158" transform="translate(-181.38 -77.54)" fill="#6b67ec"></path><path id="Path_3599" data-name="Path 3599" d="M181.5,77.53c-.151.091-.158.234,0,.317a.6.6,0,0,0,.551,0c.151-.083.151-.226,0-.317a.626.626,0,0,0-.543,0" transform="translate(-181.382 -77.468)" fill="#6b67ec"></path></g></g></g><path id="Path_3600" data-name="Path 3600" d="M202.44,83.218V88.3l.9-.521V82.69Z" transform="translate(-49.667 -20.287)" fill="#6b67ec"></path><g id="Group_2447" data-name="Group 2447" transform="translate(134.737 51.996)"><g id="Group_8367" data-name="Group 8367" clip-path="url(#clip-path-45)"><g id="Group_2446" data-name="Group 2446" transform="translate(0.008)"><rect id="Rectangle_560" data-name="Rectangle 560" width="18.927" height="10.935" fill="url(#linear-gradient-43)"></rect></g></g></g><path id="Path_3602" data-name="Path 3602" d="M178.54,69.59v5.086l18.029,10.407V80Z" transform="translate(-43.803 -17.073)" fill="#322c8d"></path></g></svg>