<svg xmlns="http://www.w3.org/2000/svg" xmlns:xlink="http://www.w3.org/1999/xlink" width="285" height="285" viewBox="0 0 285 285"><defs><style>      .cls-1 {        fill: none;      }      .cls-2 {        clip-path: url(#clip-path);      }      .cls-3 {        fill: #423bb4;      }      .cls-4 {        fill: #7f7cf9;      }      .cls-5 {        fill: #5752d0;      }      .cls-6 {        fill: #1d1273;      }      .cls-7 {        fill: #5d6bb1;      }      .cls-8 {        fill: #d8e1f2;      }      .cls-9 {        fill: #6f7cbb;      }      .cls-10 {        fill: #fcb614;      }      .cls-11 {        fill: #f48020;      }      .cls-12 {        clip-path: url(#clip-path-2);      }      .cls-13 {        fill: #c4daf1;      }      .cls-14 {        clip-path: url(#clip-path-3);      }      .cls-15 {        clip-path: url(#clip-path-5);      }      .cls-16 {        clip-path: url(#clip-path-7);      }      .cls-17 {        clip-path: url(#clip-path-9);      }      .cls-18 {        clip-path: url(#clip-path-11);      }      .cls-19 {        clip-path: url(#clip-path-13);      }      .cls-20 {        clip-path: url(#clip-path-15);      }      .cls-21 {        clip-path: url(#clip-path-17);      }      .cls-22 {        clip-path: url(#clip-path-19);      }      .cls-23 {        clip-path: url(#clip-path-21);      }      .cls-24 {        clip-path: url(#clip-path-23);      }      .cls-25 {        clip-path: url(#clip-path-25);      }      .cls-26 {        fill: #7e9dd1;      }      .cls-27 {        fill: #90bfe6;      }      .cls-28 {        fill: #eef8fd;      }      .cls-29 {        opacity: 0.7;      }      .cls-30 {        opacity: 0;      }      .cls-31 {        fill: #fff;      }      .cls-32 {        opacity: 0.05;      }      .cls-33 {        fill: #f7f8fb;      }      .cls-34 {        opacity: 0.09;      }      .cls-35 {        fill: #f0f1f8;      }      .cls-36 {        opacity: 0.14;      }      .cls-37 {        fill: #e8eaf4;      }      .cls-38 {        opacity: 0.19;      }      .cls-39 {        fill: #e0e3f0;      }      .cls-40 {        opacity: 0.24;      }      .cls-41 {        fill: #d8dcec;      }      .cls-42 {        opacity: 0.29;      }      .cls-43 {        fill: #d1d5e9;      }      .cls-44 {        opacity: 0.33;      }      .cls-45 {        fill: #c9cee5;      }      .cls-46 {        opacity: 0.38;      }      .cls-47 {        fill: #c1c7e1;      }      .cls-48 {        opacity: 0.43;      }      .cls-49 {        fill: #bac0de;      }      .cls-50 {        opacity: 0.48;      }      .cls-51 {        fill: #b2b9da;      }      .cls-52 {        opacity: 0.52;      }      .cls-53 {        fill: #aab1d6;      }      .cls-54 {        opacity: 0.57;      }      .cls-55 {        fill: #a2aad2;      }      .cls-56 {        opacity: 0.62;      }      .cls-57 {        fill: #9ba3cf;      }      .cls-58 {        opacity: 0.67;      }      .cls-59 {        fill: #939ccb;      }      .cls-60 {        opacity: 0.71;      }      .cls-61 {        fill: #8b95c7;      }      .cls-62 {        opacity: 0.76;      }      .cls-63 {        fill: #848ec4;      }      .cls-64 {        opacity: 0.81;      }      .cls-65 {        fill: #7c87c0;      }      .cls-66 {        opacity: 0.86;      }      .cls-67 {        fill: #7480bc;      }      .cls-68 {        opacity: 0.9;      }      .cls-69 {        fill: #6c79b8;      }      .cls-70 {        opacity: 0.95;      }      .cls-71 {        fill: #6572b5;      }      .cls-72 {        clip-path: url(#clip-path-26);      }      .cls-73 {        fill: #d38444;      }      .cls-74 {        fill: #fd7722;      }      .cls-75 {        fill: #ffc82e;      }      .cls-76 {        fill: #f78d03;      }      .cls-77 {        fill: #9b928a;      }      .cls-78 {        fill: #ffd469;      }      .cls-79 {        fill: #ced0db;      }      .cls-80 {        fill: #e3e5f1;      }      .cls-81 {        fill: #b8bac4;      }    </style><clipPath id="clip-path"><rect id="Rectangle_3121" data-name="Rectangle 3121" class="cls-1" width="285" height="285"></rect></clipPath><clipPath id="clip-path-2"><rect id="Rectangle_3108" data-name="Rectangle 3108" class="cls-1" width="178.84" height="180.72" transform="translate(0 18.09)"></rect></clipPath><clipPath id="clip-path-3"><path id="Path_13120" data-name="Path 13120" class="cls-1" d="M135.54,129.27v.69l23.11-13.35v-.69Z"></path></clipPath><clipPath id="clip-path-5"><path id="Path_13121" data-name="Path 13121" class="cls-1" d="M135.54,132.06v.68l23.11-13.34v-.69Z"></path></clipPath><clipPath id="clip-path-7"><path id="Path_13122" data-name="Path 13122" class="cls-1" d="M135.54,134.84v.69l23.11-13.35v-.68Z"></path></clipPath><clipPath id="clip-path-9"><path id="Path_13123" data-name="Path 13123" class="cls-1" d="M135.54,137.63v.68l23.11-13.34v-.69Z"></path></clipPath><clipPath id="clip-path-11"><path id="Path_13124" data-name="Path 13124" class="cls-1" d="M135.54,145.46v.69l23.11-13.34v-.69Z"></path></clipPath><clipPath id="clip-path-13"><path id="Path_13125" data-name="Path 13125" class="cls-1" d="M135.54,148.25v.69l23.11-13.35v-.68Z"></path></clipPath><clipPath id="clip-path-15"><path id="Path_13126" data-name="Path 13126" class="cls-1" d="M135.54,151.03v.69l23.11-13.34v-.69Z"></path></clipPath><clipPath id="clip-path-17"><path id="Path_13127" data-name="Path 13127" class="cls-1" d="M135.54,153.82v.69l23.11-13.35v-.69Z"></path></clipPath><clipPath id="clip-path-19"><path id="Path_13128" data-name="Path 13128" class="cls-1" d="M135.12,112.13v.69l23.11-13.35v-.69Z"></path></clipPath><clipPath id="clip-path-21"><path id="Path_13129" data-name="Path 13129" class="cls-1" d="M135.12,114.92v.68l23.11-13.35v-.68Z"></path></clipPath><clipPath id="clip-path-23"><path id="Path_13130" data-name="Path 13130" class="cls-1" d="M135.12,117.7v.69l23.11-13.35v-.69Z"></path></clipPath><clipPath id="clip-path-25"><path id="Path_13131" data-name="Path 13131" class="cls-1" d="M135.12,120.48v.7l23.11-13.35v-.69Z"></path></clipPath><clipPath id="clip-path-26"><rect id="Rectangle_3120" data-name="Rectangle 3120" class="cls-1" width="153.87" height="188.37" transform="translate(131.13 78.55)"></rect></clipPath></defs><g id="how_icons-05" data-name="how icons-05" class="cls-2"><g id="Group_7432" data-name="Group 7432"><g id="Group_7432-2" data-name="Group 7432-2"><g id="Group_7429" data-name="Group 7429"><g id="Group_7425" data-name="Group 7425"><path id="Path_12787" data-name="Path 12787" class="cls-3" d="M39.07,49.39l.31,79L93,96.36,90.88,18.18Z"></path><path id="Path_12788" data-name="Path 12788" class="cls-4" d="M41.51,126.38l83.18,46.54,53.93-32.73L90.4,91.32Z"></path><path id="Path_12789" data-name="Path 12789" class="cls-5" d="M90.76,92l87.71,48.9.13-73.86L90.88,18.17Z"></path><path id="Path_12790" data-name="Path 12790" class="cls-3" d="M25.7,156.23l-1.57-.91,20.58-35,1.9.57Z"></path><path id="Path_12791" data-name="Path 12791" class="cls-3" d="M46.61,120.85l-1.9-.56,3.8-2.19,1.9.56Z"></path><path id="Path_12792" data-name="Path 12792" class="cls-6" d="M50.41,118.66,27.68,155.82l-2,.41,20.91-35.38Z"></path><path id="Path_12793" data-name="Path 12793" class="cls-3" d="M24.56,165.34l-2.8-1.58L21.6,138l2.81,1.59Z"></path><path id="Path_12794" data-name="Path 12794" class="cls-3" d="M24.41,139.59,21.6,138l3-1.71,2.81,1.59Z"></path><path id="Path_12795" data-name="Path 12795" class="cls-6" d="M27.37,137.89l.15,25.75-3,1.7-.15-25.75Z"></path><path id="Path_12796" data-name="Path 12796" class="cls-3" d="M123.22,163.86l1.57-.91-20.59-35-1.89.57Z"></path><path id="Path_12797" data-name="Path 12797" class="cls-3" d="M102.31,128.49l1.9-.57-3.8-2.19-1.9.57Z"></path><path id="Path_12798" data-name="Path 12798" class="cls-6" d="M98.51,126.3l22.73,37.15,2,.42-20.91-35.38Z"></path><path id="Path_12799" data-name="Path 12799" class="cls-3" d="M124.36,173l2.8-1.59.15-25.75-2.8,1.59Z"></path><path id="Path_12800" data-name="Path 12800" class="cls-3" d="M124.51,147.23l2.81-1.59-3-1.7-2.8,1.59Z"></path><path id="Path_12801" data-name="Path 12801" class="cls-6" d="M121.55,145.52l-.15,25.75,3,1.71.15-25.75Z"></path><path id="Path_12802" data-name="Path 12802" class="cls-3" d="M84,189.7l1.58-.92L65,153.75l-1.9.57Z"></path><path id="Path_12803" data-name="Path 12803" class="cls-3" d="M63.06,154.32l1.9-.57-3.8-2.19-1.9.57Z"></path><path id="Path_12804" data-name="Path 12804" class="cls-6" d="M59.27,152.13,82,189.28l2,.42L63.06,154.32Z"></path><path id="Path_12805" data-name="Path 12805" class="cls-3" d="M85.27,173.06l-.16,25.75,2.81-1.58.15-25.75Z"></path><path id="Path_12806" data-name="Path 12806" class="cls-3" d="M85.26,173.06l2.81-1.59-3-1.7-2.8,1.58Z"></path><path id="Path_12807" data-name="Path 12807" class="cls-6" d="M82.16,197.1l3,1.71.15-25.75-3-1.71Z"></path><path id="Path_12808" data-name="Path 12808" class="cls-3" d="M134.53,151.59l1.57-.92.2-69.3-1.57.92Z"></path><path id="Path_12809" data-name="Path 12809" class="cls-3" d="M134.72,82.29l1.58-.92-3.8-2.19-1.58.92Z"></path><path id="Path_12810" data-name="Path 12810" class="cls-6" d="M130.93,80.1l-.2,69.3,3.79,2.19.2-69.3Z"></path><path id="Path_12811" data-name="Path 12811" class="cls-3" d="M64.9,118.44l1.58-.91.2-79.43L65.1,39Z"></path><path id="Path_12812" data-name="Path 12812" class="cls-3" d="M65.1,39l1.57-.91-3.8-2.19-1.57.91Z"></path><path id="Path_12813" data-name="Path 12813" class="cls-6" d="M61.3,36.83l-.2,79.42,3.8,2.2L65.1,39Z"></path><path id="Path_12814" data-name="Path 12814" class="cls-3" d="M136.14,145.59v6L91,177.83v-6Z"></path><path id="Path_12815" data-name="Path 12815" class="cls-6" d="M91,171.85v6L16,134.53v-6Z"></path><path id="Path_12816" data-name="Path 12816" class="cls-4" d="M136.14,145.59,91,171.85,16,128.53l45.18-26.26Z"></path><path id="Path_12817" data-name="Path 12817" class="cls-3" d="M132.64,128.49l-1.57-.92L93.88,86l1.9.57Z"></path><path id="Path_12818" data-name="Path 12818" class="cls-3" d="M95.78,86.55,93.89,86l3.79-2.19,1.9.56Z"></path><path id="Path_12819" data-name="Path 12819" class="cls-6" d="M99.58,84.36l33.08,38.79v5.34L95.78,86.54Z"></path><path id="Path_12820" data-name="Path 12820" class="cls-7" d="M66.16,74.56l-27.78-16-.12,42.93L66,117.5l.13-42.94m29.42,17L67.4,75.28l-.12,42.94,28.19,16.27.12-42.93m29.33,16.93L96.81,92.26l-.12,42.94,28.11,16.23.12-42.93"></path><path id="Path_12821" data-name="Path 12821" class="cls-8" d="M67.4,73.51l-27.79-16-.12,42.94,27.79,16,.12-42.94m29.42,17L68.63,74.22l-.12,42.94,28.2,16.27.12-42.93m29.32,16.93L98,91.21l-.12,42.93L126,150.37l.12-42.93"></path><path id="Path_12822" data-name="Path 12822" class="cls-9" d="M38.25,101.45l.12-42.93,27.79,16L66,117.5l-27.79-16m29,16.76.12-42.93L95.59,91.55l-.12,42.94L67.28,118.21m29.41,17,.13-42.94,28.1,16.23-.12,42.93L96.69,135.19m29.47-27.4-89-51.39L37,102.16l89,51.4.13-45.76"></path><path id="Path_12823" data-name="Path 12823" class="cls-10" d="M84.8,133.84,83.38,137,125,108.82V98.26Z"></path><path id="Path_12824" data-name="Path 12824" class="cls-11" d="M75.38,128.34l9.42,5.5L125,98.23l-9.42-5.49Z"></path><path id="Path_12825" data-name="Path 12825" class="cls-10" d="M66,122.85l9.42,5.49,40.24-35.6-9.42-5.5Z"></path><path id="Path_12826" data-name="Path 12826" class="cls-11" d="M56.53,117.35l9.42,5.5,40.24-35.61-9.42-5.5Z"></path><path id="Path_12827" data-name="Path 12827" class="cls-10" d="M47.11,111.85l9.42,5.5L96.77,81.74l-9.42-5.5Z"></path><path id="Path_12828" data-name="Path 12828" class="cls-11" d="M37.69,106.36l9.42,5.49L87.35,76.24l-9.42-5.49Z"></path><path id="Path_12829" data-name="Path 12829" class="cls-10" d="M28.26,100.86l9.42,5.5L77.93,70.75l-9.42-5.5Z"></path><path id="Path_12830" data-name="Path 12830" class="cls-11" d="M18.84,95.36l9.42,5.5L68.5,65.25l-9.42-5.5Z"></path><path id="Path_12831" data-name="Path 12831" class="cls-10" d="M9.42,89.86l9.42,5.5L59.08,59.75l-9.42-5.49Z"></path><path id="Path_12832" data-name="Path 12832" class="cls-11" d="M0,84.37l9.42,5.49L49.66,54.25l-9.42-5.49Z"></path><g id="Group_7378" data-name="Group 7378"><g id="Group_8252" data-name="Group 8252" class="cls-12"><g id="Group_7377" data-name="Group 7377"><path id="Path_12833" data-name="Path 12833" class="cls-10" d="M75.38,128.35a10.48,10.48,0,0,0,4.67,8.27c2.62,1.53,4.75.28,4.75-2.78Z"></path><path id="Path_12834" data-name="Path 12834" class="cls-11" d="M66,122.85a10.45,10.45,0,0,0,4.66,8.27c2.63,1.53,4.76.29,4.76-2.78Z"></path><path id="Path_12835" data-name="Path 12835" class="cls-10" d="M56.53,117.34a10.49,10.49,0,0,0,4.67,8.27c2.63,1.53,4.76.29,4.76-2.78Z"></path><path id="Path_12836" data-name="Path 12836" class="cls-11" d="M47.11,111.85a10.45,10.45,0,0,0,4.67,8.27c2.63,1.53,4.75.29,4.75-2.77Z"></path><path id="Path_12837" data-name="Path 12837" class="cls-10" d="M37.69,106.36a10.46,10.46,0,0,0,4.66,8.27c2.63,1.53,4.76.28,4.76-2.78Z"></path><path id="Path_12838" data-name="Path 12838" class="cls-10" d="M0,84.37a10.46,10.46,0,0,0,4.67,8.27c2.63,1.53,4.75.29,4.75-2.78Z"></path><path id="Path_12839" data-name="Path 12839" class="cls-11" d="M28.26,100.86a10.47,10.47,0,0,0,4.67,8.27c2.63,1.53,4.76.29,4.76-2.78Z"></path><path id="Path_12840" data-name="Path 12840" class="cls-10" d="M18.84,95.36a10.47,10.47,0,0,0,4.67,8.26c2.63,1.54,4.75.3,4.75-2.77Z"></path><path id="Path_12841" data-name="Path 12841" class="cls-11" d="M9.42,89.86a10.49,10.49,0,0,0,4.67,8.27c2.63,1.53,4.75.29,4.75-2.78Z"></path><path id="Path_12842" data-name="Path 12842" class="cls-13" d="M39.07,49.39l51.55-31.3L178.84,67l-53,32.18Z"></path><path id="Path_12843" data-name="Path 12843" class="cls-3" d="M178.62,66.72l-.15,74.22-53.61,32,.14-74.2Z"></path><path id="Path_12844" data-name="Path 12844" class="cls-13" d="M135.54,130v-.69l23.11-13.35v.7Z"></path></g></g></g><g id="Group_7380" data-name="Group 7380"><g id="Group_8253" data-name="Group 8253" class="cls-14"><g id="Group_7379" data-name="Group 7379"><path id="Path_12845" data-name="Path 12845" class="cls-13" d="M158.65,115.92l-23.12,13.35V130l23.12-13.34Z"></path></g></g></g><g id="Group_7382" data-name="Group 7382"><g id="Group_8254" data-name="Group 8254" class="cls-12"><g id="Group_7381" data-name="Group 7381"><path id="Path_12847" data-name="Path 12847" class="cls-13" d="M135.54,132.74v-.68l23.11-13.35v.69Z"></path></g></g></g><g id="Group_7384" data-name="Group 7384"><g id="Group_8255" data-name="Group 8255" class="cls-15"><g id="Group_7383" data-name="Group 7383"><path id="Path_12848" data-name="Path 12848" class="cls-13" d="M158.65,118.71l-23.12,13.35v.68l23.12-13.34Z"></path></g></g></g><g id="Group_7386" data-name="Group 7386"><g id="Group_8256" data-name="Group 8256" class="cls-12"><g id="Group_7385" data-name="Group 7385"><path id="Path_12850" data-name="Path 12850" class="cls-13" d="M135.54,135.53v-.69l23.11-13.34v.69Z"></path></g></g></g><g id="Group_7388" data-name="Group 7388"><g id="Group_8257" data-name="Group 8257" class="cls-16"><g id="Group_7387" data-name="Group 7387"><path id="Path_12851" data-name="Path 12851" class="cls-13" d="M158.65,121.49l-23.12,13.35v.69l23.12-13.35Z"></path></g></g></g><g id="Group_7390" data-name="Group 7390"><g id="Group_8258" data-name="Group 8258" class="cls-12"><g id="Group_7389" data-name="Group 7389"><path id="Path_12853" data-name="Path 12853" class="cls-13" d="M135.54,138.32v-.69l23.11-13.35V125Z"></path></g></g></g><g id="Group_7392" data-name="Group 7392"><g id="Group_8259" data-name="Group 8259" class="cls-17"><g id="Group_7391" data-name="Group 7391"><path id="Path_12854" data-name="Path 12854" class="cls-13" d="M158.65,124.28l-23.12,13.35v.69L158.65,125Z"></path></g></g></g><g id="Group_7394" data-name="Group 7394"><g id="Group_8260" data-name="Group 8260" class="cls-12"><g id="Group_7393" data-name="Group 7393"><path id="Path_12856" data-name="Path 12856" class="cls-13" d="M135.54,146.15v-.69l23.11-13.34v.69Z"></path></g></g></g><g id="Group_7396" data-name="Group 7396"><g id="Group_8261" data-name="Group 8261" class="cls-18"><g id="Group_7395" data-name="Group 7395"><path id="Path_12857" data-name="Path 12857" class="cls-13" d="M158.65,132.12l-23.12,13.34v.69l23.12-13.34Z"></path></g></g></g><g id="Group_7398" data-name="Group 7398"><g id="Group_8262" data-name="Group 8262" class="cls-12"><g id="Group_7397" data-name="Group 7397"><path id="Path_12859" data-name="Path 12859" class="cls-13" d="M135.54,148.94v-.69l23.11-13.34v.68Z"></path></g></g></g><g id="Group_7400" data-name="Group 7400"><g id="Group_8263" data-name="Group 8263" class="cls-19"><g id="Group_7399" data-name="Group 7399"><path id="Path_12860" data-name="Path 12860" class="cls-13" d="M158.65,134.91l-23.12,13.34v.69l23.12-13.35Z"></path></g></g></g><g id="Group_7402" data-name="Group 7402"><g id="Group_8264" data-name="Group 8264" class="cls-12"><g id="Group_7401" data-name="Group 7401"><path id="Path_12862" data-name="Path 12862" class="cls-13" d="M135.54,151.72V151l23.11-13.34v.69Z"></path></g></g></g><g id="Group_7404" data-name="Group 7404"><g id="Group_8265" data-name="Group 8265" class="cls-20"><g id="Group_7403" data-name="Group 7403"><path id="Path_12863" data-name="Path 12863" class="cls-13" d="M158.65,137.69,135.53,151v.69l23.12-13.34Z"></path></g></g></g><g id="Group_7406" data-name="Group 7406"><g id="Group_8266" data-name="Group 8266" class="cls-12"><g id="Group_7405" data-name="Group 7405"><path id="Path_12865" data-name="Path 12865" class="cls-13" d="M135.54,154.51v-.69l23.11-13.34v.68Z"></path></g></g></g><g id="Group_7408" data-name="Group 7408"><g id="Group_8267" data-name="Group 8267" class="cls-21"><g id="Group_7407" data-name="Group 7407"><path id="Path_12866" data-name="Path 12866" class="cls-13" d="M158.65,140.47l-23.12,13.35v.69l23.12-13.35Z"></path></g></g></g><g id="Group_7410" data-name="Group 7410"><g id="Group_8268" data-name="Group 8268" class="cls-12"><g id="Group_7409" data-name="Group 7409"><path id="Path_12868" data-name="Path 12868" class="cls-13" d="M135.11,112.82v-.69l23.12-13.35v.69Z"></path></g></g></g><g id="Group_7412" data-name="Group 7412"><g id="Group_8269" data-name="Group 8269" class="cls-22"><g id="Group_7411" data-name="Group 7411"><path id="Path_12869" data-name="Path 12869" class="cls-13" d="M158.23,98.78l-23.12,13.35v.69l23.12-13.35v-.69"></path></g></g></g><g id="Group_7414" data-name="Group 7414"><g id="Group_8270" data-name="Group 8270" class="cls-12"><g id="Group_7413" data-name="Group 7413"><path id="Path_12871" data-name="Path 12871" class="cls-13" d="M135.11,115.6v-.69l23.12-13.34v.69Z"></path></g></g></g><g id="Group_7416" data-name="Group 7416"><g id="Group_8271" data-name="Group 8271" class="cls-23"><g id="Group_7415" data-name="Group 7415"><path id="Path_12872" data-name="Path 12872" class="cls-13" d="M158.23,101.57l-23.12,13.34v.69l23.12-13.34v-.69"></path></g></g></g><g id="Group_7418" data-name="Group 7418"><g id="Group_8272" data-name="Group 8272" class="cls-12"><g id="Group_7417" data-name="Group 7417"><path id="Path_12874" data-name="Path 12874" class="cls-13" d="M135.11,118.39v-.69l23.12-13.34V105Z"></path></g></g></g><g id="Group_7420" data-name="Group 7420"><g id="Group_8273" data-name="Group 8273" class="cls-24"><g id="Group_7419" data-name="Group 7419"><path id="Path_12875" data-name="Path 12875" class="cls-13" d="M158.23,104.35,135.11,117.7v.69L158.23,105v-.69"></path></g></g></g><g id="Group_7422" data-name="Group 7422"><g id="Group_8274" data-name="Group 8274" class="cls-12"><g id="Group_7421" data-name="Group 7421"><path id="Path_12877" data-name="Path 12877" class="cls-13" d="M135.11,121.17v-.68l23.12-13.35v.69Z"></path></g></g></g><g id="Group_7424" data-name="Group 7424"><g id="Group_8275" data-name="Group 8275" class="cls-25"><g id="Group_7423" data-name="Group 7423"><path id="Path_12878" data-name="Path 12878" class="cls-13" d="M158.23,107.14l-23.12,13.35v.68l23.12-13.34v-.69"></path></g></g></g></g><g id="Group_7427" data-name="Group 7427"><path id="Path_1403" data-name="Path 1403" class="cls-26" d="M142,53.1a.57.57,0,0,1,0,.13.49.49,0,0,1,0,.11.32.32,0,0,1,0,.14v.11a.569.569,0,0,0-.08.13c0,.06-.07.11-.09.16h0a2.089,2.089,0,0,1-.14.17h0l-.17.17-.13.1-.11.11-.16.09-.17.11-1.14.67-3.05,1.77-4.39,2.55-5.16,3-5.36,3.11-5,2.91L112.78,71,110,72.59a8.55,8.55,0,0,1-2.6,1.11,6.79,6.79,0,0,1-2.58,0,10,10,0,0,1-2.29-.88L71.12,54.71A2.11,2.11,0,0,1,69.87,53l-.07,4.1a2.15,2.15,0,0,0,1.25,1.76l1,.58L74.78,61l4,2.3L83.52,66l5.06,2.92,4.89,2.82,4.25,2.46,3.14,1.8c.52.3,1,.59,1.56.9a6.84,6.84,0,0,0,6.38.39,27.64,27.64,0,0,0,2.68-1.54l3.81-2.21,4.88-2.84,5.37-3.12,5.3-3.07,4.65-2.7,3.44-2,1.66-1h.12l.12-.07.15-.12.11-.08.14-.11h0a1.21,1.21,0,0,0,.16-.16h0l.08-.08a.12.12,0,0,1,.06-.08h0a.4.4,0,0,0,.1-.15h0a.751.751,0,0,1,.07-.12v-.11a.78.78,0,0,0,0-.14.24.24,0,0,1,0-.08h0v-.13a1.049,1.049,0,0,0,0-.12L142,53Z"></path><g id="Group_1083" data-name="Group 1083"><path id="Path_1404" data-name="Path 1404" class="cls-27" d="M108.83,32.46l31.87,18.4c1.67,1,1.68,2.55,0,3.52l-31.66,18.4a6.74,6.74,0,0,1-6.06,0L71.12,54.37c-1.67-1-1.69-2.55,0-3.51l31.68-18.4"></path><path id="Path_1405" data-name="Path 1405" class="cls-28" d="M140.53,51.15,108.66,32.74a6.27,6.27,0,0,0-5.72,0L71.27,51.15a1.79,1.79,0,0,0-1.08,1.45,1.85,1.85,0,0,0,1.09,1.48l31.88,18.41a6.38,6.38,0,0,0,5.73,0l31.66-18.4a1.54,1.54,0,0,0,0-2.94Z"></path></g><path id="Path_1406" data-name="Path 1406" class="cls-7" d="M142,52.76a.619.619,0,0,1,0,.13.49.49,0,0,1,0,.11.32.32,0,0,1,0,.14v.11l-.08.12c0,.07-.07.12-.09.17h0a2.087,2.087,0,0,1-.14.17h0a1.45,1.45,0,0,1-.17.18l-.13.1-.11.1-.16.09a.66.66,0,0,1-.17.12l-1.14.67-3.05,1.77-4.39,2.55-5.16,3-5.36,3.11-5,2.91-4.07,2.36L110,72.25a8.8,8.8,0,0,1-2.6,1.11,6.79,6.79,0,0,1-2.58,0,10.23,10.23,0,0,1-2.29-.88L71.12,54.37a2.11,2.11,0,0,1-1.25-1.76l-.07,4.1a2.12,2.12,0,0,0,1.25,1.75l1,.59,2.72,1.57,4,2.3,4.76,2.75,5.06,2.92,4.89,2.82,4.25,2.46,3.14,1.81c.52.3,1,.59,1.56.9a6.84,6.84,0,0,0,6.38.39,27.64,27.64,0,0,0,2.68-1.54l3.81-2.21,4.88-2.84,5.37-3.12,5.3-3.07,4.65-2.71,3.44-2,1.66-1h.12l.12-.07.15-.12.11-.08.14-.11h0c.06,0,.11-.11.16-.16h0a.36.36,0,0,0,.08-.09.13.13,0,0,1,.06-.07h0a.49.49,0,0,0,.1-.15h0a.752.752,0,0,1,.07-.12V57.4a.78.78,0,0,0,0-.14.241.241,0,0,1,0-.08h0v-.13a1.053,1.053,0,0,0,0-.12l.06-4.1S142,52.72,142,52.76Z"></path></g><g id="Group_7428" data-name="Group 7428"><g id="Group_1106" data-name="Group 1106" class="cls-29"><g id="Group_1085" data-name="Group 1085" class="cls-30"><path id="Path_1407" data-name="Path 1407" class="cls-31" d="M92.47,53.35a.79.79,0,0,1,0-1.48l13.43-7.81a2.84,2.84,0,0,1,2.57,0L122,51.87a.79.79,0,0,1,0,1.48l-13.43,7.81a2.84,2.84,0,0,1-2.57,0Z"></path></g><g id="Group_1086" data-name="Group 1086" class="cls-32"><path id="Path_1408" data-name="Path 1408" class="cls-33" d="M92.43,53.35a.8.8,0,0,1-.48-1,.78.78,0,0,1,.47-.47l13.4-7.79a2.82,2.82,0,0,1,2.56,0l13.5,7.79a.79.79,0,0,1,.47,1,.84.84,0,0,1-.46.48l-13.41,7.78a2.82,2.82,0,0,1-2.56,0Z"></path></g><g id="Group_1087" data-name="Group 1087" class="cls-34"><path id="Path_1409" data-name="Path 1409" class="cls-35" d="M92.4,53.34a.8.8,0,0,1-.5-1,.79.79,0,0,1,.49-.49l13.37-7.77a2.82,2.82,0,0,1,2.56,0l13.46,7.77a.787.787,0,0,1,0,1.49l-13.37,7.77a2.86,2.86,0,0,1-2.55,0Z"></path></g><g id="Group_1088" data-name="Group 1088" class="cls-36"><path id="Path_1410" data-name="Path 1410" class="cls-37" d="M92.37,53.33a.78.78,0,0,1,0-1.48L105.7,44.1a2.82,2.82,0,0,1,2.56,0l13.42,7.75a.78.78,0,0,1,0,1.48l-13.34,7.75a2.86,2.86,0,0,1-2.55,0Z"></path></g><g id="Group_1089" data-name="Group 1089" class="cls-38"><path id="Path_1411" data-name="Path 1411" class="cls-39" d="M92.33,53.32a.79.79,0,0,1,0-1.48l13.3-7.73a2.8,2.8,0,0,1,2.55,0l13.39,7.73a.79.79,0,0,1,.49,1,.81.81,0,0,1-.48.48l-13.31,7.73a2.78,2.78,0,0,1-2.54,0Z"></path></g><g id="Group_1090" data-name="Group 1090" class="cls-40"><path id="Path_1412" data-name="Path 1412" class="cls-41" d="M92.3,53.31a.78.78,0,0,1,0-1.47l13.28-7.72a2.84,2.84,0,0,1,2.54,0l13.36,7.72a.77.77,0,0,1,.48,1,.75.75,0,0,1-.47.48L108.2,61a2.78,2.78,0,0,1-2.54,0Z"></path></g><g id="Group_1091" data-name="Group 1091" class="cls-42"><path id="Path_1413" data-name="Path 1413" class="cls-43" d="M92.27,53.3a.78.78,0,0,1-.49-1,.79.79,0,0,1,.48-.48l13.24-7.69a2.82,2.82,0,0,1,2.53,0l13.33,7.7a.78.78,0,0,1,.49,1,.81.81,0,0,1-.48.48L108.13,61a2.82,2.82,0,0,1-2.53,0Z"></path></g><g id="Group_1092" data-name="Group 1092" class="cls-44"><path id="Path_1414" data-name="Path 1414" class="cls-45" d="M92.23,53.3a.78.78,0,0,1,0-1.47l13.2-7.68a2.82,2.82,0,0,1,2.53,0l13.3,7.68a.77.77,0,0,1,.48,1,.8.8,0,0,1-.47.48L108.06,61a2.82,2.82,0,0,1-2.53,0Z"></path></g><g id="Group_1093" data-name="Group 1093" class="cls-46"><path id="Path_1415" data-name="Path 1415" class="cls-47" d="M92.2,53.29a.78.78,0,0,1-.48-1,.77.77,0,0,1,.47-.48l13.18-7.66a2.8,2.8,0,0,1,2.52,0l13.27,7.66a.79.79,0,0,1,.48,1,.8.8,0,0,1-.47.48L108,60.94a2.8,2.8,0,0,1-2.52,0Z"></path></g><g id="Group_1094" data-name="Group 1094" class="cls-48"><path id="Path_1416" data-name="Path 1416" class="cls-49" d="M92.17,53.28a.77.77,0,0,1-.48-1,.75.75,0,0,1,.47-.48l13.15-7.64a2.78,2.78,0,0,1,2.51,0l13.24,7.65a.76.76,0,0,1,.47,1,.73.73,0,0,1-.47.47l-13.14,7.64a2.8,2.8,0,0,1-2.52,0Z"></path></g><g id="Group_1095" data-name="Group 1095" class="cls-50"><path id="Path_1417" data-name="Path 1417" class="cls-51" d="M92.14,53.27a.77.77,0,0,1-.48-1,.76.76,0,0,1,.47-.47l13.11-7.63a2.84,2.84,0,0,1,2.51,0L121,51.82a.77.77,0,0,1,.48,1,.76.76,0,0,1-.47.47L107.9,60.91a2.78,2.78,0,0,1-2.51,0Z"></path></g><g id="Group_1096" data-name="Group 1096" class="cls-52"><path id="Path_1418" data-name="Path 1418" class="cls-53" d="M92.1,53.26a.77.77,0,0,1,0-1.45l13.09-7.6a2.75,2.75,0,0,1,2.5,0l13.17,7.6a.78.78,0,0,1,.48,1,.76.76,0,0,1-.47.47l-13.08,7.6a2.78,2.78,0,0,1-2.51,0Z"></path></g><g id="Group_1097" data-name="Group 1097" class="cls-54"><path id="Path_1419" data-name="Path 1419" class="cls-55" d="M92.07,53.26a.77.77,0,0,1-.48-1,.76.76,0,0,1,.47-.47l13-7.59a2.75,2.75,0,0,1,2.5,0l13.14,7.59a.77.77,0,0,1,.47,1,.78.78,0,0,1-.47.47l-13,7.58a2.73,2.73,0,0,1-2.49,0Z"></path></g><g id="Group_1098" data-name="Group 1098" class="cls-56"><path id="Path_1420" data-name="Path 1420" class="cls-57" d="M92,53.25a.77.77,0,0,1,0-1.45l13-7.56a2.73,2.73,0,0,1,2.49,0l13.1,7.56a.77.77,0,0,1,0,1.45l-13,7.56a2.73,2.73,0,0,1-2.49,0Z"></path></g><g id="Group_1099" data-name="Group 1099" class="cls-58"><path id="Path_1421" data-name="Path 1421" class="cls-59" d="M92,53.24a.76.76,0,0,1,0-1.44l13-7.55a2.71,2.71,0,0,1,2.48,0l13.07,7.55a.77.77,0,0,1,.48,1,.78.78,0,0,1-.47.47l-13,7.54a2.73,2.73,0,0,1-2.49,0Z"></path></g><g id="Group_1100" data-name="Group 1100" class="cls-60"><path id="Path_1422" data-name="Path 1422" class="cls-61" d="M92,53.23a.76.76,0,0,1-.47-1,.79.79,0,0,1,.46-.47l13-7.53a2.77,2.77,0,0,1,2.48,0l13,7.54a.75.75,0,0,1,.47,1,.79.79,0,0,1-.46.47l-13,7.52a2.71,2.71,0,0,1-2.48,0Z"></path></g><g id="Group_1101" data-name="Group 1101" class="cls-62"><path id="Path_1423" data-name="Path 1423" class="cls-63" d="M91.93,53.22a.78.78,0,0,1-.47-1,.74.74,0,0,1,.47-.46l12.92-7.51a2.71,2.71,0,0,1,2.48,0l13,7.51a.75.75,0,0,1,.47,1,.79.79,0,0,1-.46.47l-12.93,7.51a2.77,2.77,0,0,1-2.48,0Z"></path></g><g id="Group_1102" data-name="Group 1102" class="cls-64"><path id="Path_1424" data-name="Path 1424" class="cls-65" d="M91.9,53.22a.77.77,0,0,1-.46-1,.74.74,0,0,1,.46-.47l12.89-7.49a2.75,2.75,0,0,1,2.47,0l13,7.49a.76.76,0,0,1,.47,1,.74.74,0,0,1-.46.47L107.35,60.7a2.69,2.69,0,0,1-2.47,0Z"></path></g><g id="Group_1103" data-name="Group 1103" class="cls-66"><path id="Path_1425" data-name="Path 1425" class="cls-67" d="M91.87,53.21a.78.78,0,0,1-.47-1,.74.74,0,0,1,.47-.46l12.86-7.48a2.73,2.73,0,0,1,2.46,0l12.94,7.48a.76.76,0,0,1,0,1.43l-12.86,7.46a2.67,2.67,0,0,1-2.46,0Z"></path></g><g id="Group_1104" data-name="Group 1104" class="cls-68"><path id="Path_1426" data-name="Path 1426" class="cls-69" d="M91.84,53.2a.75.75,0,0,1-.47-1,.79.79,0,0,1,.46-.47l12.83-7.45a2.73,2.73,0,0,1,2.46,0L120,51.78a.76.76,0,0,1,.47,1,.79.79,0,0,1-.47.46l-12.82,7.45a2.67,2.67,0,0,1-2.46,0Z"></path></g><g id="Group_1105" data-name="Group 1105" class="cls-70"><path id="Path_1427" data-name="Path 1427" class="cls-71" d="M91.81,53.19a.76.76,0,0,1-.47-1,.75.75,0,0,1,.46-.46l12.8-7.44a2.71,2.71,0,0,1,2.45,0l12.88,7.44a.75.75,0,0,1,0,1.42l-12.79,7.43a2.71,2.71,0,0,1-2.45,0Z"></path></g><path id="Path_1428" data-name="Path 1428" class="cls-7" d="M91.77,53.18a.75.75,0,0,1-.46-1,.77.77,0,0,1,.46-.46l12.76-7.42a2.71,2.71,0,0,1,2.45,0l12.84,7.43a.74.74,0,0,1,0,1.41L107.07,60.6a2.69,2.69,0,0,1-2.44,0Z"></path></g><path id="Path_1429" data-name="Path 1429" class="cls-26" d="M120.32,50.88v.06h0V51h0v.12h0l-.06.07h0l-.07.07H120l-.46.26-1.23.72-1.77,1-2.08,1.2L112.12,56l-2,1.17-1.64,1c-.35.19-.69.4-1,.6a3.51,3.51,0,0,1-1.05.45,3,3,0,0,1-1,0,4.29,4.29,0,0,1-.92-.36L91.77,51.53a.84.84,0,0,1-.5-.71v1.66a.86.86,0,0,0,.5.7l.41.24,1.1.63,1.6.93,1.92,1.11,2,1.17,2,1.14,1.71,1,1.27.73c.21.13.42.24.62.37a2.77,2.77,0,0,0,2.58.15c.37-.17.73-.41,1.08-.61l1.54-.9,2-1.14,2.17-1.26,2.14-1.24,1.87-1.09,1.39-.81.67-.38h.12l.07-.07h0a.16.16,0,0,0,0-.07h0v-.05h0a.09.09,0,0,1,0-.05h0V51.33Z"></path><g id="Group_1107" data-name="Group 1107"><path id="Path_1430" data-name="Path 1430" class="cls-27" d="M119.82,49.89a.74.74,0,0,1,0,1.41l-12.76,7.42a2.69,2.69,0,0,1-2.44,0L91.78,51.3a.74.74,0,0,1-.47-.95.7.7,0,0,1,.46-.46l12.77-7.42a2.63,2.63,0,0,1,2.44,0Z"></path><path id="Path_1431" data-name="Path 1431" class="cls-28" d="M119.75,50l-12.84-7.42a2.54,2.54,0,0,0-2.31,0L91.83,50a.62.62,0,0,0,0,1.18l12.85,7.43a2.6,2.6,0,0,0,1.16.27,2.53,2.53,0,0,0,1.15-.27l12.77-7.42a.62.62,0,0,0,0-1.19Z"></path></g><path id="Path_1432" data-name="Path 1432" class="cls-7" d="M120.32,50.65v.06h0v.06h0a.43.43,0,0,0,0,.07h0l-.06.07h0l-.07.07H120l-.46.27-1.23.72-1.77,1-2.08,1.21-2.17,1.26-2,1.17-1.64,1c-.35.19-.69.39-1,.6a3.51,3.51,0,0,1-1.05.45,2.8,2.8,0,0,1-1,0,3.8,3.8,0,0,1-.92-.35L91.77,51.3a.84.84,0,0,1-.5-.71v1.66a.84.84,0,0,0,.5.7l.41.24,1.1.63,1.6.93,1.92,1.11,2,1.17,2,1.14,1.71,1,1.27.74c.21.12.42.23.62.36a2.77,2.77,0,0,0,2.58.15c.37-.17.73-.41,1.08-.61l1.54-.9,2-1.14,2.17-1.26,2.14-1.24,1.87-1.09,1.39-.81.67-.38h.05l.07-.05h0v-.05h0l.07-.07h0a.16.16,0,0,0,0-.07h0V52.7h0a.11.11,0,0,1,0-.05h0V51a.227.227,0,0,1,.29-.35Z"></path></g></g><g id="Group_7426" data-name="Group 7426"><g id="Group_8276" data-name="Group 8276" class="cls-72"><g id="Group_2517" data-name="Group 2517"><path id="Path_4157" data-name="Path 4157" class="cls-9" d="M245.05,203.36a13.16,13.16,0,0,1,6.45-1.61c7.49,0,15.36,5.51,20.06,14,6.29,11.43,4.64,24.46-3.68,29.05a13.22,13.22,0,0,1-6.45,1.61c-7.49,0-15.36-5.51-20.06-14a28.73,28.73,0,0,1-3.69-16.92c.66-5.56,3.28-9.87,7.37-12.13m-4.31,8.6,10.87,8.3a3.76,3.76,0,0,1,1.35-1.77L246.8,205l-.69.34a11.86,11.86,0,0,0-5.37,6.67m31.95,13.14-11,.31a6.129,6.129,0,0,1-.29,2.33L272.27,236a21.22,21.22,0,0,0,.42-10.93m-24.87-20.56L254,218a4.25,4.25,0,0,1,2.52.1l1.1-12.8a15.18,15.18,0,0,0-6.12-1.3,11.43,11.43,0,0,0-3.67.6m10.81,1.26-1.11,12.78a7.84,7.84,0,0,1,2.56,2.4l7.21-7.71a25.62,25.62,0,0,0-8.66-7.47m11,11a29.619,29.619,0,0,0-1.66-2.67L260.69,222a8.87,8.87,0,0,1,.85,2.34l10.9-.3a29.34,29.34,0,0,0-2.82-7.15m2.24,20.25-10.95-8.37a3.5,3.5,0,0,1-1.25,1.17l-.24.11,6.14,13.48a12,12,0,0,0,1.26-.59,11.61,11.61,0,0,0,5-5.8m-7.35,6.73-6.16-13.52a4.44,4.44,0,0,1-1.81-.2l-1.1,12.81a15.23,15.23,0,0,0,6,1.32,11.36,11.36,0,0,0,3.07-.41m-10.13-1.4,1.1-12.79a7.4,7.4,0,0,1-1.19-.82L247,236.62a24.83,24.83,0,0,0,7.37,5.82M243.3,231.35a29.309,29.309,0,0,0,3,4.42l7.2-7.71a9.319,9.319,0,0,1-1.18-1.67c-.12-.23-.24-.47-.34-.7l-11,.3a30.632,30.632,0,0,0,2.31,5.36m-2.63-6.45,10.89-.3a7.28,7.28,0,0,1-.26-3.18l-10.91-8.35a18.928,18.928,0,0,0-.52,2.68,24.171,24.171,0,0,0,.8,9.15"></path><path id="Path_4158" data-name="Path 4158" class="cls-3" d="M244.16,203.58a13.23,13.23,0,0,1,6.45-1.62c7.49,0,15.36,5.51,20.06,14,6.29,11.43,4.65,24.46-3.67,29a13.24,13.24,0,0,1-6.46,1.62c-7.48,0-15.35-5.51-20.05-14a28.7,28.7,0,0,1-3.69-16.91c.66-5.57,3.27-9.88,7.36-12.13m-4.31,8.59,10.87,8.3a3.89,3.89,0,0,1,1.36-1.77l-6.17-13.53c-.23.1-.46.22-.68.34a11.85,11.85,0,0,0-5.38,6.66m32,13.15-11,.31a6.311,6.311,0,0,1-.29,2.32l10.87,8.3a21.33,21.33,0,0,0,.42-10.93m-24.87-20.56,6.13,13.47a4.14,4.14,0,0,1,2.51.1l1.11-12.81a15.35,15.35,0,0,0-6.08-1.35,11.15,11.15,0,0,0-3.67.59M257.75,206l-1.1,12.79a8.12,8.12,0,0,1,2.56,2.39l7.21-7.71a25.76,25.76,0,0,0-8.67-7.47m11,11a30.51,30.51,0,0,0-1.66-2.67l-7.28,7.78a9,9,0,0,1,.86,2.35l10.9-.3a30.24,30.24,0,0,0-2.82-7.16M271,237.33,260,229a3.5,3.5,0,0,1-1.25,1.17l-.24.11,6.14,13.48a12,12,0,0,0,1.26-.59,11.68,11.68,0,0,0,5.05-5.8m-7.36,6.73-6.16-13.53a4.46,4.46,0,0,1-1.81-.2l-1.1,12.81a15.14,15.14,0,0,0,6,1.33,11.838,11.838,0,0,0,3.08-.41m-10.14-1.41,1.11-12.78a6.179,6.179,0,0,1-1.19-.83l-7.29,7.79a24.92,24.92,0,0,0,7.37,5.82M242.41,231.6a29.25,29.25,0,0,0,3,4.42l7.21-7.71a8.847,8.847,0,0,1-1.18-1.67c-.13-.23-.24-.46-.35-.7l-11,.3a29.588,29.588,0,0,0,2.31,5.36m-2.64-6.45,10.89-.3a7.61,7.61,0,0,1-.26-3.18l-10.91-8.34A17.359,17.359,0,0,0,239,216a23.91,23.91,0,0,0,.79,9.14"></path><path id="Path_4159" data-name="Path 4159" class="cls-3" d="M192.29,188.88c.66-5.57,3.28-9.88,7.37-12.13a13.2,13.2,0,0,1,6.45-1.62c7.48,0,15.36,5.51,20,14.05,6.3,11.43,4.65,24.46-3.66,29a13.24,13.24,0,0,1-6.46,1.62c-7.48,0-15.35-5.51-20-14.05a28.63,28.63,0,0,1-3.69-16.91m3-3.54,10.87,8.3a3.94,3.94,0,0,1,1.35-1.77l-6.16-13.53c-.23.1-.46.22-.69.34a11.8,11.8,0,0,0-5.37,6.66m32,13.15-11,.31a5.91,5.91,0,0,1-.29,2.32l10.87,8.3a21.33,21.33,0,0,0,.42-10.93m-24.87-20.56,6.14,13.47a4.14,4.14,0,0,1,2.51.1l1.11-12.81a15.38,15.38,0,0,0-6.08-1.35,11.25,11.25,0,0,0-3.68.59m10.82,1.26L212.15,192a7.91,7.91,0,0,1,2.55,2.4l7.22-7.72a25.86,25.86,0,0,0-8.67-7.47m11,11.05a30.6,30.6,0,0,0-1.67-2.67l-7.27,7.78a8.94,8.94,0,0,1,.85,2.35l10.9-.3a29.411,29.411,0,0,0-2.82-7.16m2.25,20.26-11-8.37a3.69,3.69,0,0,1-1.25,1.17l-.24.11,6.14,13.47a12,12,0,0,0,1.26-.59,11.7,11.7,0,0,0,5-5.79m-7.36,6.73L213,203.7a4.44,4.44,0,0,1-1.81-.2l-1.1,12.81a15.24,15.24,0,0,0,6,1.33,11.77,11.77,0,0,0,3.07-.41M209,215.82,210.09,203a6.661,6.661,0,0,1-1.19-.83L201.62,210a24.67,24.67,0,0,0,7.37,5.82m-11.07-11.09a30,30,0,0,0,3,4.42l7.21-7.72a8.909,8.909,0,0,1-1.18-1.66c-.12-.24-.24-.47-.34-.71l-11,.31a31,31,0,0,0,2.31,5.36m-2.63-6.46,10.89-.3a7.28,7.28,0,0,1-.26-3.18L195,186.46a18.662,18.662,0,0,0-.52,2.68,24.12,24.12,0,0,0,.8,9.14"></path><path id="Path_4160" data-name="Path 4160" class="cls-3" d="M154.32,217a1.49,1.49,0,0,0,1.32,2.67l.17-.1,40.08-23.15a1.49,1.49,0,0,0-1.34-2.66l-.15.09Z"></path><path id="Path_4161" data-name="Path 4161" class="cls-3" d="M202,223.48a13.22,13.22,0,0,1,6.45-1.61c7.49,0,15.36,5.51,20.06,14,6.29,11.43,4.65,24.46-3.67,29a13.23,13.23,0,0,1-6.45,1.62c-7.49,0-15.36-5.51-20.06-14a28.75,28.75,0,0,1-3.69-16.92c.65-5.57,3.27-9.87,7.36-12.13m-4.31,8.6,10.87,8.3a3.84,3.84,0,0,1,1.36-1.77l-6.17-13.54-.69.34a11.9,11.9,0,0,0-5.37,6.67m32,13.14-11,.31a6.06,6.06,0,0,1-.3,2.32l10.87,8.3a21.22,21.22,0,0,0,.42-10.93m-24.87-20.56,6.14,13.47a4.14,4.14,0,0,1,2.51.1l1.11-12.81a15.35,15.35,0,0,0-6.08-1.35,11.52,11.52,0,0,0-3.68.59m10.82,1.27-1.1,12.78a8,8,0,0,1,2.56,2.4l7.21-7.72a25.83,25.83,0,0,0-8.67-7.46m11,11a30.6,30.6,0,0,0-1.67-2.67l-7.27,7.79a8.769,8.769,0,0,1,.86,2.34l10.89-.3a29.79,29.79,0,0,0-2.81-7.16m2.24,20.26-11-8.37a3.5,3.5,0,0,1-1.25,1.17l-.24.11,6.14,13.47a9,9,0,0,0,1.26-.59,11.55,11.55,0,0,0,5-5.79M221.41,264l-6.16-13.52a4.28,4.28,0,0,1-1.81-.21l-1.1,12.82a15.31,15.31,0,0,0,6,1.32,11.9,11.9,0,0,0,3.08-.41m-10.14-1.4,1.11-12.79a6.181,6.181,0,0,1-1.19-.83l-7.28,7.8a24.83,24.83,0,0,0,7.37,5.82m-11.07-11.1a29.25,29.25,0,0,0,3,4.42l7.21-7.71a8.85,8.85,0,0,1-1.18-1.67c-.13-.23-.24-.47-.35-.7l-11,.3a28.9,28.9,0,0,0,2.31,5.36m-2.64-6.5,10.89-.3a7.61,7.61,0,0,1-.26-3.18l-10.91-8.34a18.928,18.928,0,0,0-.52,2.68,24.1,24.1,0,0,0,.8,9.14"></path><path id="Path_4162" data-name="Path 4162" class="cls-3" d="M227.84,257.57l-11-8.36a3.53,3.53,0,0,1-1,1c-2.74-1.83-5.49-3.62-8.36-5.21a7.2,7.2,0,0,1-.25-3.13l-10.91-8.33a17.459,17.459,0,0,0-.51,2.67,20.06,20.06,0,0,0-.14,2.68c-.73-.47-1.45-1-2.17-1.44a12.3,12.3,0,0,1,.12-1.49c.65-5.57,3.27-9.87,7.36-12.13a13.22,13.22,0,0,1,6.45-1.61c7.49,0,15.36,5.51,20.06,14,4.3,7.82,4.89,16.39,2.17,22.49a21,21,0,0,1-1.93-1l.07-.14m-25.76-31.83a11.86,11.86,0,0,0-5.37,6.67l10.86,8.29a3.89,3.89,0,0,1,1.36-1.77l-6.16-13.53c-.24.11-.47.22-.69.34m5.39-1.34a11.521,11.521,0,0,0-3.68.59l6.13,13.47a4.17,4.17,0,0,1,2.52.09l1.11-12.8a15.38,15.38,0,0,0-6.08-1.35m7.14,1.85-1.1,12.79a8,8,0,0,1,2.56,2.39l7.21-7.71a25.72,25.72,0,0,0-8.67-7.46m11,11a30.6,30.6,0,0,0-1.67-2.67l-7.27,7.78a9,9,0,0,1,.86,2.35l10.89-.31a29.72,29.72,0,0,0-2.81-7.15m3.06,8.25-11,.31a5.91,5.91,0,0,1-.29,2.32l10.87,8.31a21.23,21.23,0,0,0,.42-10.93"></path><path id="Path_4163" data-name="Path 4163" class="cls-9" d="M195.71,238.88a25.289,25.289,0,0,0,.94,6.47l10.89-.3V245c2.87,1.59,5.63,3.39,8.36,5.21l-.25.16-.23.12L221.54,264a11.13,11.13,0,0,0,1.26-.59,11.57,11.57,0,0,0,5-5.65,18.587,18.587,0,0,0,1.93,1,13.63,13.63,0,0,1-5.85,6.56,13.23,13.23,0,0,1-6.45,1.62c-7.49,0-15.36-5.52-20.06-14.05a29.21,29.21,0,0,1-3.81-15.42l2.17,1.44m21.7,25.82a11.771,11.771,0,0,0,3.07-.41l-6.15-13.52a4.39,4.39,0,0,1-1.8-.2l-1.11,12.81a15.32,15.32,0,0,0,6,1.32m-7.06-1.81,1.1-12.78a7.092,7.092,0,0,1-1.19-.84L203,257.07a24.64,24.64,0,0,0,7.37,5.82M199.3,251.81a29,29,0,0,0,3,4.42l7.2-7.72a9.27,9.27,0,0,1-1.17-1.67,6.53,6.53,0,0,1-.35-.7l-11,.31a30.2,30.2,0,0,0,2.31,5.36"></path><path id="Path_4164" data-name="Path 4164" class="cls-3" d="M142.38,212.14c.45-3.85,2.26-6.82,5.09-8.38a9.12,9.12,0,0,1,4.46-1.12c5.17,0,10.61,3.81,13.86,9.71,4.35,7.9,3.21,16.9-2.54,20.06a9.06,9.06,0,0,1-4.46,1.12c-5.18,0-10.61-3.81-13.86-9.7a19.89,19.89,0,0,1-2.55-11.69m2.11-2.44,7.51,5.73a2.63,2.63,0,0,1,.94-1.22l-4.27-9.35-.47.23a8.17,8.17,0,0,0-3.71,4.61m22.07,9.08L159,219a4.18,4.18,0,0,1-.2,1.61l7.51,5.73a14.55,14.55,0,0,0,.29-7.55m-17.17-14.2,4.23,9.3a3,3,0,0,1,1.74.07l.76-8.85a10.66,10.66,0,0,0-4.2-.93,7.59,7.59,0,0,0-2.54.41m7.48.87-.77,8.83a5.4,5.4,0,0,1,1.77,1.66l5-5.33a17.78,17.78,0,0,0-6-5.16m7.58,7.64a19.547,19.547,0,0,0-1.14-1.85l-5,5.37a5.641,5.641,0,0,1,.59,1.62l7.53-.21a20.549,20.549,0,0,0-1.94-4.94m1.55,14-7.57-5.79a2.47,2.47,0,0,1-.86.81l-.17.08,4.24,9.31a8.649,8.649,0,0,0,.87-.41,8.07,8.07,0,0,0,3.49-4m-5.09,4.65-4.25-9.35a3,3,0,0,1-1.25-.14l-.76,8.86a10.53,10.53,0,0,0,4.14.91,8,8,0,0,0,2.12-.28m-7-1,.76-8.82a4.681,4.681,0,0,1-.82-.58l-5,5.39a17.29,17.29,0,0,0,5.09,4m-7.65-7.66a21.74,21.74,0,0,0,2.06,3.05l5-5.33a6.618,6.618,0,0,1-.81-1.15,4.44,4.44,0,0,1-.24-.49l-7.58.21a20.63,20.63,0,0,0,1.59,3.71m-1.82-4.47,7.53-.21a5.08,5.08,0,0,1-.18-2.19l-7.54-5.76a11.632,11.632,0,0,0-.36,1.85,16.8,16.8,0,0,0,.55,6.31"></path><path id="Path_4165" data-name="Path 4165" class="cls-9" d="M141.74,212.37c.46-3.84,2.26-6.82,5.09-8.37a9.06,9.06,0,0,1,4.46-1.12c5.18,0,10.61,3.81,13.86,9.7,4.35,7.9,3.21,16.9-2.54,20.07a9.14,9.14,0,0,1-4.46,1.12c-5.17,0-10.61-3.81-13.86-9.71a19.88,19.88,0,0,1-2.55-11.69m2.11-2.44,7.51,5.74a2.64,2.64,0,0,1,.94-1.22l-4.3-9.36-.48.24a8.18,8.18,0,0,0-3.71,4.6M165.93,219l-7.6.21a4.2,4.2,0,0,1-.2,1.61l7.51,5.73a14.8,14.8,0,0,0,.29-7.56m-17.18-14.2,4.24,9.31a2.8,2.8,0,0,1,1.74.07l.76-8.85a10.5,10.5,0,0,0-4.2-.94,8.141,8.141,0,0,0-2.54.41m7.47.87-.76,8.84a5.48,5.48,0,0,1,1.77,1.65l5-5.33a17.69,17.69,0,0,0-6-5.15m7.59,7.63a19.4,19.4,0,0,0-1.14-1.84l-5,5.37a6.3,6.3,0,0,1,.59,1.62l7.53-.21a20.42,20.42,0,0,0-1.95-4.94m1.55,14-7.57-5.78a2.47,2.47,0,0,1-.86.81l-.17.07,4.24,9.31a6.846,6.846,0,0,0,.87-.4,8,8,0,0,0,3.49-4M160.28,232,156,222.62a3.11,3.11,0,0,1-1.25-.14l-.76,8.85a10.53,10.53,0,0,0,4.14.91,7.58,7.58,0,0,0,2.12-.28m-7-1,.77-8.83a4.7,4.7,0,0,1-.83-.57l-5,5.38a17.25,17.25,0,0,0,5.09,4m-7.64-7.66a19.66,19.66,0,0,0,2.06,3l5-5.32a6.24,6.24,0,0,1-.82-1.16l-.24-.48-7.58.21a20.88,20.88,0,0,0,1.6,3.7m-1.82-4.46,7.52-.21a5.11,5.11,0,0,1-.18-2.2l-7.54-5.76a12.841,12.841,0,0,0-.35,1.85,16.47,16.47,0,0,0,.55,6.32"></path><path id="Path_4166" data-name="Path 4166" class="cls-28" d="M276.67,190.32l-88.17-52L142.28,166.4l87.39,52.5Z"></path><path id="Path_4167" data-name="Path 4167" class="cls-3" d="M276.67,228.76V190.32l-47,28.58v36.88Z"></path><path id="Path_4168" data-name="Path 4168" class="cls-13" d="M274.11,188.81,188.5,138.28l-36.86,27.2,82.12,48Z"></path><path id="Path_4169" data-name="Path 4169" class="cls-73" d="M189.89,97.69a2,2,0,0,1,2,2h0v45.4a2,2,0,0,1-4,.09V99.7a2,2,0,0,1,2-2h0"></path><path id="Path_4170" data-name="Path 4170" class="cls-3" d="M153.66,118.07a2,2,0,0,1,2,2h0v45.4a2,2,0,0,1-4,.08V120.08a2,2,0,0,1,2-2"></path><path id="Path_4171" data-name="Path 4171" class="cls-3" d="M268,143.92a2,2,0,0,1,4,0V161q-2,1.5-4,3.05Z"></path><path id="Path_4172" data-name="Path 4172" class="cls-9" d="M272,161v28.34a2,2,0,1,1-4,.09V164q2-1.53,4-3.05"></path><path id="Path_4173" data-name="Path 4173" class="cls-3" d="M231.74,166.11a2,2,0,0,1,4-.09v17.14q-2,1.51-4,3.05Z"></path><path id="Path_4174" data-name="Path 4174" class="cls-9" d="M235.77,183.16v28.35a2,2,0,0,1-4,0v-25.3q2-1.53,4-3.05"></path><path id="Path_4175" data-name="Path 4175" class="cls-74" d="M285,132.18,195.76,78.55l-44.27,26.81L238,159.85Z"></path><path id="Path_4176" data-name="Path 4176" class="cls-11" d="M151.49,105.37,240,159.82,219.53,187l-88.4-54.37Z"></path><path id="Path_4177" data-name="Path 4177" class="cls-75" d="M228.35,152.73,240,159.82,219.53,187l-11-6.74Z"></path><path id="Path_4178" data-name="Path 4178" class="cls-75" d="M206.23,139.12l11.67,7.09-20.5,27.16-11-6.74Z"></path><path id="Path_4179" data-name="Path 4179" class="cls-75" d="M184.11,125.51l11.66,7.08-20.5,27.19-11-6.74Z"></path><path id="Path_4180" data-name="Path 4180" class="cls-75" d="M162,111.9l11.63,7.1-20.49,27.21-11-6.74Z"></path><path id="Path_4181" data-name="Path 4181" class="cls-76" d="M219.53,187s-1,3.26-5.45,1.12-5.55-7.85-5.55-7.85Z"></path><path id="Path_4182" data-name="Path 4182" class="cls-76" d="M197.4,173.36s-1,3.26-5.45,1.12-5.54-7.85-5.54-7.85Z"></path><path id="Path_4183" data-name="Path 4183" class="cls-76" d="M175.26,159.76s-1,3.26-5.45,1.12-5.54-7.85-5.54-7.85Z"></path><path id="Path_4184" data-name="Path 4184" class="cls-76" d="M153.13,146.16s-1,3.26-5.45,1.12-5.54-7.85-5.54-7.85Z"></path><path id="Path_4185" data-name="Path 4185" class="cls-10" d="M208.52,180.12s-1,3.26-5.45,1.12-5.54-7.86-5.54-7.86Z"></path><path id="Path_4186" data-name="Path 4186" class="cls-10" d="M186.39,166.52s-1,3.26-5.45,1.12-5.54-7.85-5.54-7.85Z"></path><path id="Path_4187" data-name="Path 4187" class="cls-10" d="M164.26,152.92s-1,3.26-5.45,1.12-5.55-7.85-5.55-7.85Z"></path><path id="Path_4188" data-name="Path 4188" class="cls-10" d="M142.12,139.32s-1,3.26-5.45,1.12-5.54-7.85-5.54-7.85Z"></path><path id="Path_4189" data-name="Path 4189" class="cls-7" d="M285,146.81V132.18L238.66,159l-19.13,28Z"></path><path id="Path_4190" data-name="Path 4190" class="cls-76" d="M153.22,198.59a6.5,6.5,0,0,1-.13-1.46,2.1,2.1,0,0,1,.13,1.46"></path><path id="Path_4191" data-name="Path 4191" class="cls-76" d="M187.94,227c.21.27.42.54.63.79a4.749,4.749,0,0,1-.63-.79"></path><path id="Path_4192" data-name="Path 4192" class="cls-9" d="M150.14,185.78c-5.63,3.59-4.61,10.25-1,14.35,0-1-.51-3.07.51-3.59s2.89-.48,3.46.58a6.538,6.538,0,0,0,.13,1.47,2.19,2.19,0,0,0-.13-1.47c0-2.21,1.11-4.3,3.2-2.63,1,.52.51,2.56.51,4.1,1-2.05,2.56-5.12,5.13-4.1,1,0,3.07,2,2,2.56-4.62,3.08-6.67,7.18-4.62,11.28,4.1,8.19,13.84,9.22,22,12.29,2.31.92,4.61,3.92,6.55,6.38a4.75,4.75,0,0,0,.63.79l-.63-.79c-1.13-1.74-1.56-4.48.63-5.36,6.15-1.53,5.64,5.64,8.2,9.22,1-2.56,1-7.17,4.61-5.63,2.56,1.54,3.07,5.12-.51,6.15,3.07,10.24,16.9,8.71,24.59,13.83a13.26,13.26,0,0,1,4.21,4.09v6.48L142.3,205.34V182.21c3.28.1,3-3.62,7.35,1.53a2.62,2.62,0,0,1,.51,2"></path><path id="Path_4193" data-name="Path 4193" class="cls-13" d="M229.67,218.9v30.41a13.22,13.22,0,0,0-4.22-4.1c-7.68-5.12-21.51-3.58-24.59-13.83,3.59-1,3.08-4.61.51-6.15-3.58-1.53-3.58,3.08-4.61,5.64-2.56-3.59-2-10.76-8.19-9.22-2.19.87-1.76,3.61-.64,5.35-1.93-2.45-4.23-5.45-6.54-6.37-8.2-3.08-17.93-4.1-22-12.3-2.05-4.1,0-8.19,4.61-11.27,1-.51-1-2.56-2.05-2.56-2.56-1-4.1,2.05-5.12,4.1,0-1.54.51-3.59-.51-4.1-2.1-1.67-3.16.41-3.2,2.63-.58-1.06-2.31-1-3.46-.58s-.52,2.56-.52,3.59c-3.58-4.1-4.61-10.76,1-14.35a3.77,3.77,0,0,0-.51-2c-2-3.51-4.07-1.43-7.35-1.53V166.4Z"></path><path id="Path_4194" data-name="Path 4194" class="cls-77" d="M249,195.24l11.07-7L251.26,182,240,190.32Z"></path><path id="Path_4195" data-name="Path 4195" class="cls-78" d="M253.18,178.59,249,195.24l-9-4.92,4.63-16.95Z"></path><path id="Path_4196" data-name="Path 4196" class="cls-76" d="M256.46,188.81l-3.29-10.22-1.91,7.62Z"></path><path id="Path_4197" data-name="Path 4197" class="cls-13" d="M241.55,235.74a1.43,1.43,0,0,0,2,.49l20.21-12.49a1.46,1.46,0,0,0-1.53-2.48L242,233.76a1.43,1.43,0,0,0-.43,2h0"></path><path id="Path_4198" data-name="Path 4198" class="cls-9" d="M241.13,234.85a.86.86,0,0,0,.72,1,.85.85,0,0,0,.78-.27l3.93-8.05a.88.88,0,0,0-.72-1,.87.87,0,0,0-.79.27Z"></path><path id="Path_4199" data-name="Path 4199" class="cls-9" d="M263,221.75a.87.87,0,0,0,1.5.73l3.92-8a.86.86,0,0,0-.72-1,.87.87,0,0,0-.78.26Z"></path><path id="Path_4200" data-name="Path 4200" class="cls-13" d="M244.57,228.05a1.48,1.48,0,0,0,2,.48l21.24-13.13a1.48,1.48,0,0,0-1.55-2.51L245.05,226a1.5,1.5,0,0,0-.48,2"></path><path id="Path_4201" data-name="Path 4201" class="cls-9" d="M262.49,222.18c0,1.13.53,2,1.19,2s1.19-.91,1.19-2-.53-2-1.19-2-1.19.91-1.19,2"></path><path id="Path_4202" data-name="Path 4202" class="cls-9" d="M240.76,235c0,1.13.53,2,1.19,2s1.19-.91,1.19-2-.53-2-1.19-2-1.19.91-1.19,2"></path><path id="Path_4203" data-name="Path 4203" class="cls-7" d="M187,209.42h0a1.29,1.29,0,0,1-.34,0h0a2.462,2.462,0,0,1-.39-.09,3.1,3.1,0,0,1-.45-.21,2.912,2.912,0,0,1-.46-.32h0a3.879,3.879,0,0,1-.42-.39,3.942,3.942,0,0,1-.36-.45h0a4.729,4.729,0,0,1-.3-.48h0a5.051,5.051,0,0,1-.24-.53h0a2.721,2.721,0,0,1-.18-.55h0a3.689,3.689,0,0,1-.11-.56h0a3.64,3.64,0,0,1,0-.57,3.531,3.531,0,0,1,0-.56,1.879,1.879,0,0,1,.12-.45h0a.92.92,0,0,1,.16-.27,1,1,0,0,1,.32-.32l-1.77,1a1.29,1.29,0,0,0-.33.33h0a.6.6,0,0,0-.09.15v.07h0v.14a.5.5,0,0,0,0,.13.589.589,0,0,0,0,.13h0a.511.511,0,0,0,0,.13.532.532,0,0,0,0,.13.711.711,0,0,0,0,.14v1.12a.79.79,0,0,0,0,.13v.05h0v.19a.559.559,0,0,1,0,.12v.12l.05.1h0v.09q0,.05,0,.1a.931.931,0,0,1,.05.1q0,.055,0,.11l.06.11h0l.09.16a1.749,1.749,0,0,0,.16.25v.07h0v.06l.08.1a.391.391,0,0,1,.08.1l.08.09.07.08.09.09.08.09.1.08.1.09h.05l.1.07.1.08.1.06.1.07h.08l.1.05.09.05h1.07l.16-.07,1.78-1a1.071,1.071,0,0,1-.31.13"></path><path id="Path_4204" data-name="Path 4204" class="cls-28" d="M184.07,203.23a7.79,7.79,0,0,1,3.72,6.39c0,2.47-1.59,3.33-3.74,2.09a7.78,7.78,0,0,1-3.71-6.38c0-2.47,1.58-3.34,3.73-2.09m0,6.92c1.31.75,2.17.09,2.18-1.43a4.71,4.71,0,0,0-2.17-3.95c-1.31-.76-2.17-.1-2.17,1.44a4.72,4.72,0,0,0,2.16,3.94"></path><path id="Path_4205" data-name="Path 4205" class="cls-7" d="M189.55,208.4a1.411,1.411,0,0,0,0-.2v-.4a.591.591,0,0,1,0-.13v-.46a1.463,1.463,0,0,0,0-.2.3.3,0,0,0-.05-.2v-.08h0v-.09l-.06-.19-.07-.18-.06-.17a1.221,1.221,0,0,0-.07-.17v-.1h0v-.05c0-.06-.05-.12-.07-.17l-.09-.18-.1-.21-.15-.26a3.874,3.874,0,0,0-.27-.43c-.07-.1-.14-.21-.22-.31v-.06h0l-.09-.12c0-.06-.09-.12-.14-.17a2,2,0,0,0-.14-.16c0-.07-.1-.1-.14-.16l-.1-.12h0l-.16-.16L187,203l-.18-.15-.17-.14h0a.829.829,0,0,0-.18-.13l-.18-.13a.938.938,0,0,0-.18-.12l-.18-.12h0l-.13-.08-.18-.09-.17-.08-.17-.07h-.29l-.16-.05h-1l-.24.07a1.312,1.312,0,0,0-.27.12l-1.79,1a1.54,1.54,0,0,1,.54-.2h0a2.14,2.14,0,0,1,.62,0h0a3.4,3.4,0,0,1,.7.17h0a4.632,4.632,0,0,1,.78.37,5.34,5.34,0,0,1,.78.53,7.2,7.2,0,0,1,.71.64h0a8.42,8.42,0,0,1,.62.72h0a7.132,7.132,0,0,1,.54.81h0a8.864,8.864,0,0,1,.44.87h0a6.76,6.76,0,0,1,.33.89h0a7.059,7.059,0,0,1,.21.91h0a5.62,5.62,0,0,1,.07.92,5.814,5.814,0,0,1-.07.83h0a3,3,0,0,1-.2.66h0a2,2,0,0,1-.27.44l-.09.11a2,2,0,0,1-.39.33l1.77-1a1.749,1.749,0,0,0,.39-.33l.09-.11a.851.851,0,0,0,.11-.14,1.831,1.831,0,0,0,.13-.24v-.06h0v-.12a1.181,1.181,0,0,0,.07-.2.314.314,0,0,1,.05-.2v-.14h0a1.38,1.38,0,0,0,0-.2,1.109,1.109,0,0,0,0-.19v-.41h0a1.1,1.1,0,0,1,0-.18"></path><path id="Path_4206" data-name="Path 4206" class="cls-79" d="M188.84,214.33l1.77-1,1.53.88-1.77,1Z"></path><path id="Path_4207" data-name="Path 4207" class="cls-7" d="M190.38,212.27l1.77-1v2.93l-1.77,1Z"></path><path id="Path_4208" data-name="Path 4208" class="cls-79" d="M190.38,212.27l1.77-1,1.1.63-1.77,1Z"></path><path id="Path_4209" data-name="Path 4209" class="cls-80" d="M191.48,212.91l1.77-1,1.4,3.75-1.78,1Z"></path><path id="Path_4210" data-name="Path 4210" class="cls-79" d="M192.87,216.66l1.78-1,1.74,1-1.77,1Z"></path><path id="Path_4211" data-name="Path 4211" class="cls-7" d="M193,213.62l1.77-1,1.6,4-1.77,1Z"></path><path id="Path_4212" data-name="Path 4212" class="cls-7" d="M190.38,210.77l1.77-1,1.59.92-.37,1.84Z"></path><path id="Path_4213" data-name="Path 4213" class="cls-7" d="M190.39,208.51v2.26l1.77-1V207.5Z"></path><path id="Path_4214" data-name="Path 4214" class="cls-28" d="M193,213.62l1.6,4-1.75-1-1.39-3.74-1.1-.64v2.93l-1.53-.87v-8.2l3.33,1.93a4.83,4.83,0,0,1,2.4,4c0,1.45-.8,1.76-1.57,1.53m-.99-1.87c.61.35,1.07.17,1.07-.51a2.14,2.14,0,0,0-1.06-1.75l-1.59-.91v2.26l1.59.92"></path><path id="Path_4215" data-name="Path 4215" class="cls-7" d="M196.36,210.94v-.26a.511.511,0,0,0,0-.13v-.06h0v-.18a.5.5,0,0,0,0-.12v-.25h0v-.31a.93.93,0,0,0-.05-.1v-.1h0v-.06l-.05-.1a.126.126,0,0,0-.05-.1c-.05-.03,0-.08-.07-.12l-.08-.15h0l-.16-.26-.14-.19v-.05h0l-.05-.06-.08-.1-.09-.09-.09-.1-.1-.1-.1-.1-.11-.1-.12-.1a.58.58,0,0,0-.12-.1h0l-.1-.07-.13-.09-.13-.09-.13-.08h0l-3.33-1.93-1.78,1,3.34,1.92a3.639,3.639,0,0,1,.52.35h0a4.692,4.692,0,0,1,.47.42,4.4,4.4,0,0,1,.4.46h0a3.392,3.392,0,0,1,.34.5h0a5.276,5.276,0,0,1,.27.53h0a5.313,5.313,0,0,1,.2.56h0a5.05,5.05,0,0,1,.12.56h0a5.464,5.464,0,0,1,0,.57,3.172,3.172,0,0,1,0,.53h0a1.421,1.421,0,0,1-.12.4h0a2.4,2.4,0,0,1-.13.21,1,1,0,0,1-.3.29l1.77-1a1,1,0,0,0,.3-.29h0l.07-.14h0v-.4h0a.36.36,0,0,0,0-.11.619.619,0,0,0,0-.13.619.619,0,0,1,0-.13v-.14h0v-.13"></path><path id="Path_4216" data-name="Path 4216" class="cls-79" d="M195.93,218.42l1.77-1,5.05,2.91-1.77,1Z"></path><path id="Path_4217" data-name="Path 4217" class="cls-81" d="M196,210.23l1.77-1v8.19l-1.77,1Z"></path><path id="Path_4218" data-name="Path 4218" class="cls-7" d="M197.47,215.89l1.77-1v1.9l-1.78,1Z"></path><path id="Path_4219" data-name="Path 4219" class="cls-7" d="M197.46,217.79l1.77-1,3.52,2-1.77,1Z"></path><path id="Path_4220" data-name="Path 4220" class="cls-7" d="M201,219.82l1.77-1v1.51l-1.77,1Z"></path><path id="Path_4221" data-name="Path 4221" class="cls-7" d="M197.47,212.61l1.78-1v1.78l-1.78,1Z"></path><path id="Path_4222" data-name="Path 4222" class="cls-79" d="M197.47,215.89l1.77-1,3.45,2-1.77,1Z"></path><path id="Path_4223" data-name="Path 4223" class="cls-7" d="M200.92,216.38l1.77-1v1.5l-1.77,1Z"></path><path id="Path_4224" data-name="Path 4224" class="cls-7" d="M197.47,214.39l1.77-1,3.45,2-1.77,1Z"></path><path id="Path_4225" data-name="Path 4225" class="cls-79" d="M197.48,212.61l1.77-1,3.52,2-1.77,1Z"></path><path id="Path_4226" data-name="Path 4226" class="cls-7" d="M196,210.23l1.77-1,5.05,2.91-1.77,1Z"></path><path id="Path_4227" data-name="Path 4227" class="cls-7" d="M201,213.14l1.77-1v1.5l-1.77,1Z"></path><path id="Path_4228" data-name="Path 4228" class="cls-28" d="M201,213.14v1.5l-3.52-2v1.79l3.45,2v1.5l-3.45-2v1.9l3.52,2v1.52l-5-2.93v-8.19Z"></path><path id="Path_4229" data-name="Path 4229" class="cls-7" d="M173.55,201.85h0a.591.591,0,0,1-.23,0l-.29-.08a2.209,2.209,0,0,1-.34-.18,4.19,4.19,0,0,1-.7-.49h0a5.58,5.58,0,0,1-.61-.58h0a5,5,0,0,1-.5-.62v-.05c-.14-.21-.28-.42-.41-.64l-1.77,1,.07.11a5.07,5.07,0,0,0,.27.43.863.863,0,0,0,.07.1v.05l.08.1.13.17.12.15.12.14.05.06h0l.06.06.13.13.13.14.14.12.14.13h0l.12.1.13.1.14.1.13.09.14.08h0l.08.05h.96l1.77-1a.52.52,0,0,1-.16.06"></path><path id="Path_4230" data-name="Path 4230" class="cls-7" d="M175.47,202v-.54h0v-.51h0v-.16l-.05-.09v-.1a1.621,1.621,0,0,1-.1-.18l-.12-.18-.15-.21-.09-.11h0l-.1-.14-.12-.14a1,1,0,0,1-.13-.15h0l-.12-.13-.22-.21-.07-.06-.08-.08-.13-.12-.14-.12c-.1-.1-.22-.19-.32-.28l-.07-.06-.09-.07-.1-.09-.56-.49h0a4.783,4.783,0,0,1-.45-.45,2.55,2.55,0,0,1-.3-.41,1.17,1.17,0,0,1-.1-.41.75.75,0,0,1,.05-.26.34.34,0,0,1,.14-.15l-1.78,1a.27.27,0,0,0-.11.1h0v.64h0a.112.112,0,0,0,.05.09l.06.07v.12l.06.06h0l.06.06.08.09.12.12.18.17h0l.56.49.26.22.32.28.27.24.09.08c.13.13.27.26.4.4h0a5.845,5.845,0,0,1,.4.47h0a4.8,4.8,0,0,1,.36.52,4.869,4.869,0,0,1,.28.56,3,3,0,0,1,.18.6h0a3.68,3.68,0,0,1,.06.66,3.836,3.836,0,0,1,0,.47,2.851,2.851,0,0,1-.11.39h0l-.13.23a1,1,0,0,1-.31.29l1.77-1a1.11,1.11,0,0,0,.31-.3h0l.08-.13v-.06h0v-.11a.53.53,0,0,0,0-.12v-.11h0v-.1a.49.49,0,0,0,0-.12s0-.08,0-.12v-.14a.309.309,0,0,0,0-.1"></path><path id="Path_4231" data-name="Path 4231" class="cls-7" d="M172.31,196.76h0a8.8,8.8,0,0,1,.65.72h0a9.919,9.919,0,0,1,.57.82l1.77-1c-.08-.12-.15-.24-.23-.35l-.2-.29-.14-.18h0l-.13-.17-.14-.16-.15-.16c0-.06-.1-.1-.15-.16l-.06-.06h0l-.09-.09-.17-.16-.19-.16-.2-.16-.07-.06h0l-.1-.08-.2-.14-.22-.15-.22-.13h0l-.14-.08-.16-.08-.16-.08-.15-.06h-.4a.5.5,0,0,0-.13,0h-.81a1.511,1.511,0,0,0-.18.09l-1.77,1a1.14,1.14,0,0,1,.39-.14h0a1.55,1.55,0,0,1,.48,0h0a3,3,0,0,1,.57.15h0a4,4,0,0,1,.66.32,8.52,8.52,0,0,1,.8.53h0c.24.19.48.4.71.62"></path><path id="Path_4232" data-name="Path 4232" class="cls-7" d="M173.55,198.33l1.77-1-.85.8-1.77,1Z"></path><path id="Path_4233" data-name="Path 4233" class="cls-28" d="M170.77,195.58a7.87,7.87,0,0,1,2.78,2.75l-.86.79a6,6,0,0,0-2-2.08c-.68-.4-1-.26-1,.23s.59,1.08,1.42,1.78c1.17,1,2.68,2.25,2.66,4.06,0,1.5-.93,2.09-2.86,1a8.23,8.23,0,0,1-3-3l.84-.85a6.38,6.38,0,0,0,2.26,2.41c.84.48,1.24.27,1.25-.2,0-.62-.62-1.18-1.44-1.88-1.16-1-2.66-2.21-2.66-4,0-1.36,1-1.88,2.71-.91"></path><path id="Path_4234" data-name="Path 4234" class="cls-7" d="M178.2,201.64l1.77-1v6.65l-1.78,1Z"></path><path id="Path_4235" data-name="Path 4235" class="cls-7" d="M180.28,201.3l1.77-1v1.54l-1.77,1Z"></path><path id="Path_4236" data-name="Path 4236" class="cls-28" d="M180.28,201.3v1.55l-2.08-1.2v6.65l-1.52-.88v-6.65l-2.09-1.21V198Z"></path><path id="Path_4237" data-name="Path 4237" class="cls-7" d="M174.59,198l1.77-1,5.69,3.29-1.77,1Z"></path></g></g></g></g></g></g></svg>