<?xml version="1.0" encoding="UTF-8"?>
<!-- Generator: Adobe Illustrator 28.0.0, SVG Export Plug-In . SVG Version: 6.00 Build 0)  -->
<svg xmlns="http://www.w3.org/2000/svg" xmlns:xlink="http://www.w3.org/1999/xlink" version="1.1" id="Layer_1" x="0px" y="0px" viewBox="0 0 331.8 26.2" style="enable-background:new 0 0 331.8 26.2;" xml:space="preserve">
<style type="text/css">
	.st0{clip-path:url(#SVGID_00000083769093424862951040000011196973362720199329_);}
	.st1{fill-rule:evenodd;clip-rule:evenodd;fill:#0097DA;}
	.st2{fill-rule:evenodd;clip-rule:evenodd;fill:#C0D28D;}
	.st3{fill-rule:evenodd;clip-rule:evenodd;fill:#63A325;}
	.st4{fill-rule:evenodd;clip-rule:evenodd;fill:#E48FAF;}
	.st5{fill-rule:evenodd;clip-rule:evenodd;fill:#D60057;}
	.st6{fill-rule:evenodd;clip-rule:evenodd;fill:#71C1E7;}
	.st7{fill-rule:evenodd;clip-rule:evenodd;fill:#F9E792;}
	.st8{fill-rule:evenodd;clip-rule:evenodd;fill:#F4D500;}
	.st9{fill-rule:evenodd;clip-rule:evenodd;fill:#FCC078;}
	.st10{fill-rule:evenodd;clip-rule:evenodd;fill:#F07A06;}
	.st11{fill-rule:evenodd;clip-rule:evenodd;fill:#F08A61;}
	.st12{fill-rule:evenodd;clip-rule:evenodd;fill:#DA0013;}
	.st13{fill-rule:evenodd;clip-rule:evenodd;fill:#FFFFFF;}
	.st14{fill-rule:evenodd;clip-rule:evenodd;fill:#E40A1A;}
	.st15{fill-rule:evenodd;clip-rule:evenodd;fill:#2F3087;}
	.st16{fill:#2496E2;}
	.st17{clip-path:url(#SVGID_00000071547814971408140110000018283484493909672637_);}
	.st18{fill:url(#SVGID_00000111890495850463436960000016357769151058213033_);}
	.st19{fill:#00B464;}
</style>
<g id="Group_2456" transform="translate(342.413 3993.724)">
	<g>
		<g>
			<g>
				<g>
					<defs>
						<rect id="SVGID_1_" x="-339.6" y="-3993.7" width="62" height="26.2"></rect>
					</defs>
					<clipPath id="SVGID_00000141415657583006155820000014903796055570083234_">
						<use xlink:href="#SVGID_1_" style="overflow:visible;"></use>
					</clipPath>
					<g id="Group_2455" style="clip-path:url(#SVGID_00000141415657583006155820000014903796055570083234_);">
						<path id="Path_3607" class="st1" d="M-309-3970.5v1.5h-0.9v-1.7c0-0.1,0-0.3,0-0.4c0-0.2-0.3-0.4-0.5-0.4l0,0        c-0.1,0-0.3,0-0.4,0.1v2.4h-0.9v-2.9c0.5-0.2,0.9-0.3,1.4-0.3c0.6,0,1.2,0.4,1.3,1C-309-3970.9-309-3970.7-309-3970.5"></path>
						<path id="Path_3608" class="st1" d="M-287.1-3970.5v1.5h-0.9v-1.7c0-0.1,0-0.3,0-0.4c0-0.2-0.3-0.4-0.5-0.4l0,0        c-0.1,0-0.3,0-0.4,0.1v2.4h-0.9v-2.9c0.5-0.2,0.9-0.3,1.4-0.3c0.6,0,1.2,0.4,1.3,1C-287.1-3970.9-287.1-3970.7-287.1-3970.5"></path>
						<path id="Path_3609" class="st1" d="M-312.2-3969h-0.7c0-0.1-0.1-0.1-0.1-0.2c-0.2,0.2-0.4,0.3-0.7,0.3        c-0.6-0.1-1.2-0.6-1.2-1.2c-0.2-0.8,0.3-1.7,1.1-1.9c0.2,0,0.4-0.1,0.5-0.1c0.4,0,0.7,0.1,1,0.2L-312.2-3969z M-313.3-3971.5        c-0.4,0-0.8,0.5-0.7,1.3c0.1,0.5,0.3,0.6,0.5,0.6c0.1,0,0.3,0,0.4-0.1v-1.7C-313.2-3971.5-313.3-3971.5-313.3-3971.5"></path>
						<path id="Path_3610" class="st1" d="M-299.8-3969h-0.7c0-0.1-0.1-0.1-0.1-0.2c-0.2,0.2-0.4,0.3-0.7,0.3        c-0.6-0.1-1.2-0.6-1.2-1.2c-0.2-0.8,0.3-1.7,1.1-1.9c0.2,0,0.4-0.1,0.5-0.1c0.4,0,0.7,0.1,1,0.2v2.9H-299.8z M-300.9-3971.5        c-0.4,0-0.8,0.5-0.7,1.3c0.1,0.5,0.3,0.6,0.5,0.6c0.1,0,0.3,0,0.4-0.1v-1.7C-300.8-3971.5-300.9-3971.5-300.9-3971.5"></path>
						<path id="Path_3611" class="st1" d="M-284-3969h-0.7c0-0.1-0.1-0.1-0.1-0.2c-0.2,0.2-0.4,0.3-0.7,0.3        c-0.6-0.1-1.2-0.6-1.2-1.2c-0.2-0.8,0.3-1.7,1.1-1.9c0.2,0,0.4-0.1,0.5-0.1c0.4,0,0.7,0.1,1,0.2L-284-3969z M-285.1-3971.5        c-0.4,0-0.8,0.5-0.7,1.3c0.1,0.5,0.3,0.6,0.5,0.6c0.1,0,0.3,0,0.4-0.1v-1.7C-284.9-3971.5-285-3971.5-285.1-3971.5"></path>
						<path id="Path_3612" class="st1" d="M-294.7-3970.5v1.5h-0.9v-1.7c0-0.1,0-0.3,0-0.4c0-0.3-0.3-0.4-0.5-0.4        c-0.2,0-0.4,0-0.5,0.1c0.1,0.2,0.1,0.4,0.1,0.7v1.7h-0.9v-1.7c0-0.2,0-0.3,0-0.4c0-0.2-0.3-0.4-0.5-0.4l0,0        c-0.1,0-0.3,0-0.4,0.1v2.4h-0.9v-2.9c0.5-0.2,0.9-0.3,1.4-0.3c0.3,0,0.6,0.1,0.8,0.2c0.3-0.2,0.7-0.2,1-0.2        c0.6,0,1.2,0.4,1.3,1C-294.7-3970.9-294.7-3970.7-294.7-3970.5"></path>
						<path id="Path_3613" class="st1" d="M-293.2-3972.2c-0.4,0-0.7,0-1,0.1v4.5h0.9v-1.5c0.2,0.1,0.3,0.1,0.5,0.1        c0.6,0,1.2-0.5,1.3-1.1c0.3-0.8-0.2-1.7-1-2C-292.8-3972.1-293-3972.2-293.2-3972.2 M-292.5-3970.2c-0.1,0.9-0.8,0.7-0.9,0.6        v-1.9c0.1,0,0.2,0,0.2,0C-292.8-3971.5-292.4-3971-292.5-3970.2"></path>
						<path id="Path_3614" class="st1" d="M-316.7-3970c-0.1-0.4-0.4-0.7-0.7-0.8c-0.3-0.2-0.6-0.3-0.6-0.4c0-0.2,0.1-0.3,0.2-0.3        h0.1c0.3,0,0.5,0.1,0.7,0.2v-0.7c-0.3-0.1-0.5-0.2-0.8-0.2c-0.6,0-1.1,0.3-1,1c0.1,0.3,0.3,0.6,0.6,0.7        c0.3,0.2,0.6,0.4,0.7,0.6c0,0.2-0.1,0.4-0.5,0.4c-0.3,0-0.5-0.1-0.7-0.3v0.7c0.3,0.1,0.5,0.1,0.8,0.1        C-317.1-3968.9-316.5-3969.2-316.7-3970"></path>
						<path id="Path_3615" class="st1" d="M-323.1-3972.1c-0.5,0-1,0.1-1.5,0.3v2.9h0.9v-2.4c0.2-0.1,0.4-0.1,0.5-0.1h0.1V-3972.1        L-323.1-3972.1"></path>
						<path id="Path_3616" class="st1" d="M-321.9-3969h-0.9v-3.1c0.1,0,0.3,0,0.4,0s0.3,0,0.4,0L-321.9-3969z"></path>
						<path id="Path_3617" class="st1" d="M-315.1-3969.7h-0.1c-0.2,0-0.3-0.1-0.3-0.4v-3.1c-0.1,0-0.3-0.1-0.4,0        c-0.1,0-0.3,0-0.4,0l0,0v3.1c0,1,0.6,1.1,0.9,1.1c0.2,0,0.4,0,0.5-0.1L-315.1-3969.7z"></path>
						<path id="Path_3618" class="st1" d="M-290.3-3969h-0.9v-3.1c0.1-0.1,0.3-0.1,0.4-0.1c0.4,0,0.4,0.1,0.4,0.1L-290.3-3969z"></path>
						<path id="Path_3619" class="st1" d="M-302.8-3969.7c-0.2,0.1-0.4,0.1-0.6,0.1c-0.6,0-0.8-0.6-0.8-1.4c0-0.7,0.2-1.4,0.8-1.4        c0.2,0,0.5,0.1,0.6,0.2l0.5-0.6c-0.3-0.3-0.7-0.4-1.1-0.4c-1,0-1.8,0.6-1.8,2.1s0.7,2.1,1.8,2.1c0.3,0,0.7-0.1,1-0.2        L-302.8-3969.7z"></path>
						<path id="Path_3620" class="st1" d="M-306.3-3973.2c-0.1,0-0.3,0-0.4,0v1c-0.1,0-0.2,0-0.2,0c-0.8-0.1-1.6,0.6-1.6,1.4        c0,0.2,0,0.4,0.1,0.6c0.1,0.7,0.6,1.2,1.3,1.2c0.2,0,0.5-0.1,0.6-0.3l0.1,0.2h0.7v-4.1C-306-3973.2-306.1-3973.2-306.3-3973.2         M-307.1-3969.6c-0.2,0-0.4-0.2-0.5-0.6c-0.1-0.4,0-0.9,0.3-1.2c0.2-0.1,0.4-0.1,0.6,0v1.7        C-306.8-3969.6-307-3969.6-307.1-3969.6"></path>
						<path id="Path_3621" class="st1" d="M-319.8-3970.2c0.2,0,0.4,0,0.6,0h0.2c0-0.2,0.1-0.4,0.1-0.6c0-1.1-0.5-1.4-1.2-1.4l0,0        c-0.8,0-1.4,0.5-1.4,1.6l0,0c0,1.2,0.6,1.6,1.4,1.6l0,0c0.3,0,0.7-0.1,1-0.2v-0.7c-0.3,0.2-0.6,0.2-0.9,0.2s-0.6-0.2-0.6-0.6        v-0.1L-319.8-3970.2z M-320.1-3971.6L-320.1-3971.6L-320.1-3971.6c0.2,0,0.4,0.3,0.4,0.6v0.2h-1        C-320.6-3970.7-320.7-3971.5-320.1-3971.6"></path>
						<path id="Path_3622" class="st1" d="M-326.3-3972.4c0.2-0.1,0.5-0.2,0.7-0.2c0.3,0,0.6,0,0.9,0.1l0.2-0.7        c-0.5-0.2-1-0.2-1.5-0.2c-0.4,0-0.9,0.1-1.3,0.3v3.9h0.9v-1.8h1.4v-0.7h-1.4L-326.3-3972.4L-326.3-3972.4z"></path>
						<path id="Path_3623" class="st1" d="M-279.8-3972.7c0,0.3-0.2,0.5-0.5,0.5c-0.3,0-0.5-0.2-0.5-0.5s0.2-0.5,0.5-0.5l0,0        C-280-3973.2-279.8-3973-279.8-3972.7"></path>
						<path id="Path_3624" class="st1" d="M-277.6-3971.4c0-0.2-0.1-0.5-0.3-0.6c-0.2-0.1-0.4-0.1-0.6-0.1c-0.1,0-0.1,0-0.2,0        c-0.3,0-0.6,0.1-0.9,0.2v2.1h0.7v-1.6c0.1,0,0.2,0,0.3,0s0.1,0,0.2,0c0,0,0,0,0,0.1s0,0.2-0.1,0.3c-0.1,0.2-0.1,0.3-0.2,0.5        v0.7h0.5c0,0,0.4-0.9,0.4-1.2C-277.6-3971.2-277.6-3971.3-277.6-3971.4"></path>
						<path id="Path_3625" class="st1" d="M-282.3-3969h4.1v-0.6h-4.1V-3969z"></path>
						<path id="Path_3626" class="st1" d="M-279.8-3972c-0.1,0-0.2,0-0.4,0c-0.1,0-0.2,0-0.4,0v2.1h0.7L-279.8-3972L-279.8-3972z"></path>
						<path id="Path_3627" class="st1" d="M-281.9-3970.5c-0.1-0.2-0.1-0.3-0.2-0.5c0-0.1,0-0.2-0.1-0.3c0-0.1,0-0.1,0-0.1        c0.1,0,0.1,0,0.2,0c0.1,0,0.2,0,0.3,0v1.6h0.7v-2.1c-0.3-0.1-0.6-0.2-0.9-0.2c-0.1,0-0.1,0-0.2,0c-0.2,0-0.4,0-0.6,0.1        s-0.3,0.4-0.3,0.6c0,0.1,0,0.3,0.1,0.4c0.1,0.3,0.4,1.1,0.4,1.2h0.5L-281.9-3970.5z"></path>
						<path id="Path_3628" class="st2" d="M-324.6-3993.1c-0.6,1.5-1,3-1.4,4.5c-0.1,0.5-0.2,1-0.2,1.6c-0.1,0.8,0.5,1.6,1.4,1.7        c0.7,0.1,1.4,0.1,2.1,0.1c0.8,0,1.8-0.1,2.7-0.2c1.3-0.2,4-0.6,5.3-0.8c-2,0.3-4,0.5-6,0.5c-0.7,0-1.5,0-2.2-0.1        c-0.6-0.1-1.2-0.3-1.7-0.7c-0.3-0.3-0.6-0.7-0.7-1.1c-0.1-0.4-0.2-0.8-0.2-1.2c0-1.1,0.2-2.1,0.5-3.1        C-324.8-3992.5-324.7-3992.8-324.6-3993.1v-0.1V-3993.1z"></path>
						<path id="Path_3629" class="st3" d="M-325.5-3989c0,0.4,0.1,0.8,0.2,1.2s0.4,0.8,0.7,1.1c0.5,0.4,1.1,0.7,1.7,0.7        c0.7,0.1,1.5,0.2,2.2,0.1c2-0.1,4-0.3,6-0.5c0.1,0,0.3,0,0.4-0.1c0-0.1-0.1-0.3-0.1-0.4c-0.1-0.5-0.3-0.9-0.6-1.4        c-1.1,0.1-2.1,0.3-3.2,0.4c-2.4,0.3-4.5,0.4-5.3-0.4c-0.7-0.7-0.2-3,0.3-4.7c-0.4-0.3-0.8-0.5-1.2-0.6v0.1        c-0.1,0.4-0.3,0.8-0.4,1.2C-325.3-3991.1-325.4-3990-325.5-3989"></path>
						<path id="Path_3630" class="st4" d="M-333.4-3972c0.8-2.2,1.8-4.2,3-6.2c0.4-0.6,0.8-1.1,1.4-1.6c0.3-0.2,0.6-0.4,0.9-0.5        c0.2-0.1,0.4-0.1,0.6-0.1c0.6,0,1.1,0.2,1.6,0.5s1,0.6,1.4,1c0.9,0.9,1.7,1.9,2.5,2.9l0,0c0,0-1.6-2.2-2.6-3.3        c-0.5-0.5-1-1-1.5-1.5c-0.3-0.2-0.5-0.4-0.8-0.5c-0.3-0.2-0.6-0.2-1-0.2c-0.1,0-0.3,0-0.4,0c-0.4,0.1-0.7,0.3-1,0.7        c-0.5,0.6-0.9,1.2-1.2,1.9C-331.6-3976.7-332.6-3974.4-333.4-3972L-333.4-3972z"></path>
						<path id="Path_3631" class="st5" d="M-323.5-3975.7c0.5,0,1-0.1,1.5-0.3c-0.8-1-1.6-2-2.5-2.9c-0.4-0.4-0.9-0.7-1.4-1        s-1-0.4-1.6-0.5c-0.2,0-0.4,0-0.6,0.1c-0.3,0.1-0.7,0.3-0.9,0.5c-0.5,0.5-1,1-1.4,1.6c-1.2,2-2.2,4-3,6.2        c0.6,0.2,1.2,0.3,1.9,0.2c0.1-0.2,2.6-6.7,4.3-7C-325.9-3978.9-323.9-3976.2-323.5-3975.7"></path>
						<path id="Path_3632" class="st6" d="M-319.9-3984.9c1.9-0.5,3.7-0.8,5.6-1.1c-0.9,0.1-4.2,0.6-7.3,1.2s-4.5,1.2-3.8,3.2        c0.6,1.8,3.3,5,3.7,5.4c-0.8-1-1.5-2.1-2-3.2C-325.3-3982.8-322.7-3984.2-319.9-3984.9"></path>
						<path id="Path_3633" class="st1" d="M-314.3-3984.5c0.1-0.5,0.1-1,0-1.5l0,0c-1.9,0.3-3.8,0.6-5.6,1.1        c-2.8,0.7-5.4,2.1-3.8,5.5c0.6,1.1,1.3,2.2,2,3.2v0.1c0.5-0.3,1-0.8,1.3-1.3l0,0c0.1,0.1-2.2-2.9-1.9-4.2        C-322-3983.1-316.2-3984.2-314.3-3984.5"></path>
						<path id="Path_3634" class="st7" d="M-335.4-3992.4L-335.4-3992.4c0.5,0.7,1.4,1.7,2.4,2.9c0.6,0.7,1.2,1.3,1.9,1.9        c0.3,0.2,0.6,0.5,0.9,0.6c0.7,0.5,1.7,0.4,2.3-0.2c0.5-0.4,0.8-0.9,1.1-1.5c0.5-0.9,0.9-1.9,1.2-2.9c0.2-0.6,0.4-1.2,0.6-1.7        c-0.3,0.6-0.5,1.3-0.8,1.9c-0.4,1-1,1.8-1.8,2.6c-0.6,0.5-1.2,0.8-2,0.9c-0.1,0-0.1,0-0.2,0c-0.7,0-1.4-0.3-1.9-0.7        c-0.6-0.4-1.2-0.9-1.8-1.5C-334-3990.8-334.7-3991.6-335.4-3992.4L-335.4-3992.4L-335.4-3992.4z"></path>
						<path id="Path_3635" class="st8" d="M-331.6-3988.7c0.6,0.4,1.2,0.7,1.9,0.7c0.1,0,0.1,0,0.2,0c0.7-0.1,1.4-0.4,2-0.9        c0.8-0.7,1.4-1.6,1.8-2.6c0.3-0.6,0.6-1.3,0.8-1.9c0-0.1,0.1-0.1,0.1-0.2h-0.1c-0.6-0.1-1.2-0.1-1.8,0c-0.3,0.8-1.4,3.8-2.9,4        c-1.3,0.2-3-1.8-4.7-3.8c-0.5,0.1-0.9,0.3-1.4,0.6l0,0c0.7,0.9,1.5,1.8,2.3,2.6C-332.9-3989.6-332.3-3989.1-331.6-3988.7"></path>
						<path id="Path_3636" class="st9" d="M-331.4-3986.4c-0.2-0.5-0.5-1-0.9-1.5c-0.3-0.5-0.6-0.9-1-1.3c-0.7-0.9-1.5-1.8-2.3-2.7        c-0.2-0.2-0.4-0.4-0.6-0.6l0,0c1.3,1.3,2.3,2.9,3.1,4.5c0.3,0.6,1,2.3-0.3,3.4c-1.3,1.1-3.9,1.5-6.3,1.9        c1.1-0.1,2.3-0.3,3.4-0.4c0.8-0.1,1.6-0.3,2.4-0.4c0.7-0.1,1.4-0.4,2-0.8c0.3-0.2,0.5-0.6,0.5-0.9        C-331.2-3985.7-331.2-3986-331.4-3986.4"></path>
						<path id="Path_3637" class="st10" d="M-337.2-3991.1c1.1,1.1,2,2.4,2.7,3.8c0.7,1.4-0.1,1.9-1,2.2c-1.3,0.4-2.5,0.6-3.8,0.8        l0,0c-0.2,0.5-0.2,1-0.1,1.5l0,0c2.4-0.4,5-0.7,6.3-1.9c1.3-1.1,0.5-2.8,0.3-3.4c-0.8-1.7-1.9-3.2-3.1-4.5l0,0        c-0.3,0.2-0.5,0.5-0.7,0.7C-337-3991.6-337.1-3991.4-337.2-3991.1L-337.2-3991.1z"></path>
						<path id="Path_3638" class="st11" d="M-331.4-3982.2c-0.4-0.3-0.9-0.6-1.4-0.6c-0.5-0.1-1-0.1-1.5-0.1        c-1.7,0.1-3.5,0.2-5.2,0.5l0,0c1.2-0.2,2.3-0.2,3.5-0.3c0.7,0,1.4,0.1,2.1,0.3h0.1h0.1l0,0c1.1,0.4,1.8,1.6,1.6,2.8        c-0.1,1.4-0.3,2.9-0.7,4.3c-0.3,1.1-0.7,2.2-1,3.2c0.4-1.1,0.9-2.3,1.3-3.4c0.5-1.2,0.8-2.5,1.2-3.7c0.1-0.5,0.2-1.1,0.2-1.7        C-331-3981.4-331.1-3981.8-331.4-3982.2"></path>
						<path id="Path_3639" class="st12" d="M-332-3979.6c0.2-1.2-0.5-2.3-1.6-2.8l0,0h-0.1h-0.1c-0.7-0.2-1.4-0.3-2.1-0.3        c-1.2,0-2.3,0.1-3.5,0.3c0.1,0.6,0.3,1.2,0.7,1.7c0.9-0.1,1.9-0.2,2.8-0.2c2.6,0,2.6,0.7,2.5,2.7c-0.3,1.8-0.8,3.6-1.5,5.2        c0.2,0.1,0.3,0.3,0.5,0.4c0.2,0.2,0.5,0.3,0.8,0.4l0,0c0.3-0.9,0.7-2.1,1-3.2C-332.4-3976.7-332.1-3978.1-332-3979.6"></path>
					</g>
				</g>
			</g>
		</g>
	</g>
</g>
<g>
	<path id="path3571" class="st13" d="M100.7,25.5L100.7,25.5h-0.3H100h-0.5h-0.6h-0.7l-0.9-0.1l-1-0.1l-0.9-0.1l-1-0.2l-1-0.2   l-1-0.3l-0.9-0.3l-0.9-0.4l-0.9-0.4l-0.9-0.5l-0.9-0.5l-0.8-0.6l-0.7-0.7l-0.6-0.7l-0.6-0.8l-0.4-0.8l-0.3-0.9l-0.2-1l-0.1-1.1   v-0.2v-0.4v-0.5l0.1-0.6l0.2-0.7l0.3-0.7l0.4-0.8H64.5l-0.7-0.1l-0.7-0.3l-0.7-0.3l-0.6-0.5l-0.5-0.6L61,9.4l-0.3-0.7L60.8,8V1.1   h45.3l0.8,0.1l0.7,0.2l0.7,0.3l0.6,0.5l0.5,0.5l0.3,0.6l0.2,0.7l0.1,0.8v2.6l1,0.4l0.9,0.4l0.8,0.5l0.8,0.5l0.8,0.6l0.8,0.6   l0.6,0.7l0.6,0.7l0.5,0.8l0.4,0.9l0.2,1l0.1,1.1v0.1V16v0.2v0.3l-0.1,0.3l-0.1,0.4l-0.1,0.4l-0.1,0.5l-0.2,0.4l-0.3,0.5l-0.3,0.5   l-0.4,0.5l-0.4,0.5L115,21l-0.6,0.5l-0.7,0.5l-0.8,0.5l-0.8,0.5l-1,0.5l-1.1,0.4l-1.2,0.4l-1.3,0.3l-1.5,0.3l-1.5,0.2l-1.7,0.1   L100.7,25.5L100.7,25.5z"></path>
	<path id="path3575" class="st14" d="M100.7,25L100.7,25h-0.3h-0.3h-0.4h-0.5h-0.6L98,24.9l-0.7-0.1l-0.9-0.1l-0.8-0.1l-0.9-0.2   l-0.9-0.2L92.9,24L92,23.7l-0.8-0.3L90.3,23l-0.8-0.4l-0.8-0.5l-0.8-0.5L87.2,21l-0.6-0.7L86,19.6l-0.5-0.8L85.2,18L85,17l-0.1-1   l0,0v-0.1v-0.2v-0.2v-0.3l0.1-0.3v-0.4l0.1-0.4l0.2-0.4l0.2-0.4l0.3-0.5l0.3-0.5l0.4-0.5l0.4-0.4l0.5-0.5l0.6-0.5l0.7-0.5l0.8-0.5   l0.9-0.5l1-0.4l1-0.4l1.2-0.4l1.3-0.3l1.5-0.3L98,6.9l1.7-0.1h0.8h1.7l1,0.1l0,0l0.5,0.1h0.4l0.5,0.1l1.2,0.2l0.9,0.2l1,0.2l1,0.3   l1,0.3l1,0.3l1,0.4l0.9,0.4l0.8,0.5l0.8,0.6l0.8,0.6l0.7,0.6l0.6,0.7l0.5,0.8l0.4,0.8l0.2,0.9l0.1,1l0,0V16v0.2v0.2v0.3l-0.1,0.3   l-0.1,0.4l-0.1,0.4l-0.2,0.4l-0.2,0.4l-0.3,0.5l-0.3,0.5l-0.4,0.5l-0.4,0.5l-0.5,0.5l-0.6,0.5l-0.7,0.5l-0.7,0.4l-0.8,0.5l-1,0.4   l-1,0.4l-1.2,0.4l-1.3,0.3l-1.4,0.3l-1.5,0.2l-1.7,0.2L100.7,25L100.7,25z M101.2,23.6h-0.6l-1.8-0.1l-1.6-0.1l-1.6-0.2L94.2,23   l-1.3-0.3l-1.2-0.3l-1-0.4l-0.9-0.4L89,21.2l-0.7-0.4l-0.6-0.5l-0.6-0.4l-0.5-0.4l-0.4-0.4l-0.3-0.4l-0.3-0.4l-0.2-0.4l-0.2-0.4   l-0.1-0.4v-0.3v-0.3v-0.3V16v-0.2v-0.1v-0.1l0,0l0.1-0.9l0.3-0.8l0.4-0.7l0.5-0.7l0.6-0.6l0.7-0.5l0.7-0.5l0.8-0.4l0.8-0.4l0.9-0.4   l0.8-0.3l0.9-0.3l0.9-0.2l1-0.2l0.9-0.2l0.9-0.1l0.8-0.1l0.8-0.1l0.7-0.1h0.6h0.6h0.4h0.3h0.2h0.1l1.8,0.1l1.7,0.1l1.5,0.2l1.4,0.2   l1.3,0.3l1.1,0.3l1,0.3l0.9,0.4l0.8,0.4l0.7,0.4l0.7,0.4l0.6,0.3l0.5,0.5l0.4,0.4l0.3,0.4l0.3,0.4l0.2,0.4l0.2,0.4l0.1,0.4l0.1,0.3   l0.1,0.3v0.3l0,0v0.1v0.2v0.2l-0.2,1l-0.3,0.9l-0.4,0.7l-0.5,0.7l-0.6,0.6l-0.7,0.6l-0.8,0.5l-0.8,0.5l-0.8,0.4l-0.9,0.4l-0.9,0.3   l-0.9,0.2l-0.9,0.2l-0.9,0.2l-0.9,0.2l-0.8,0.1l-0.8,0.1h-0.8l-0.7,0.1h-0.6h-0.5L101.2,23.6L101.2,23.6z"></path>
	<path id="path3579" class="st15" d="M109.3,11.4H109h-0.4h-3.7h-1.1H89.4h-1.6H72.5h-1.3h-6.7l-0.6-0.1l-0.5-0.2l-0.5-0.3l-0.5-0.4   L62,9.9l-0.3-0.6l-0.2-0.6L61.4,8V1.8h44.7l0.8,0.1l0.7,0.3l0.6,0.4l0.5,0.5l0.4,0.5l0.3,0.7l0.1,0.8v6.3   C109.5,11.4,109.3,11.4,109.3,11.4z"></path>
	<path id="path3583" class="st13" d="M83.8,3.9L83.8,3.9v0.3v0.3v0.3v0.5v0.5v0.5v0.5v0.4v0.4v0.3v0.2v0.1l0.1,0.3l0.2,0.3L84.4,9   h0.4h0.9v0.2V8.9V8.6V8.2V7.8V7.3V6.8V6.3V5.8V5.4V5.1V4.9V4.8h1.7h1.7V3.9H87h-0.6h-0.5h-0.6h-1.2H83.8L83.8,3.9L83.8,3.9z    M89.9,3.9L89.9,3.9v0.3v0.3v0.3v0.5v0.5v0.5v0.5v0.4v0.4V8v0.2v0.1L90,8.7L90.2,9l0.3,0.2l0.3,0.1h4.3V9.2V9V8.7V8.5V8.3V8.2h-0.6   h-0.4h-0.4h-0.4h-0.4h-0.3h-0.3h-0.1L92,8.1l-0.1-0.2V7.8v-3h3.3V4.7V4.6V4.5V4.2V4V3.9H89.9L89.9,3.9z M95.9,3.9L95.9,3.9v0.2v0.3   v0.2v0.1v0.1H96h0.9H97h0.1v0.1v0.2v0.3v0.4v0.4v0.5v0.4v0.4v0.3V8v0.1v0.3l0.1,0.3l0.1,0.2l0.2,0.2l0.3,0.1h0.4h1V4.8h0.3h0.3h0.4   h0.3h0.2h0.2h0.1v0.1v0.2v0.3v0.4v0.4v0.5v0.4v0.4v0.3V8v0.1v0.4l0.1,0.3l0.2,0.2l0.3,0.1h0.4h1.2v0.1V8.9V8.6V8.2V7.8V7.3V6.8V6.3   V5.9V5.4V5.1V5V4.8h1.2V4.7V4.6V4.5V4.2V4V3.9H95.9L95.9,3.9z M105.1,3.9L105.1,3.9v0.3v0.4V5v0.5V6v0.6v0.5v0.4v0.4V8v0.1v0.4   l0.1,0.3l0.2,0.2l0.3,0.1h0.4h1V8.5V8.1V7.4V6.8V6.2V5.5V5V4.6V4.2V4V3.9H105.1L105.1,3.9z M63.7,3.9v3.7V8l0.1,0.4l0.1,0.3   l0.3,0.2l0.2,0.2l0.4,0.1h0.4h0.4h0.3l0,0V9V8.7V8.3V7.8V7.3V6.8V6.3V5.9V5.5V5.2V5V4.9h0.6h0.3h0.8h0.1L68,5l0.1,0.2l0.1,0.2v0.2   v0.2l-0.1,0.1L67.8,6h-0.2l-0.4,0.1h-0.5h-0.6v0.1v0.2v0.2v0.2v0.1L66.3,7h0.2h0.6h0.6h0.5h0.4L69,6.9l0.3-0.1l0.3-0.3l0.2-0.4   l0.1-0.4V5.3L70,5l-0.2-0.4l-0.3-0.4L69.1,4h-0.5H68L63.7,3.9L63.7,3.9z M76,4L76,4h-0.6H75h-1.6h-0.5h-2h-0.1l0,0v0.2v0.4V5v0.5V6   v0.6v0.5v0.5v0.5v0.3l0.1,0.3l0.2,0.2l0.2,0.2l0.4,0.1h1.5h1.5h1.4l0,0V9V8.7V8.5V8.2h-1.4h-0.5h-0.7h-0.3h-0.1H73h-0.1l0,0   l-0.1-0.1V8V7.8V4.9h2.7h0.3H76h0.1V4.7V4.6V4.5V4.2L76,4L76,4L76,4z M76.8,4L76.8,4v0.2v0.3v0.3v0.5v0.5v0.5v0.5v0.4v0.4v0.3v0.3   v0.1l0.1,0.3l0.2,0.2L77.4,9h0.1h0.2H78h0.3h0.2h0.2h0.1v0.1V8.9V8.6V8.2V7.7V7.3V6.8V6.3V5.9V5.5V5.2V5V4.9h0.1h0.2h1.7L81,5.1   l0.1,0.2v0.3L81,5.9L80.6,6h-0.8h-0.7v0.3v0.3l0.1,0.3l0,0l0.1,0.2l0.2,0.3l0.2,0.3l0.2,0.4l0.2,0.4l0.2,0.3l0.2,0.3l0.1,0.2   l0.1,0.1H81h0.3h0.3H82h0.4h0.3H83L81.7,7h0.4l0.3-0.1l0.4-0.2L83,6.4l0.2-0.5V5.3V5l-0.1-0.4l-0.2-0.2l-0.3-0.3L82.2,4h-0.4H76.8   L76.8,4z M73.1,6L73.1,6v0.2v0.2v0.2v0.1v0.1v0.1L73.2,7h0.2h0.3h0.1H75h0.4h0.5H76l0,0V6.8V6.5V6.3V6.1V6H73.1L73.1,6z M86.2,6   L86.2,6v0.3v0.2l0.1,0.3L86.5,7h0.2H87h0.9h0.6H89l0,0V6.8V6.5V6.3V6.1V6h-0.4h-0.4h-1h-0.4H86.2L86.2,6z M92.2,6v0.3v0.2v0.2   l0.1,0.1l0.2,0.1h0.1h1.8h0.3H95l0,0V6.8V6.5V6.3V6.1l0,0h-1.5h-0.4L92.2,6L92.2,6z"></path>
	<path id="path3623" class="st14" d="M113.4,16.5l-0.5,0.4l-0.5,0.4l-0.6,0.4v0.1L112,18l0.2,0.1l0.3-0.1l0.3-0.2l0.2-0.2l0.3,0.2   l0,0l-0.4,0.3l-0.4,0.2l-0.4,0.1h-0.4l-0.3-0.2l-0.3-0.2l-0.2,0.1l-0.3,0.1l-0.4,0.1l-0.4,0.1l-0.4,0.1l-0.3-0.1l-0.2-0.2l-0.2-0.1   l-0.2-0.4l0,0l-0.6,0.4l-0.7,0.3l-0.3,0.1h-0.3l-0.3-0.2l-0.2-0.2l-0.1-0.2l-0.1-0.2l0,0h-0.1l-0.5,0.3l-0.5,0.2l-0.6,0.2h-0.5   l-0.3-0.2l-0.3-0.2l-0.3,0.1l-0.3,0.1l-0.3,0.1l-0.5,0.1l-0.5-0.1l-0.3-0.2l-0.2-0.4v-0.4v-0.4v-0.4l0.1-0.4l0.2-0.6l0.2-0.6   l0.3-0.7l0.3-0.6l0,0l-0.5,0.6l-0.5,0.6l-0.8,1.1l-0.8,1l-0.8,0.9l-0.9,0.7l-0.6,0.4l0.1-0.1l0.1-0.2l0.2-0.3l1-1.5l0.8-1.7   l0.3-0.7l0.3-0.8l0,0L99.4,14l-0.3,0.4l-0.2,0.3l-0.1,0.2l-0.4,0.5l-0.2,0.4l-0.3,0.4l-0.3,0.4L97.2,17l-0.4,0.4l-0.3,0.3L96.2,18   l-0.3,0.2l-0.4,0.3L94.8,19l-0.5,0.3l-0.6,0.3l-1,0.4l-1.1,0.3l-1.1,0.1l-0.8-0.1l-0.8-0.2l-0.8-0.2l-0.7-0.4L86.7,19l-0.4-0.4   L86,18.1l-0.2-0.5L85.7,17v-0.6l0.2-0.6l0.2-0.5l0.3-0.4l0.4-0.4l0.6-0.5l0.7-0.4l1-0.4l0.9-0.3l1-0.1h0.8l1,0.1l0.9,0.3l0.8,0.4   l0.7,0.4l0.7,0.5l0.6,0.6l-0.2,0.2L95.9,15l-0.4-0.3l-0.3-0.2l-0.3-0.2l-0.7-0.4l-0.8-0.3l-0.8-0.2l-1-0.1h-0.9l-0.9,0.1l-0.9,0.2   l-0.5,0.2l-0.5,0.3l-0.5,0.4L86.9,15l-0.4,0.5L86.3,16l-0.1,0.5V17l0.1,0.5l0.2,0.4l0.3,0.3l0.5,0.5l0.6,0.3l0.9,0.4l0.9,0.2h1   l1-0.1l1-0.3l1-0.4l0.8-0.4l0.7-0.5l0.6-0.4l0.6-0.5l0.7-0.7l0.6-0.7l0.7-0.9l0.5-0.7l1.2-1.6l0.2-0.2l0.3-0.3l0.4-0.4l0.4-0.4   l0.4-0.3l0.5-0.4l0.4-0.3l0.8-0.5l0.9-0.4l-0.9,0.9l-0.8,0.9l-0.7,1l-0.3,0.4l-0.2,0.4l-0.2,0.4l-0.1,0.3l-0.3,0.8l0,0l1.3-1.6   l1.4-1.6l0.5-0.4l0.5-0.4l0.5-0.4l0.5-0.3h0.1l0.1-0.1l0,0l0.3-0.1l0.2-0.1l-0.1,0.1l-0.1,0.2l-0.3,0.4l-0.3,0.4l-0.3,0.4l-0.3,0.3   l-1.1,1.7l-0.9,2l-0.2,0.5l-0.2,0.6l-0.1,0.7v0.2v0.3l0.1,0.3l0.2,0.2l0.2,0.1l0.2-0.1l0.2-0.1l0,0l0.1-0.5l0.2-0.5l0.3-0.5   l0.3-0.4l0.4-0.3l0.5-0.3l0.4-0.2l0.3-0.1h0.3l0.3,0.1l0.1,0.3v0.3l-0.2,0.3l-0.3,0.4l-0.3,0.3l-0.3,0.3l-0.5,0.4l-0.5,0.4v0.1   l0.2,0.1h0.3l0.3-0.1l0.3-0.2l0.3-0.2l0.3-0.3l0.3-0.3l0,0v-0.2v-0.2l0.1-0.4l0.2-0.4l0.1-0.4l0.3-0.6l0.4-0.6l0.5-0.7l0.5-0.6   l0.5-0.6l0.3-0.3l0.4-0.4l0.4-0.3l0.5-0.3l0.2-0.1h0.2l0.2,0.1l0.1,0.2V11l-0.1,0.3l-0.4,0.8l-0.5,0.8l-0.5,0.8l-0.6,0.7l-1.6,1.7   l-0.2,0.5l-0.1,0.3v0.3l0.1,0.1h0.3l0.2-0.1l0.2-0.2l0.2-0.2l0.2-0.2l0.2-0.2l0.5-1.4l0.6-1.3l0.8-1.2l0.3-0.4l0.4-0.4l0.4-0.4   l0.4-0.4l0.3-0.2l0.3-0.1l0.3-0.2l0.3-0.1l0.2,0.1l0.1,0.1v0.1l-0.1,0.4l-0.2,0.4l-0.1,0.2l-0.1,0.2L113,12l-0.2,0.3l-0.2,0.3   l-0.2,0.3l-0.2,0.4l-0.2,0.3l-0.9,1.1l-1,1l-0.2,0.3l-0.1,0.3v0.4V17l0.2,0.2l0.2,0.1h0.2h0.2l0.3-0.1l0.3-0.2l0.1-0.7l0.2-0.6   l0.4-0.5l0.4-0.4l0.5-0.3l0.5-0.2h0.4l0.3,0.1l0.2,0.2l0.1,0.2l-0.1,0.2l-0.1,0.2l-0.1,0.2L113.4,16.5L113.4,16.5z M94.6,18.3h-0.4   l-0.4-0.1L93.6,18v-0.2l0.2-0.6l0.2-0.6l-0.1-0.1h-0.1l-0.2,0.1l-0.1,0.1v0.1v0.1l-0.2,0.5l-0.2,0.5l-0.2,0.5l0,0H92l0.1-0.2l0,0   H92l-0.4,0.2h-0.4L91,18.3l-0.2-0.2l-0.2,0.1l-0.4,0.1h-0.4l-0.3-0.1l-0.2-0.3l-0.1-0.3v-0.3l0.1-0.3h-0.1l0,0L89,17.4l-0.3,0.4   l-0.3,0.4L88,18.4h-0.3l-0.3-0.1l-0.1-0.2v-0.3v-0.3l0.1-0.3l0.2-0.6v-0.2v-0.1h-0.1l-0.2,0.1l-0.2,0.2l-0.2-0.1l0,0l0.1-0.1   l0.2-0.3l0.3-0.2l0.3-0.1h0.4l0.2,0.1l0.1,0.2v0.4l-0.1,0.4l-0.1,0.4l-0.1,0.2v0.2l0.1,0.1h0.1l0.1-0.1l0.3-0.4L89,17l0.1-0.3v-0.2   L89,16.4l-0.1-0.3l0.1-0.3l0.1-0.1h0.2l0.1,0.1l0.1,0.2v0.2v0.2l0.1,0.1h0.2l0.1-0.1l0.1-0.1l0.1-0.1l0.3-0.2l0.3-0.2l0.3-0.1h0.3   l0.3,0.2l0,0v-0.1H92h0.5v0.1l-0.6,1.6l0,0v0.1l0.1,0.1l0.2-0.1l0.2-0.1l0.2-0.2l0.1-0.1l0,0l0.5-1.4h0.9L94,16l0,0h0.2h0.3   l0.3,0.1l0.2,0.2v0.2l-0.1,0.2L94.8,17l-0.1,0.3l-0.1,0.3v0.1l0.1,0.1h0.2l0.1-0.1l0.1-0.1l0.1-0.1v-0.1l0.3,0.3L95.3,18L95,18.3   L94.6,18.3L94.6,18.3z M91.3,16.4l-0.2-0.1l-0.3,0.1l-0.2,0.2l-0.2,0.2L90.3,17l-0.1,0.3l-0.1,0.3l0.1,0.3l0.3,0.1l0.2-0.1l0.2-0.2   l0.1-0.2l0.1-0.2v-0.1v-0.1l0.1-0.2v-0.2L91.3,16.4L91.3,16.4z M112.6,12l0.1-0.2v-0.2h-0.2l-0.3,0.2l-0.2,0.3l-0.2,0.3l-0.2,0.2   l-0.8,1.3l-0.6,1.4l1.1-1.3l1-1.4L112.6,12L112.6,12z M105.4,15.6L105.4,15.6l-0.1-0.1l-0.3,0.1l-0.3,0.2l-0.2,0.3l-0.2,0.3   l-0.2,0.5l-0.1,0.5l0,0l0.6-0.5l0.4-0.5l0.1-0.1l0.2-0.2l0.1-0.2V15.6L105.4,15.6z M110.2,12l0.1-0.2v-0.2h-0.1l-0.3,0.2l-0.3,0.3   l-0.2,0.3l-0.2,0.2l-0.8,1.3l-0.6,1.4l0,0l1.1-1.3l0.9-1.4L110.2,12L110.2,12z M113.2,15.6L113.2,15.6l-0.2-0.1l-0.3,0.1l-0.3,0.2   l-0.2,0.3l-0.2,0.3l-0.2,0.5l-0.1,0.5l0,0l0.6-0.5l0.4-0.4l0.1-0.1l0.1-0.2L113,16L113.2,15.6L113.2,15.6z"></path>
</g>
<g>
	<rect x="164.8" y="5.9" class="st16" width="4.7" height="15.1"></rect>
	<polygon class="st16" points="171.2,5.9 181.8,5.9 181.8,9.5 175.9,9.5 175.9,12 181.1,12 181.1,15.6 175.9,15.6 175.9,21    171.2,21  "></polygon>
	<path class="st16" d="M193.3,20.6c-1.1,0.4-2.3,0.6-3.4,0.6c-4.1,0-7.4-2.6-7.4-8.1c0-5.1,3.4-7.6,7.4-7.6c1.1,0,2.3,0.2,3.4,0.5v4   c-0.7-0.3-1.6-0.5-2.4-0.5c-2,0-3.5,1.3-3.5,3.8c0,2.6,1.4,3.9,3.4,3.9c0.9,0,1.8-0.2,2.6-0.6L193.3,20.6z"></path>
	<g>
		<g>
			<g>
				<g>
					<g>
						<defs>
							<path id="SVGID_00000036960859426257929380000003733229674971282319_" d="M152.9,20.8c1.4,0,2.9-0.2,4.2-0.7         c0.3-0.1,0.6-0.2,0.9-0.4c-0.3,0.8-0.9,1.6-1.6,2.1c-1.4,1-3,1.7-4.6,1.9C152.4,22.9,152.7,21.8,152.9,20.8 M145.8,22.9         c0,0-0.1,0-0.1-0.1c-0.6-0.3-0.9-1.6-0.5-3.7c1.2,0.5,2.4,0.9,3.7,1.2c1,0.2,2,0.3,3,0.4c-0.5,2.1-1.1,3.2-1.5,3.2h-0.1         C148.7,23.9,147.2,23.5,145.8,22.9 M140.2,16.3c-0.1-0.4-0.2-0.7-0.2-1.1c0.4,0.5,0.8,1.1,1.3,1.5c0.8,0.8,1.8,1.4,2.8,1.9         c-0.2,1-0.3,2.1-0.1,3.1C142.2,20.4,140.9,18.5,140.2,16.3 M153.6,13.4v-1.3c1.3-0.1,2.5-0.4,3.6-1c0.9,1.8,1.4,3.7,1.4,5.7         c0,0.5,0,1-0.1,1.5c-0.5,0.3-1.1,0.6-1.7,0.8c-1.2,0.4-2.4,0.6-3.7,0.6C153.4,17.6,153.6,15.5,153.6,13.4 M149.1,19.3         c-1.3-0.3-2.5-0.7-3.7-1.2c0.5-2.1,1.2-4.1,2.2-6c0.2-0.3,0.3-0.7,0.5-1c0.8,0.4,1.6,0.6,2.5,0.8c0.7,0.1,1.3,0.2,2,0.2v1.2         c0,2.1-0.2,4.2-0.5,6.3C151,19.6,150,19.5,149.1,19.3 M142.1,15.9c-0.8-0.7-1.5-1.6-1.9-2.6c0.3-1.1,0.8-2.1,1.5-3         s1.6-1.8,2.5-2.4c0.3,0.5,0.7,1.1,1.2,1.5c0.5,0.5,1.1,0.9,1.7,1.2c-0.2,0.3-0.3,0.7-0.5,1c-0.9,1.9-1.7,3.9-2.2,6         C143.6,17.1,142.8,16.5,142.1,15.9 M152.9,5.9c1.3,1,2.4,2.1,3.3,3.5c0.2,0.3,0.4,0.5,0.5,0.8c-1,0.5-2,0.8-3.1,0.9         C153.4,9.3,153.2,7.6,152.9,5.9 M150.7,10.8c-0.7-0.2-1.5-0.4-2.2-0.7c0.9-1.6,1.9-3.1,3.2-4.4c0.4,1.8,0.7,3.5,0.8,5.3         C151.9,11,151.3,11,150.7,10.8 M146.1,8.6c-0.4-0.4-0.7-0.8-1-1.3c1-0.6,2.1-1.1,3.3-1.5c0.7-0.2,1.4-0.4,2.1-0.5         c-1.1,1.3-2.1,2.8-3,4.3C147.1,9.4,146.6,9,146.1,8.6 M143.8,5.2c0,0.1,0,0.1,0,0.2c-0.1,0.5-0.1,1.1,0,1.6         c-1.1,0.8-2.1,1.7-3,2.8c-0.2,0.3-0.5,0.6-0.7,1C140.8,8.5,142,6.6,143.8,5.2 M144.8,5.6c0.1-0.6,0.5-1.1,1-1.5         c1.4-0.4,2.9-0.3,4.2,0.3c-1.9,0.3-3.6,1-5.3,1.9C144.8,6,144.8,5.8,144.8,5.6 M153.6,4.1c0.3-0.2,0.6-0.4,1-0.5         c0.5,0.2,1.1,0.5,1.6,0.9C155.3,4.3,154.4,4.2,153.6,4.1 M151.8,3c0.5,0,0.9,0.1,1.4,0.2c-0.3,0.2-0.6,0.4-0.9,0.6         C152.1,3.5,151.9,3.2,151.8,3 M150.6,3.4c-0.5-0.2-0.9-0.3-1.4-0.4c0.4,0,0.8-0.1,1.2-0.1c0.2,0,0.4,0.2,0.7,0.7         C150.8,3.5,150.7,3.4,150.6,3.4 M138.7,13.4c0,1.1,0.1,2.1,0.4,3.2v0.2l0,0c1.9,6.1,8.3,9.5,14.4,7.7         c1.1-0.4,2.2-0.9,3.2-1.5h0.1c0.1-0.1,0.2-0.2,0.3-0.2c2.1-1.6,3.7-3.9,4.3-6.5c0-0.1,0.1-0.2,0.1-0.4v-0.1         c0.5-2.3,0.2-4.7-0.7-6.9c-0.1-0.3-0.5-0.4-0.7-0.2c-0.2,0.1-0.4,0.4-0.3,0.7c0.9,2.1,1.1,4.4,0.5,6.6         c-0.2,0.5-0.4,1-0.8,1.4v-0.6c0-2.2-0.6-4.4-1.6-6.3c0.7-0.6,1.2-1.5,1.4-2.4c0-0.3-0.1-0.6-0.4-0.6c-0.3,0-0.6,0.1-0.6,0.4         l0,0l0,0c-0.1,0.6-0.4,1.2-0.9,1.7c-0.2-0.3-0.3-0.5-0.5-0.8c-0.9-1.3-2-2.5-3.3-3.5c1.5,0.1,3,0.5,4.3,1.2         c0.2,0.1,0.4,0.1,0.6,0c0.2-0.2,0.2-0.5,0.1-0.7c-1.7-2.4-4.7-3.8-8.4-3.8C143.9,1.8,138.8,7,138.7,13.4L138.7,13.4"></path>
						</defs>
						<clipPath id="SVGID_00000106842499741557830300000004890880533909835651_">
							<use xlink:href="#SVGID_00000036960859426257929380000003733229674971282319_" style="overflow:visible;"></use>
						</clipPath>
						<g style="clip-path:url(#SVGID_00000106842499741557830300000004890880533909835651_);">
							
								<radialGradient id="SVGID_00000121978461500479875100000001486498555680871833_" cx="-1309.2261" cy="565.9337" r="0.3064" gradientTransform="matrix(62.6099 0 0 62.6099 82131.8359 -35427.6055)" gradientUnits="userSpaceOnUse">
								<stop offset="0" style="stop-color:#FFFFFF"></stop>
								<stop offset="6.000000e-02" style="stop-color:#EBF9FE"></stop>
								<stop offset="0.18" style="stop-color:#B6E8FA"></stop>
								<stop offset="0.36" style="stop-color:#61CDF5"></stop>
								<stop offset="0.54" style="stop-color:#00AEEF"></stop>
								<stop offset="1" style="stop-color:#002F54"></stop>
							</radialGradient>
							
								<rect x="138.7" y="1.8" style="fill:url(#SVGID_00000121978461500479875100000001486498555680871833_);" width="23.1" height="23.1"></rect>
						</g>
					</g>
				</g>
			</g>
		</g>
	</g>
</g>
<g>
	<path class="st19" d="M221.6,8.6c0.1,0,0.1-0.1,0.1-0.1c0.1-0.1,0.1-0.1,0.1-0.2c-0.2-0.3-0.3-0.6-0.4-0.8c0-0.1,0-0.1,0-0.2   c0.7-0.7,1.6-1.1,2.6-1.4c0.4-0.1,0.8-0.2,1.2-0.2c1.4,0,2.6,0.5,3.6,1.4s1.6,2.1,1.9,3.5c0.1,0.4,0.1,0.8,0.1,1.2   c0,2.2,0,4.4,0,6.7v0.1c0,0.3-0.2,0.4-0.5,0.4c-0.7,0-1.4,0-2.1,0c-0.3,0-0.5-0.2-0.5-0.5c0-2.4,0-4.7,0-7.1c0-0.7-0.3-1.4-0.8-1.9   c-0.4-0.5-1-0.7-1.6-0.7c-0.7,0-1.3,0.1-1.9,0.6s-0.9,1.1-1,1.8c0,0.2,0,0.4,0,0.6c0,1.8,0,3.7,0,5.5c0,0.1,0,0.2,0,0.2   c0,0.2-0.2,0.3-0.4,0.3c-0.7,0-1.5,0-2.2,0c-0.2,0-0.4-0.2-0.4-0.4v-0.1c0-1.9,0-3.9,0-5.8c0-1-0.4-1.8-1.3-2.3   c-1.3-0.7-3.2-0.4-3.8,1.5c-0.1,0.4-0.2,0.7-0.2,1.1c0,2.3,0,4.5,0,6.8c0,0.4-0.2,0.5-0.5,0.5c-0.7,0-1.3,0-2,0   c-0.4,0-0.5-0.2-0.5-0.6c0-2.3,0-4.6,0-6.9c0-1.8,0.7-3.3,2.1-4.5c0.7-0.7,1.6-1.1,2.6-1.2c1.5-0.3,2.9,0.1,4.2,1   C220.6,7.3,221.1,7.9,221.6,8.6C221.6,8.5,221.6,8.5,221.6,8.6z"></path>
	<path class="st19" d="M260.1,12.6c0,1.9,0,3.9,0,5.8c0,1-0.2,1.9-0.6,2.7c-0.6,1.3-1.7,2.2-3.1,2.6c-0.6,0.2-1.2,0.3-1.8,0.3   c-0.4,0-0.9,0-1.3,0c-0.2,0-0.4-0.2-0.4-0.4c0-0.7,0-1.3,0-2c0-0.3,0.2-0.4,0.4-0.4c0.3,0,0.7,0,1,0c0.9-0.1,1.7-0.4,2.3-1   c0.4-0.3,0.5-0.7,0.5-1.2c0-0.3,0-0.5,0.2-0.6c0.2-0.3,0.4-0.6,0.7-0.9c0-0.1,0.1-0.1,0-0.2s-0.1,0-0.2,0c-0.9,0.8-2,1.3-3.2,1.5   c-1.9,0.3-3.6-0.2-5-1.4c-1.1-1-1.8-2.2-2-3.6c-0.1-0.4-0.1-0.8-0.1-1.2c0-2.1,0-4.1,0-6.2c0-0.3,0.1-0.5,0.5-0.5   c0.7,0,1.4,0,2.1,0c0.3,0,0.5,0.2,0.5,0.5c0,2.1,0,4.3,0,6.4c0,0.7,0.2,1.4,0.7,2c0.5,0.7,1.2,1,2,1.1c0.8,0.1,1.5,0,2.1-0.4   c0.8-0.5,1.3-1.2,1.5-2.1c0.1-0.3,0.1-0.6,0.1-0.9c0-2.1,0-4.1,0-6.2c0-0.3,0.1-0.5,0.4-0.5c0.7,0,1.5,0,2.2,0   c0.2,0,0.4,0.2,0.4,0.4C260.1,8.4,260.1,10.5,260.1,12.6z"></path>
	<path class="st19" d="M273,8c0.1-0.1,0.1-0.1,0.1-0.1c0.1-0.1,0.1-0.1,0-0.2c-0.2-0.3-0.4-0.6-0.6-0.9c-0.1-0.2-0.1-0.4,0-0.6   s0.3-0.2,0.4-0.2c0.7,0,1.3,0,2,0c0.3,0,0.5,0.2,0.5,0.5c0,4,0,8,0,12c0,0.3-0.2,0.5-0.5,0.5c-0.6,0-1.3,0-1.9,0   c-0.2,0-0.4,0-0.5-0.2s-0.1-0.4,0-0.6c0.2-0.3,0.4-0.7,0.6-1c0.1-0.1,0-0.1,0-0.2c-0.1-0.1-0.1,0-0.2,0c-0.9,0.9-1.9,1.6-3.1,2   c-0.7,0.2-1.4,0.3-2.2,0.2c-3-0.2-5.5-2.4-6.1-5.2c-0.1-0.5-0.2-1.1-0.2-1.6c0.1-3.1,2.2-5.7,5.1-6.4c0.6-0.1,1.2-0.2,1.8-0.2   c1.4,0.1,2.6,0.5,3.7,1.4c0.3,0.3,0.6,0.6,0.9,0.9C272.9,7.9,272.9,8,273,8z M264.3,12.5c0,0.3,0.1,0.7,0.1,1   c0.3,1.2,1,2.1,2.2,2.5c0.8,0.3,1.7,0.4,2.5,0.2c1.1-0.3,2-0.9,2.5-1.9c0.4-0.8,0.5-1.7,0.3-2.7c-0.2-1.2-0.9-2.1-1.9-2.6   c-0.7-0.4-1.5-0.5-2.4-0.4s-1.6,0.4-2.2,1C264.6,10.4,264.3,11.4,264.3,12.5z"></path>
	<path class="st19" d="M243.6,8L243.6,8c0.2-0.2,0.2-0.2,0.1-0.4c-0.2-0.3-0.4-0.6-0.6-0.9s0-0.7,0.3-0.7h0.1c0.7,0,1.4,0,2,0   c0.3,0,0.4,0.1,0.4,0.4c0,4,0,8.1,0,12.1c0,0.3-0.2,0.5-0.5,0.5c-0.7,0-1.3,0-2,0c-0.3,0-0.5-0.2-0.5-0.5c0-0.1,0-0.3,0.1-0.4   c0.2-0.3,0.4-0.6,0.6-0.9c0.1-0.1,0-0.1,0-0.2c-0.1-0.1-0.1,0-0.2,0c-0.8,0.8-1.7,1.5-2.8,1.9c-0.8,0.3-1.6,0.4-2.5,0.3   c-3.1-0.2-5.5-2.4-6.1-5.3c-0.1-0.6-0.2-1.2-0.1-1.7c0.2-2.6,1.5-4.5,3.8-5.7c0.7-0.4,1.4-0.6,2.2-0.6c2.2-0.2,4,0.6,5.5,2.1   C243.5,7.9,243.5,7.9,243.6,8L243.6,8z M238.7,8.6c-0.2,0-0.5,0-0.7,0.1c-1.2,0.2-2.1,0.8-2.7,1.9c-0.4,0.9-0.5,1.8-0.4,2.7   c0.2,1.1,0.8,2,1.8,2.6c0.9,0.5,1.8,0.6,2.7,0.4c1.3-0.2,2.2-0.9,2.8-2.2c0.3-0.8,0.4-1.6,0.2-2.5c-0.2-0.8-0.5-1.4-1.1-2   C240.7,8.9,239.8,8.6,238.7,8.6z"></path>
</g>
</svg>
